SeanSlab_1.ufo
<glyph name="quotedbl" format="1">
  <advance width="491"/>
  <unicode hex="0022"/>
  <outline>
    <contour>
      <point x="208" y="618" type="line"/>
      <point x="218" y="846" type="line"/>
      <point x="55" y="846" type="line"/>
      <point x="65" y="618" type="line"/>
    </contour>
    <contour>
      <point x="425" y="618" type="line"/>
      <point x="435" y="846" type="line"/>
      <point x="273" y="846" type="line"/>
      <point x="283" y="618" type="line"/>
    </contour>
  </outline>
</glyph>
<glyph name="quotesingle" format="1">
  <advance width="273"/>
  <unicode hex="0027"/>
  <outline>
    <contour>
      <point x="208" y="618" type="line"/>
      <point x="218" y="846" type="line"/>
      <point x="55" y="846" type="line"/>
      <point x="65" y="618" type="line"/>
    </contour>
  </outline>
</glyph>
<glyph name="comma" format="1">
  <advance width="326"/>
  <unicode hex="002C"/>
  <outline>
    <contour>
      <point x="66" y="-121" type="line"/>
      <point x="177" y="-121"/>
      <point x="253" y="-48"/>
      <point x="253" y="60" type="curve"/>
      <point x="253" y="145"/>
      <point x="214" y="201"/>
      <point x="155" y="201" type="curve"/>
      <point x="107" y="201"/>
      <point x="71" y="175"/>
      <point x="71" y="127" type="curve"/>
      <point x="71" y="81"/>
      <point x="104" y="54"/>
      <point x="153" y="54" type="curve"/>
      <point x="152" y="15"/>
      <point x="140" y="-31"/>
      <point x="66" y="-41" type="curve"/>
    </contour>
  </outline>
</glyph>
<glyph name="hyphen" format="1">
  <advance width="444"/>
  <unicode hex="002D"/>
  <outline>
    <contour>
      <point x="70" y="221" type="curve"/>
      <point x="171" y="221"/>
      <point x="273" y="221"/>
      <point x="374" y="221" type="curve"/>
      <point x="374" y="347"/>
      <point x="374" y="221"/>
      <point x="374" y="347" type="curve"/>
      <point x="273" y="347"/>
      <point x="171" y="347"/>
      <point x="70" y="347" type="curve"/>
      <point x="70" y="221"/>
      <point x="70" y="347"/>
    </contour>
  </outline>
</glyph>
<glyph name="one" format="1">
  <advance width="507"/>
  <unicode hex="0031"/>
  <outline>
    <contour>
      <point x="297" y="0" type="curve"/>
      <point x="352" y="0"/>
      <point x="408" y="0"/>
      <point x="464" y="0" type="curve"/>
      <point x="464" y="114"/>
      <point x="464" y="0"/>
      <point x="464" y="114" type="curve"/>
      <point x="297" y="114"/>
      <point x="464" y="114"/>
      <point x="297" y="114" type="curve"/>
      <point x="297" y="0"/>
      <point x="297" y="114"/>
    </contour>
    <contour>
      <point x="297" y="114" type="curve"/>
      <point x="129" y="114"/>
      <point x="297" y="114"/>
      <point x="129" y="114" type="curve"/>
      <point x="129" y="0"/>
      <point x="129" y="114"/>
      <point x="129" y="0" type="curve"/>
      <point x="185" y="0"/>
      <point x="241" y="0"/>
      <point x="297" y="0" type="curve"/>
      <point x="297" y="114"/>
      <point x="297" y="0"/>
    </contour>
    <contour>
      <point x="93" y="469" type="curve"/>
      <point x="330" y="645"/>
      <point x="93" y="469"/>
      <point x="330" y="645" type="curve"/>
      <point x="219" y="722"/>
      <point x="330" y="645"/>
      <point x="219" y="722" type="curve"/>
      <point x="18" y="568"/>
      <point x="219" y="722"/>
      <point x="18" y="568" type="curve"/>
      <point x="93" y="469"/>
      <point x="18" y="568"/>
    </contour>
    <contour>
      <point x="371" y="0" type="curve"/>
      <point x="371" y="241"/>
      <point x="371" y="481"/>
      <point x="371" y="722" type="curve"/>
      <point x="219" y="722"/>
      <point x="371" y="722"/>
      <point x="219" y="722" type="curve"/>
      <point x="219" y="481"/>
      <point x="219" y="241"/>
      <point x="219" y="0" type="curve"/>
      <point x="371" y="0"/>
      <point x="219" y="0"/>
    </contour>
  </outline>
</glyph>
<glyph name="colon" format="1">
  <advance width="312"/>
  <unicode hex="003A"/>
  <outline>
    <contour>
      <point x="241" y="369" type="curve"/>
      <point x="241" y="420"/>
      <point x="204" y="444"/>
      <point x="155" y="444" type="curve"/>
      <point x="105" y="444"/>
      <point x="71" y="417"/>
      <point x="71" y="369" type="curve"/>
      <point x="241" y="369"/>
      <point x="71" y="369"/>
      <point x="241" y="369" type="curve"/>
      <point x="241" y="318"/>
      <point x="205" y="296"/>
      <point x="154" y="296" type="curve"/>
      <point x="104" y="296"/>
      <point x="71" y="321"/>
      <point x="71" y="369" type="curve"/>
      <point x="241" y="369"/>
      <point x="71" y="369"/>
    </contour>
    <contour>
      <point x="240" y="65" type="curve"/>
      <point x="240" y="116"/>
      <point x="204" y="140"/>
      <point x="154" y="140" type="curve"/>
      <point x="104" y="140"/>
      <point x="70" y="113"/>
      <point x="70" y="65" type="curve"/>
      <point x="240" y="65"/>
      <point x="70" y="65"/>
      <point x="240" y="65" type="curve"/>
      <point x="240" y="14"/>
      <point x="204" y="-8"/>
      <point x="154" y="-8" type="curve"/>
      <point x="104" y="-8"/>
      <point x="70" y="17"/>
      <point x="70" y="65" type="curve"/>
      <point x="240" y="65"/>
      <point x="70" y="65"/>
    </contour>
  </outline>
</glyph>
<glyph name="less" format="1">
  <advance width="749"/>
  <unicode hex="003C"/>
  <outline>
    <contour>
      <point x="673" y="633" type="curve"/>
      <point x="461" y="543"/>
      <point x="250" y="453"/>
      <point x="39" y="363" type="curve"/>
      <point x="39" y="237"/>
      <point x="39" y="363"/>
      <point x="39" y="237" type="curve"/>
      <point x="250" y="327"/>
      <point x="461" y="417"/>
      <point x="673" y="507" type="curve"/>
      <point x="673" y="633"/>
      <point x="673" y="507"/>
    </contour>
    <contour>
      <point x="684" y="99" type="curve"/>
      <point x="469" y="187"/>
      <point x="254" y="275"/>
      <point x="39" y="363" type="curve"/>
      <point x="39" y="237"/>
      <point x="39" y="363"/>
      <point x="39" y="237" type="curve"/>
      <point x="254" y="149"/>
      <point x="469" y="61"/>
      <point x="684" y="-27" type="curve"/>
      <point x="684" y="99"/>
      <point x="684" y="-27"/>
    </contour>
  </outline>
</glyph>
<glyph name="equal" format="1">
  <advance width="807"/>
  <unicode hex="003D"/>
  <outline>
    <contour>
      <point x="76" y="157" type="curve"/>
      <point x="294" y="157"/>
      <point x="513" y="157"/>
      <point x="731" y="157" type="curve"/>
      <point x="731" y="278"/>
      <point x="731" y="157"/>
      <point x="731" y="278" type="curve"/>
      <point x="513" y="278"/>
      <point x="294" y="278"/>
      <point x="76" y="278" type="curve"/>
      <point x="76" y="157"/>
      <point x="76" y="278"/>
    </contour>
    <contour>
      <point x="76" y="379" type="curve"/>
      <point x="294" y="379"/>
      <point x="513" y="379"/>
      <point x="731" y="379" type="curve"/>
      <point x="731" y="500"/>
      <point x="731" y="379"/>
      <point x="731" y="500" type="curve"/>
      <point x="513" y="500"/>
      <point x="294" y="500"/>
      <point x="76" y="500" type="curve"/>
      <point x="76" y="379"/>
      <point x="76" y="500"/>
    </contour>
  </outline>
</glyph>
<glyph name="question" format="1">
  <advance width="586"/>
  <unicode hex="003F"/>
  <outline>
    <contour>
      <point x="193" y="382" type="curve"/>
      <point x="193" y="345"/>
      <point x="193" y="258"/>
      <point x="193" y="221" type="curve"/>
      <point x="339" y="221"/>
      <point x="193" y="221"/>
      <point x="339" y="221" type="curve"/>
      <point x="339" y="258"/>
      <point x="339" y="345"/>
      <point x="339" y="382" type="curve"/>
      <point x="193" y="382"/>
      <point x="339" y="382"/>
    </contour>
    <contour>
      <point x="112" y="569" type="line"/>
      <point x="149" y="607"/>
      <point x="199" y="635"/>
      <point x="261" y="635" type="curve"/>
      <point x="339" y="635"/>
      <point x="393" y="595"/>
      <point x="393" y="519" type="curve"/>
      <point x="393" y="430"/>
      <point x="316" y="382"/>
      <point x="209" y="382" type="curve"/>
      <point x="209" y="341"/>
      <point x="209" y="311"/>
      <point x="209" y="270" type="curve"/>
      <point x="399" y="270"/>
      <point x="538" y="357"/>
      <point x="538" y="519" type="curve"/>
      <point x="538" y="672"/>
      <point x="424" y="755"/>
      <point x="268" y="755" type="curve"/>
      <point x="172" y="755"/>
      <point x="97" y="724"/>
      <point x="34" y="659" type="curve"/>
    </contour>
    <contour>
      <point x="353" y="39" type="curve"/>
      <point x="353" y="89"/>
      <point x="316" y="113"/>
      <point x="267" y="113" type="curve"/>
      <point x="217" y="113"/>
      <point x="183" y="86"/>
      <point x="183" y="39" type="curve"/>
      <point x="353" y="39"/>
      <point x="183" y="39"/>
      <point x="353" y="39" type="curve"/>
      <point x="353" y="-12"/>
      <point x="317" y="-34"/>
      <point x="266" y="-34" type="curve"/>
      <point x="216" y="-34"/>
      <point x="183" y="-10"/>
      <point x="183" y="39" type="curve"/>
      <point x="353" y="39"/>
      <point x="183" y="39"/>
    </contour>
  </outline>
</glyph>
<glyph name="F" format="1">
  <advance width="664"/>
  <unicode hex="0046"/>
  <outline>
    <contour>
      <point x="221" y="0" type="curve"/>
      <point x="272" y="0"/>
      <point x="221" y="0"/>
      <point x="373" y="0" type="curve"/>
      <point x="373" y="114"/>
      <point x="373" y="0"/>
      <point x="373" y="114" type="curve"/>
      <point x="221" y="114"/>
      <point x="373" y="114"/>
      <point x="221" y="114" type="curve"/>
      <point x="221" y="0"/>
      <point x="221" y="114"/>
    </contour>
    <contour>
      <point x="221" y="722" type="curve"/>
      <point x="171" y="722"/>
      <point x="121" y="722"/>
      <point x="70" y="722" type="curve"/>
      <point x="70" y="608"/>
      <point x="70" y="722"/>
      <point x="70" y="608" type="curve"/>
      <point x="221" y="608"/>
      <point x="70" y="608"/>
      <point x="221" y="608" type="curve"/>
      <point x="221" y="722"/>
      <point x="221" y="608"/>
    </contour>
    <contour>
      <point x="221" y="114" type="curve"/>
      <point x="70" y="114"/>
      <point x="221" y="114"/>
      <point x="70" y="114" type="curve"/>
      <point x="70" y="0"/>
      <point x="70" y="114"/>
      <point x="70" y="0" type="curve"/>
      <point x="121" y="0"/>
      <point x="171" y="0"/>
      <point x="221" y="0" type="curve"/>
      <point x="221" y="114"/>
      <point x="221" y="0"/>
    </contour>
    <contour>
      <point x="520" y="665" type="curve"/>
      <point x="520" y="545"/>
      <point x="520" y="665"/>
      <point x="520" y="545" type="curve"/>
      <point x="637" y="545"/>
      <point x="520" y="545"/>
      <point x="637" y="545" type="curve"/>
      <point x="637" y="665"/>
      <point x="637" y="545"/>
      <point x="637" y="665" type="curve"/>
      <point x="520" y="665"/>
      <point x="637" y="665"/>
    </contour>
    <contour>
      <point x="226" y="315" type="curve"/>
      <point x="338" y="315"/>
      <point x="449" y="315"/>
      <point x="561" y="315" type="curve"/>
      <point x="561" y="430"/>
      <point x="561" y="315"/>
      <point x="561" y="430" type="curve"/>
      <point x="449" y="430"/>
      <point x="338" y="430"/>
      <point x="226" y="430" type="curve"/>
      <point x="226" y="315"/>
      <point x="226" y="430"/>
    </contour>
    <contour>
      <point x="298" y="0" type="curve"/>
      <point x="298" y="722" type="line"/>
      <point x="145" y="722"/>
      <point x="298" y="722"/>
      <point x="145" y="722" type="curve"/>
      <point x="145" y="481"/>
      <point x="145" y="241"/>
      <point x="145" y="0" type="curve"/>
      <point x="298" y="0"/>
      <point x="145" y="0"/>
    </contour>
    <contour>
      <point x="210" y="608" type="curve"/>
      <point x="352" y="608"/>
      <point x="495" y="608"/>
      <point x="637" y="608" type="curve"/>
      <point x="637" y="722"/>
      <point x="637" y="608"/>
      <point x="637" y="722" type="curve"/>
      <point x="495" y="722"/>
      <point x="352" y="722"/>
      <point x="210" y="722" type="curve"/>
      <point x="210" y="608"/>
      <point x="210" y="722"/>
    </contour>
  </outline>
</glyph>
<glyph name="H" format="1">
  <advance width="910"/>
  <unicode hex="0048"/>
  <outline>
    <contour>
      <point x="717" y="608" type="curve"/>
      <point x="884" y="608"/>
      <point x="701" y="608"/>
      <point x="868" y="608" type="curve"/>
      <point x="868" y="722"/>
      <point x="868" y="608"/>
      <point x="868" y="722" type="curve"/>
      <point x="812" y="722"/>
      <point x="772" y="722"/>
      <point x="717" y="722" type="curve"/>
      <point x="717" y="608"/>
      <point x="717" y="722"/>
    </contour>
    <contour>
      <point x="717" y="0" type="curve"/>
      <point x="772" y="0"/>
      <point x="812" y="0"/>
      <point x="868" y="0" type="curve"/>
      <point x="868" y="114"/>
      <point x="868" y="0"/>
      <point x="868" y="114" type="curve"/>
      <point x="701" y="114"/>
      <point x="884" y="114"/>
      <point x="717" y="114" type="curve"/>
      <point x="717" y="0"/>
      <point x="717" y="114"/>
    </contour>
    <contour>
      <point x="717" y="114" type="curve"/>
      <point x="550" y="114"/>
      <point x="733" y="114"/>
      <point x="565" y="114" type="curve"/>
      <point x="565" y="0"/>
      <point x="565" y="114"/>
      <point x="565" y="0" type="curve"/>
      <point x="621" y="0"/>
      <point x="661" y="0"/>
      <point x="717" y="0" type="curve"/>
      <point x="717" y="114"/>
      <point x="717" y="0"/>
    </contour>
    <contour>
      <point x="717" y="722" type="curve"/>
      <point x="661" y="722"/>
      <point x="621" y="722"/>
      <point x="565" y="722" type="curve"/>
      <point x="565" y="608"/>
      <point x="565" y="722"/>
      <point x="565" y="608" type="curve"/>
      <point x="733" y="608"/>
      <point x="550" y="608"/>
      <point x="717" y="608" type="curve"/>
      <point x="717" y="722"/>
      <point x="717" y="608"/>
    </contour>
    <contour>
      <point x="194" y="608" type="curve"/>
      <point x="362" y="608"/>
      <point x="178" y="608"/>
      <point x="346" y="608" type="curve"/>
      <point x="346" y="722"/>
      <point x="346" y="608"/>
      <point x="346" y="722" type="curve"/>
      <point x="290" y="722"/>
      <point x="250" y="722"/>
      <point x="194" y="722" type="curve"/>
      <point x="194" y="608"/>
      <point x="194" y="722"/>
    </contour>
    <contour>
      <point x="194" y="722" type="curve"/>
      <point x="139" y="722"/>
      <point x="99" y="722"/>
      <point x="43" y="722" type="curve"/>
      <point x="43" y="608"/>
      <point x="43" y="722"/>
      <point x="43" y="608" type="curve"/>
      <point x="210" y="608"/>
      <point x="27" y="608"/>
      <point x="194" y="608" type="curve"/>
      <point x="194" y="722"/>
      <point x="194" y="608"/>
    </contour>
    <contour>
      <point x="194" y="0" type="curve"/>
      <point x="250" y="0"/>
      <point x="178" y="0"/>
      <point x="346" y="0" type="curve"/>
      <point x="346" y="114"/>
      <point x="346" y="0"/>
      <point x="346" y="114" type="curve"/>
      <point x="178" y="114"/>
      <point x="362" y="114"/>
      <point x="194" y="114" type="curve"/>
      <point x="194" y="0"/>
      <point x="194" y="114"/>
    </contour>
    <contour>
      <point x="194" y="114" type="curve"/>
      <point x="27" y="114"/>
      <point x="210" y="114"/>
      <point x="43" y="114" type="curve"/>
      <point x="43" y="0"/>
      <point x="43" y="114"/>
      <point x="43" y="0" type="curve"/>
      <point x="99" y="0"/>
      <point x="139" y="0"/>
      <point x="194" y="0" type="curve"/>
      <point x="194" y="114"/>
      <point x="194" y="0"/>
    </contour>
    <contour>
      <point x="271" y="0" type="curve"/>
      <point x="271" y="722" type="line"/>
      <point x="118" y="722"/>
      <point x="271" y="722"/>
      <point x="118" y="722" type="curve"/>
      <point x="118" y="481"/>
      <point x="118" y="241"/>
      <point x="118" y="0" type="curve"/>
      <point x="271" y="0"/>
      <point x="118" y="0"/>
    </contour>
    <contour>
      <point x="714" y="420" type="curve"/>
      <point x="540" y="420"/>
      <point x="367" y="420"/>
      <point x="194" y="420" type="curve"/>
      <point x="194" y="305"/>
      <point x="194" y="420"/>
      <point x="194" y="305" type="curve"/>
      <point x="367" y="305"/>
      <point x="540" y="305"/>
      <point x="714" y="305" type="curve"/>
      <point x="714" y="420"/>
      <point x="714" y="305"/>
    </contour>
    <contour>
      <point x="792" y="49" type="curve"/>
      <point x="792" y="257"/>
      <point x="792" y="465"/>
      <point x="792" y="673" type="curve"/>
      <point x="640" y="673"/>
      <point x="792" y="673"/>
      <point x="640" y="673" type="curve"/>
      <point x="640" y="49" type="line"/>
      <point x="792" y="49"/>
      <point x="640" y="49"/>
    </contour>
  </outline>
</glyph>
<glyph name="W" format="1">
  <advance width="1049"/>
  <unicode hex="0057"/>
  <outline>
    <contour>
      <point x="159" y="608" type="curve"/>
      <point x="291" y="608"/>
      <point x="159" y="608"/>
      <point x="291" y="608" type="curve"/>
      <point x="291" y="722"/>
      <point x="291" y="608"/>
      <point x="291" y="722" type="curve"/>
      <point x="247" y="722"/>
      <point x="203" y="722"/>
      <point x="159" y="722" type="curve"/>
      <point x="159" y="608"/>
      <point x="159" y="722"/>
    </contour>
    <contour>
      <point x="155" y="722" type="curve"/>
      <point x="107" y="722"/>
      <point x="60" y="722"/>
      <point x="13" y="722" type="curve"/>
      <point x="13" y="608"/>
      <point x="13" y="722"/>
      <point x="13" y="608" type="curve"/>
      <point x="155" y="608"/>
      <point x="13" y="608"/>
      <point x="155" y="608" type="curve"/>
      <point x="155" y="722"/>
      <point x="155" y="608"/>
    </contour>
    <contour>
      <point x="897" y="722" type="curve"/>
      <point x="853" y="722"/>
      <point x="809" y="722"/>
      <point x="766" y="722" type="curve"/>
      <point x="766" y="608"/>
      <point x="766" y="722"/>
      <point x="766" y="608" type="curve"/>
      <point x="897" y="608"/>
      <point x="766" y="608"/>
      <point x="897" y="608" type="curve"/>
      <point x="897" y="722"/>
      <point x="897" y="608"/>
    </contour>
    <contour>
      <point x="899" y="608" type="curve"/>
      <point x="1041" y="608"/>
      <point x="899" y="608"/>
      <point x="1041" y="608" type="curve"/>
      <point x="1041" y="722"/>
      <point x="1041" y="608"/>
      <point x="1041" y="722" type="curve"/>
      <point x="995" y="722"/>
      <point x="947" y="722"/>
      <point x="899" y="722" type="curve"/>
      <point x="899" y="608"/>
      <point x="899" y="722"/>
    </contour>
    <contour>
      <point x="391" y="0" type="curve"/>
      <point x="461" y="241"/>
      <point x="528" y="481"/>
      <point x="597" y="722" type="curve"/>
      <point x="456" y="722"/>
      <point x="600" y="722"/>
      <point x="459" y="722" type="curve"/>
      <point x="395" y="481"/>
      <point x="332" y="242"/>
      <point x="267" y="0" type="curve"/>
      <point x="404" y="0"/>
      <point x="255" y="0"/>
    </contour>
    <contour>
      <point x="471" y="722" type="curve"/>
      <point x="534" y="481"/>
      <point x="592" y="241"/>
      <point x="654" y="0" type="curve"/>
      <point x="791" y="0"/>
      <point x="640" y="0"/>
      <point x="777" y="0" type="curve"/>
      <point x="720" y="243"/>
      <point x="666" y="480"/>
      <point x="607" y="722" type="curve"/>
      <point x="467" y="722"/>
      <point x="612" y="722"/>
    </contour>
    <contour>
      <point x="59" y="722" type="curve"/>
      <point x="122" y="481"/>
      <point x="186" y="241"/>
      <point x="248" y="0" type="curve"/>
      <point x="385" y="0"/>
      <point x="243" y="0"/>
      <point x="380" y="0" type="curve"/>
      <point x="319" y="241"/>
      <point x="263" y="481"/>
      <point x="202" y="722" type="curve"/>
      <point x="59" y="722"/>
      <point x="202" y="722"/>
    </contour>
    <contour>
      <point x="852" y="722" type="curve"/>
      <point x="790" y="481"/>
      <point x="730" y="241"/>
      <point x="669" y="0" type="curve"/>
      <point x="806" y="0"/>
      <point x="661" y="0"/>
      <point x="798" y="0" type="curve"/>
      <point x="863" y="241"/>
      <point x="929" y="481"/>
      <point x="995" y="722" type="curve"/>
      <point x="852" y="722"/>
      <point x="995" y="722"/>
    </contour>
  </outline>
</glyph>
<glyph name="backslash" format="1">
  <advance width="622"/>
  <unicode hex="005C"/>
  <outline>
    <contour>
      <point x="595" y="-68" type="curve"/>
      <point x="459" y="236"/>
      <point x="322" y="540"/>
      <point x="186" y="844" type="curve"/>
      <point x="27" y="844"/>
      <point x="186" y="844"/>
      <point x="27" y="844" type="curve"/>
      <point x="163" y="540"/>
      <point x="300" y="236"/>
      <point x="436" y="-68" type="curve"/>
      <point x="595" y="-68"/>
      <point x="436" y="-68"/>
    </contour>
  </outline>
</glyph>
<glyph name="bracketright" format="1">
  <advance width="354"/>
  <unicode hex="005D"/>
  <outline>
    <contour>
      <point x="50" y="644" type="curve"/>
      <point x="103" y="644"/>
      <point x="156" y="644"/>
      <point x="209" y="644" type="curve"/>
      <point x="195" y="655"/>
      <point x="176" y="659"/>
      <point x="162" y="670" type="curve"/>
      <point x="148" y="682"/>
      <point x="139" y="699"/>
      <point x="126" y="712" type="curve"/>
      <point x="126" y="455"/>
      <point x="125" y="200"/>
      <point x="126" y="-57" type="curve"/>
      <point x="140" y="-44"/>
      <point x="152" y="-29"/>
      <point x="166" y="-17" type="curve"/>
      <point x="179" y="-5"/>
      <point x="197" y="1"/>
      <point x="210" y="13" type="curve"/>
      <point x="157" y="13"/>
      <point x="103" y="13"/>
      <point x="50" y="13" type="curve"/>
      <point x="50" y="-112"/>
      <point x="50" y="13"/>
      <point x="50" y="-112" type="curve"/>
      <point x="103" y="-112"/>
      <point x="157" y="-112"/>
      <point x="210" y="-112" type="curve"/>
      <point x="278" y="-112"/>
      <point x="210" y="-112"/>
      <point x="278" y="-112" type="curve"/>
      <point x="278" y="-57"/>
      <point x="278" y="-112"/>
      <point x="278" y="-57" type="curve"/>
      <point x="278" y="200"/>
      <point x="278" y="455"/>
      <point x="278" y="712" type="curve"/>
      <point x="278" y="769"/>
      <point x="278" y="712"/>
      <point x="278" y="769" type="curve"/>
      <point x="209" y="769"/>
      <point x="278" y="769"/>
      <point x="209" y="769" type="curve"/>
      <point x="156" y="769"/>
      <point x="103" y="769"/>
      <point x="50" y="769" type="curve"/>
      <point x="50" y="644"/>
      <point x="50" y="769"/>
    </contour>
  </outline>
</glyph>
<glyph name="f" format="1">
  <advance width="519"/>
  <unicode hex="0066"/>
  <outline>
    <contour>
      <point x="376" y="766" type="curve"/>
      <point x="376" y="635"/>
      <point x="376" y="766"/>
      <point x="376" y="635" type="curve"/>
      <point x="493" y="635"/>
      <point x="376" y="635"/>
      <point x="493" y="635" type="curve"/>
      <point x="493" y="766"/>
      <point x="493" y="635"/>
      <point x="493" y="766" type="curve"/>
      <point x="376" y="766"/>
      <point x="493" y="766"/>
    </contour>
    <contour>
      <point x="208" y="-1" type="curve"/>
      <point x="264" y="-1"/>
      <point x="303" y="0"/>
      <point x="358" y="0" type="curve"/>
      <point x="358" y="114"/>
      <point x="358" y="0"/>
      <point x="358" y="114" type="curve"/>
      <point x="192" y="113"/>
      <point x="374" y="114"/>
      <point x="208" y="113" type="curve"/>
      <point x="208" y="-1"/>
      <point x="208" y="113"/>
    </contour>
    <contour>
      <point x="208" y="113" type="curve"/>
      <point x="41" y="114"/>
      <point x="224" y="113"/>
      <point x="57" y="114" type="curve"/>
      <point x="57" y="0"/>
      <point x="57" y="114"/>
      <point x="57" y="0" type="curve"/>
      <point x="113" y="0"/>
      <point x="153" y="-1"/>
      <point x="208" y="-1" type="curve"/>
      <point x="208" y="113"/>
      <point x="208" y="-1"/>
    </contour>
    <contour>
      <point x="26" y="419" type="curve"/>
      <point x="449" y="419" type="line"/>
      <point x="449" y="533"/>
      <point x="449" y="419"/>
      <point x="449" y="533" type="curve"/>
      <point x="26" y="533" type="line"/>
      <point x="26" y="419"/>
      <point x="26" y="533"/>
    </contour>
    <contour>
      <point x="284" y="0" type="curve"/>
      <point x="284" y="603" type="line"/>
      <point x="284" y="655"/>
      <point x="304" y="693"/>
      <point x="355" y="693" type="curve"/>
      <point x="382" y="693"/>
      <point x="407" y="686"/>
      <point x="431" y="675" type="curve"/>
      <point x="493" y="766"/>
      <point x="431" y="675"/>
      <point x="493" y="766" type="curve"/>
      <point x="450" y="787"/>
      <point x="403" y="802"/>
      <point x="355" y="802" type="curve"/>
      <point x="222" y="802"/>
      <point x="130" y="730"/>
      <point x="132" y="603" type="curve"/>
      <point x="132" y="0" type="line"/>
      <point x="284" y="0"/>
      <point x="132" y="0"/>
    </contour>
  </outline>
</glyph>
<glyph name="h" format="1">
  <advance width="702"/>
  <unicode hex="0068"/>
  <outline>
    <contour>
      <point x="546" y="-1" type="curve"/>
      <point x="602" y="-1"/>
      <point x="641" y="0"/>
      <point x="697" y="0" type="curve"/>
      <point x="697" y="114"/>
      <point x="697" y="0"/>
      <point x="697" y="114" type="curve"/>
      <point x="530" y="113"/>
      <point x="713" y="114"/>
      <point x="546" y="113" type="curve"/>
      <point x="546" y="-1"/>
      <point x="546" y="113"/>
    </contour>
    <contour>
      <point x="160" y="-1" type="curve"/>
      <point x="210" y="-1"/>
      <point x="144" y="-1"/>
      <point x="295" y="0" type="curve"/>
      <point x="295" y="114"/>
      <point x="295" y="0"/>
      <point x="295" y="114" type="curve"/>
      <point x="144" y="113"/>
      <point x="311" y="114"/>
      <point x="160" y="113" type="curve"/>
      <point x="160" y="-1"/>
      <point x="160" y="113"/>
    </contour>
    <contour>
      <point x="160" y="799" type="curve"/>
      <point x="104" y="799"/>
      <point x="64" y="800"/>
      <point x="9" y="800" type="curve"/>
      <point x="8" y="686"/>
      <point x="9" y="800"/>
      <point x="8" y="686" type="curve"/>
      <point x="176" y="686"/>
      <point x="-8" y="686"/>
      <point x="160" y="686" type="curve"/>
      <point x="160" y="799"/>
      <point x="160" y="686"/>
    </contour>
    <contour>
      <point x="160" y="113" type="curve"/>
      <point x="-7" y="114"/>
      <point x="176" y="113"/>
      <point x="9" y="114" type="curve"/>
      <point x="8" y="0"/>
      <point x="9" y="114"/>
      <point x="8" y="0" type="curve"/>
      <point x="64" y="0"/>
      <point x="104" y="-1"/>
      <point x="160" y="-1" type="curve"/>
      <point x="160" y="113"/>
      <point x="160" y="-1"/>
    </contour>
    <contour>
      <point x="201" y="282" type="curve"/>
      <point x="231" y="364"/>
      <point x="292" y="422"/>
      <point x="367" y="422" type="curve"/>
      <point x="439" y="422"/>
      <point x="471" y="371"/>
      <point x="471" y="299" type="curve"/>
      <point x="471" y="197"/>
      <point x="471" y="102"/>
      <point x="471" y="0" type="curve"/>
      <point x="623" y="0"/>
      <point x="471" y="0"/>
      <point x="623" y="0" type="curve"/>
      <point x="623" y="106"/>
      <point x="623" y="212"/>
      <point x="623" y="318" type="curve"/>
      <point x="623" y="460"/>
      <point x="548" y="536"/>
      <point x="400" y="536" type="curve"/>
      <point x="285" y="536"/>
      <point x="187" y="459"/>
      <point x="142" y="337" type="curve"/>
      <point x="203" y="280"/>
      <point x="140" y="340"/>
    </contour>
    <contour>
      <point x="236" y="0" type="curve"/>
      <point x="236" y="267"/>
      <point x="236" y="533"/>
      <point x="236" y="800" type="curve"/>
      <point x="83" y="800"/>
      <point x="236" y="800"/>
      <point x="83" y="800" type="curve"/>
      <point x="83" y="533"/>
      <point x="83" y="267"/>
      <point x="83" y="0" type="curve"/>
      <point x="236" y="0"/>
      <point x="83" y="0"/>
    </contour>
  </outline>
</glyph>
<glyph name="j" format="1">
  <advance width="330"/>
  <unicode hex="006A"/>
  <outline>
    <contour>
      <point x="172" y="533" type="curve"/>
      <point x="117" y="533"/>
      <point x="61" y="533"/>
      <point x="5" y="533" type="curve"/>
      <point x="5" y="419"/>
      <point x="5" y="533"/>
      <point x="5" y="419" type="curve"/>
      <point x="172" y="419"/>
      <point x="5" y="419"/>
      <point x="172" y="419" type="curve"/>
      <point x="172" y="533"/>
      <point x="172" y="419"/>
    </contour>
    <contour>
      <point x="-19" y="-303" type="curve"/>
      <point x="-9" y="-304"/>
      <point x="4" y="-305"/>
      <point x="17" y="-305" type="curve"/>
      <point x="148" y="-305"/>
      <point x="250" y="-242"/>
      <point x="250" y="-119" type="curve"/>
      <point x="250" y="99"/>
      <point x="250" y="316"/>
      <point x="250" y="534" type="curve"/>
      <point x="98" y="534"/>
      <point x="250" y="534"/>
      <point x="98" y="534" type="curve"/>
      <point x="98" y="316"/>
      <point x="98" y="99"/>
      <point x="98" y="-119" type="curve"/>
      <point x="98" y="-166"/>
      <point x="71" y="-196"/>
      <point x="24" y="-196" type="curve"/>
      <point x="16" y="-196"/>
      <point x="8" y="-196"/>
      <point x="2" y="-195" type="curve"/>
      <point x="-19" y="-303"/>
      <point x="2" y="-195"/>
    </contour>
    <contour>
      <point x="259" y="678" type="curve"/>
      <point x="259" y="729"/>
      <point x="222" y="753"/>
      <point x="172" y="753" type="curve"/>
      <point x="123" y="753"/>
      <point x="89" y="726"/>
      <point x="89" y="678" type="curve"/>
      <point x="259" y="678"/>
      <point x="89" y="678"/>
      <point x="259" y="678" type="curve"/>
      <point x="259" y="627"/>
      <point x="222" y="605"/>
      <point x="172" y="605" type="curve"/>
      <point x="122" y="605"/>
      <point x="89" y="630"/>
      <point x="89" y="678" type="curve"/>
      <point x="259" y="678"/>
      <point x="89" y="678"/>
    </contour>
  </outline>
</glyph>
<glyph name="m" format="1">
  <advance width="1077"/>
  <unicode hex="006D"/>
  <outline>
    <contour>
      <point x="553" y="0" type="curve"/>
      <point x="683" y="0"/>
      <point x="553" y="0"/>
      <point x="683" y="0" type="curve"/>
      <point x="683" y="114"/>
      <point x="683" y="0"/>
      <point x="683" y="114" type="curve"/>
      <point x="553" y="114"/>
      <point x="683" y="114"/>
      <point x="553" y="114" type="curve"/>
      <point x="553" y="0"/>
      <point x="553" y="114"/>
    </contour>
    <contour>
      <point x="900" y="0" type="curve"/>
      <point x="945" y="0"/>
      <point x="990" y="0"/>
      <point x="1035" y="0" type="curve"/>
      <point x="1035" y="114"/>
      <point x="1035" y="0"/>
      <point x="1035" y="114" type="curve"/>
      <point x="900" y="114"/>
      <point x="1035" y="114"/>
      <point x="900" y="114" type="curve"/>
      <point x="900" y="0"/>
      <point x="900" y="114"/>
    </contour>
    <contour>
      <point x="207" y="114" type="curve"/>
      <point x="56" y="114"/>
      <point x="207" y="114"/>
      <point x="56" y="114" type="curve"/>
      <point x="55" y="0"/>
      <point x="56" y="114"/>
      <point x="55" y="0" type="curve"/>
      <point x="106" y="0"/>
      <point x="156" y="0"/>
      <point x="207" y="0" type="curve"/>
      <point x="207" y="114"/>
      <point x="207" y="0"/>
    </contour>
    <contour>
      <point x="207" y="0" type="curve"/>
      <point x="250" y="0"/>
      <point x="207" y="0"/>
      <point x="338" y="0" type="curve"/>
      <point x="338" y="114"/>
      <point x="338" y="0"/>
      <point x="338" y="114" type="curve"/>
      <point x="207" y="114"/>
      <point x="338" y="114"/>
      <point x="207" y="114" type="curve"/>
      <point x="207" y="0"/>
      <point x="207" y="114"/>
    </contour>
    <contour>
      <point x="207" y="533" type="curve"/>
      <point x="156" y="533"/>
      <point x="106" y="533"/>
      <point x="56" y="533" type="curve"/>
      <point x="55" y="419"/>
      <point x="56" y="533"/>
      <point x="55" y="419" type="curve"/>
      <point x="207" y="419"/>
      <point x="55" y="419"/>
      <point x="207" y="419" type="curve"/>
      <point x="207" y="533"/>
      <point x="207" y="419"/>
    </contour>
    <contour>
      <point x="594" y="263" type="curve"/>
      <point x="629" y="348"/>
      <point x="664" y="419"/>
      <point x="737" y="419" type="curve"/>
      <point x="806" y="419"/>
      <point x="822" y="379"/>
      <point x="822" y="306" type="curve"/>
      <point x="822" y="204"/>
      <point x="822" y="102"/>
      <point x="822" y="0" type="curve"/>
      <point x="974" y="0"/>
      <point x="822" y="0"/>
      <point x="974" y="0" type="curve"/>
      <point x="974" y="106"/>
      <point x="974" y="212"/>
      <point x="974" y="318" type="curve"/>
      <point x="974" y="464"/>
      <point x="925" y="538"/>
      <point x="779" y="538" type="curve"/>
      <point x="662" y="538"/>
      <point x="589" y="454"/>
      <point x="533" y="325" type="curve"/>
      <point x="596" y="264"/>
      <point x="531" y="323"/>
    </contour>
    <contour>
      <point x="249" y="266" type="curve"/>
      <point x="282" y="350"/>
      <point x="318" y="419"/>
      <point x="391" y="419" type="curve"/>
      <point x="459" y="419"/>
      <point x="476" y="379"/>
      <point x="476" y="306" type="curve"/>
      <point x="476" y="204"/>
      <point x="476" y="102"/>
      <point x="476" y="0" type="curve"/>
      <point x="629" y="0"/>
      <point x="476" y="0"/>
      <point x="629" y="0" type="curve"/>
      <point x="629" y="106"/>
      <point x="629" y="212"/>
      <point x="629" y="318" type="curve"/>
      <point x="629" y="464"/>
      <point x="580" y="538"/>
      <point x="434" y="538" type="curve"/>
      <point x="315" y="538"/>
      <point x="254" y="459"/>
      <point x="187" y="328" type="curve"/>
      <point x="251" y="268"/>
      <point x="185" y="327"/>
    </contour>
    <contour>
      <point x="283" y="0" type="curve"/>
      <point x="283" y="178"/>
      <point x="283" y="355"/>
      <point x="283" y="533" type="curve"/>
      <point x="130" y="533"/>
      <point x="283" y="533"/>
      <point x="130" y="533" type="curve"/>
      <point x="130" y="355"/>
      <point x="130" y="178"/>
      <point x="130" y="0" type="curve"/>
      <point x="283" y="0"/>
      <point x="130" y="0"/>
    </contour>
  </outline>
</glyph>
<glyph name="r" format="1">
  <advance width="484"/>
  <unicode hex="0072"/>
  <outline>
    <contour>
      <point x="254" y="610" type="move" name="top"/>
    </contour>
    <contour>
      <point x="239" y="19" type="move" name="bottom"/>
    </contour>
    <contour>
      <point x="206" y="0" type="curve"/>
      <point x="259" y="0"/>
      <point x="298" y="0"/>
      <point x="351" y="0" type="curve"/>
      <point x="351" y="76"/>
      <point x="351" y="38"/>
      <point x="351" y="114" type="curve"/>
      <point x="258" y="114"/>
      <point x="300" y="114"/>
      <point x="206" y="114" type="curve"/>
      <point x="206" y="38"/>
      <point x="206" y="76"/>
    </contour>
    <contour>
      <point x="206" y="114" type="curve"/>
      <point x="108" y="114"/>
      <point x="153" y="114"/>
      <point x="55" y="114" type="curve"/>
      <point x="54" y="38"/>
      <point x="55" y="76"/>
      <point x="54" y="0" type="curve"/>
      <point x="109" y="0"/>
      <point x="151" y="0"/>
      <point x="206" y="0" type="curve"/>
      <point x="206" y="76"/>
      <point x="206" y="38"/>
    </contour>
    <contour>
      <point x="205" y="533" type="curve"/>
      <point x="150" y="533"/>
      <point x="108" y="533"/>
      <point x="54" y="533" type="curve"/>
      <point x="54" y="457"/>
      <point x="53" y="495"/>
      <point x="53" y="419" type="curve"/>
      <point x="151" y="419"/>
      <point x="107" y="419"/>
      <point x="205" y="419" type="curve"/>
      <point x="205" y="495"/>
      <point x="205" y="457"/>
    </contour>
    <contour>
      <point x="282" y="0" type="curve"/>
      <point x="282" y="192"/>
      <point x="282" y="341"/>
      <point x="282" y="533" type="curve"/>
      <point x="182" y="533"/>
      <point x="230" y="533"/>
      <point x="129" y="533" type="curve"/>
      <point x="129" y="341"/>
      <point x="129" y="192"/>
      <point x="129" y="0" type="curve"/>
      <point x="230" y="0"/>
      <point x="182" y="0"/>
    </contour>
    <contour>
      <point x="245" y="269" type="curve"/>
      <point x="296" y="383"/>
      <point x="364" y="409"/>
      <point x="465" y="409" type="curve"/>
      <point x="465" y="492"/>
      <point x="465" y="455"/>
      <point x="465" y="538" type="curve"/>
      <point x="337" y="538"/>
      <point x="258" y="462"/>
      <point x="195" y="340" type="curve"/>
      <point x="229" y="295"/>
      <point x="211" y="314"/>
    </contour>
  </outline>
</glyph>
<glyph name="asciitilde" format="1">
  <advance width="739"/>
  <unicode hex="007E"/>
  <outline>
    <contour>
      <point x="561" y="381" type="curve"/>
      <point x="545" y="340"/>
      <point x="530" y="308"/>
      <point x="496" y="308" type="curve"/>
      <point x="461" y="308"/>
      <point x="441" y="315"/>
      <point x="411" y="334" type="curve"/>
      <point x="356" y="375"/>
      <point x="319" y="395"/>
      <point x="250" y="395" type="curve"/>
      <point x="147" y="395"/>
      <point x="93" y="345"/>
      <point x="61" y="247" type="curve"/>
      <point x="104" y="228"/>
      <point x="130" y="218"/>
      <point x="174" y="200" type="curve"/>
      <point x="188" y="245"/>
      <point x="206" y="277"/>
      <point x="244" y="277" type="curve"/>
      <point x="276" y="277"/>
      <point x="293" y="270"/>
      <point x="319" y="253" type="curve"/>
      <point x="378" y="211"/>
      <point x="417" y="192"/>
      <point x="489" y="191" type="curve"/>
      <point x="590" y="191"/>
      <point x="640" y="240"/>
      <point x="678" y="334" type="curve"/>
      <point x="633" y="353"/>
      <point x="607" y="363"/>
    </contour>
  </outline>
</glyph>
<glyph name="exclamdown" format="1">
  <advance width="290"/>
  <unicode hex="00A1"/>
  <outline>
    <contour>
      <point x="81" y="302" type="line"/>
      <point x="64" y="-191" type="line"/>
      <point x="226" y="-191" type="line"/>
      <point x="212" y="302" type="line"/>
    </contour>
    <contour>
      <point x="62" y="467" type="curve"/>
      <point x="61" y="417"/>
      <point x="98" y="393"/>
      <point x="147" y="393" type="curve"/>
      <point x="197" y="393"/>
      <point x="231" y="419"/>
      <point x="231" y="467" type="curve"/>
      <point x="62" y="467"/>
      <point x="231" y="467"/>
      <point x="62" y="467" type="curve"/>
      <point x="62" y="519"/>
      <point x="98" y="541"/>
      <point x="148" y="540" type="curve"/>
      <point x="198" y="540"/>
      <point x="231" y="516"/>
      <point x="231" y="467" type="curve"/>
      <point x="62" y="467"/>
      <point x="231" y="467"/>
    </contour>
  </outline>
</glyph>
<glyph name="currency" format="1">
  <advance width="720"/>
  <unicode hex="00A4"/>
  <outline>
    <contour>
      <point x="280" y="317" type="curve"/>
      <point x="280" y="365"/>
      <point x="308" y="398"/>
      <point x="357" y="398" type="curve"/>
      <point x="410" y="398"/>
      <point x="440" y="368"/>
      <point x="440" y="316" type="curve"/>
      <point x="440" y="267"/>
      <point x="414" y="231"/>
      <point x="366" y="231" type="curve"/>
      <point x="310" y="231"/>
      <point x="280" y="263"/>
      <point x="280" y="317" type="curve"/>
      <point x="128" y="317"/>
      <point x="284" y="317"/>
      <point x="132" y="317" type="curve"/>
      <point x="132" y="186"/>
      <point x="226" y="117"/>
      <point x="362" y="117" type="curve"/>
      <point x="497" y="117"/>
      <point x="590" y="190"/>
      <point x="590" y="320" type="curve"/>
      <point x="590" y="444"/>
      <point x="500" y="512"/>
      <point x="371" y="512" type="curve"/>
      <point x="232" y="512"/>
      <point x="132" y="447"/>
      <point x="132" y="317" type="curve"/>
      <point x="284" y="317"/>
      <point x="128" y="317"/>
    </contour>
    <contour>
      <point x="496" y="311" type="line"/>
      <point x="664" y="465" type="line"/>
      <point x="549" y="580" type="line"/>
      <point x="395" y="412" type="line"/>
    </contour>
    <contour>
      <point x="398" y="224" type="line"/>
      <point x="552" y="56" type="line"/>
      <point x="667" y="170" type="line"/>
      <point x="499" y="324" type="line"/>
    </contour>
    <contour>
      <point x="222" y="326" type="line"/>
      <point x="54" y="172" type="line"/>
      <point x="169" y="57" type="line"/>
      <point x="323" y="225" type="line"/>
    </contour>
    <contour>
      <point x="327" y="413" type="line"/>
      <point x="173" y="581" type="line"/>
      <point x="58" y="466" type="line"/>
      <point x="226" y="313" type="line"/>
    </contour>
  </outline>
</glyph>
<glyph name="section" format="1">
  <advance width="598"/>
  <unicode hex="00A7"/>
  <outline>
    <contour>
      <point x="481" y="701" type="curve"/>
      <point x="418" y="732"/>
      <point x="372" y="748"/>
      <point x="304" y="748" type="curve"/>
      <point x="180" y="748"/>
      <point x="89" y="700"/>
      <point x="89" y="592" type="curve"/>
      <point x="89" y="498"/>
      <point x="155" y="452"/>
      <point x="249" y="423" type="curve"/>
      <point x="315" y="404"/>
      <point x="394" y="403"/>
      <point x="394" y="356" type="curve"/>
      <point x="394" y="307"/>
      <point x="348" y="293"/>
      <point x="291" y="284" type="curve"/>
      <point x="381" y="192"/>
      <point x="291" y="284"/>
      <point x="381" y="192" type="curve"/>
      <point x="480" y="213"/>
      <point x="546" y="264"/>
      <point x="546" y="361" type="curve"/>
      <point x="545" y="474"/>
      <point x="442" y="500"/>
      <point x="325" y="532" type="curve"/>
      <point x="282" y="544"/>
      <point x="237" y="553"/>
      <point x="237" y="592" type="curve"/>
      <point x="237" y="621"/>
      <point x="262" y="634"/>
      <point x="297" y="634" type="curve"/>
      <point x="343" y="634"/>
      <point x="371" y="626"/>
      <point x="417" y="605" type="curve"/>
      <point x="481" y="701"/>
      <point x="417" y="605"/>
    </contour>
    <contour>
      <point x="216" y="529" type="curve"/>
      <point x="122" y="503"/>
      <point x="53" y="460"/>
      <point x="53" y="366" type="curve"/>
      <point x="53" y="260"/>
      <point x="140" y="223"/>
      <point x="250" y="193" type="curve"/>
      <point x="303" y="177"/>
      <point x="366" y="172"/>
      <point x="366" y="131" type="curve"/>
      <point x="366" y="100"/>
      <point x="337" y="88"/>
      <point x="301" y="88" type="curve"/>
      <point x="251" y="88"/>
      <point x="219" y="100"/>
      <point x="166" y="125" type="curve"/>
      <point x="92" y="38"/>
      <point x="166" y="125"/>
      <point x="92" y="38" type="curve"/>
      <point x="160" y="-9"/>
      <point x="216" y="-26"/>
      <point x="296" y="-26" type="curve"/>
      <point x="420" y="-26"/>
      <point x="516" y="20"/>
      <point x="516" y="134" type="curve"/>
      <point x="515" y="230"/>
      <point x="444" y="275"/>
      <point x="347" y="301" type="curve"/>
      <point x="281" y="320"/>
      <point x="205" y="321"/>
      <point x="205" y="373" type="curve"/>
      <point x="205" y="416"/>
      <point x="244" y="430"/>
      <point x="292" y="443" type="curve"/>
      <point x="216" y="529"/>
      <point x="292" y="443"/>
    </contour>
    <contour>
      <point x="209" y="38" type="curve"/>
      <point x="209" y="158"/>
      <point x="209" y="41"/>
      <point x="209" y="161" type="curve"/>
      <point x="92" y="161"/>
      <point x="209" y="161"/>
      <point x="92" y="161" type="curve"/>
      <point x="92" y="41"/>
      <point x="92" y="158"/>
      <point x="92" y="38" type="curve"/>
      <point x="209" y="38"/>
      <point x="92" y="38"/>
    </contour>
    <contour>
      <point x="481" y="578" type="curve"/>
      <point x="481" y="698"/>
      <point x="481" y="581"/>
      <point x="481" y="701" type="curve"/>
      <point x="363" y="701"/>
      <point x="481" y="701"/>
      <point x="363" y="701" type="curve"/>
      <point x="363" y="581"/>
      <point x="363" y="698"/>
      <point x="363" y="578" type="curve"/>
      <point x="481" y="578"/>
      <point x="363" y="578"/>
    </contour>
  </outline>
</glyph>
<glyph name="ordfeminine" format="1">
  <advance width="486"/>
  <unicode hex="00AA"/>
  <outline>
    <contour>
      <point x="70" y="729" type="curve"/>
      <point x="70" y="653"/>
      <point x="70" y="727"/>
      <point x="70" y="650" type="curve"/>
      <point x="149" y="650"/>
      <point x="70" y="650"/>
      <point x="149" y="650" type="curve"/>
      <point x="149" y="727"/>
      <point x="149" y="653"/>
      <point x="149" y="729" type="curve"/>
      <point x="70" y="729"/>
      <point x="149" y="729"/>
    </contour>
    <contour>
      <point x="391" y="425" type="curve"/>
      <point x="391" y="506"/>
      <point x="391" y="585"/>
      <point x="391" y="666" type="curve"/>
      <point x="391" y="754"/>
      <point x="320" y="780"/>
      <point x="228" y="780" type="curve"/>
      <point x="160" y="780"/>
      <point x="110" y="759"/>
      <point x="70" y="729" type="curve"/>
      <point x="108" y="666"/>
      <point x="74" y="727"/>
      <point x="112" y="664" type="curve"/>
      <point x="134" y="683"/>
      <point x="168" y="703"/>
      <point x="214" y="703" type="curve"/>
      <point x="257" y="703"/>
      <point x="291" y="691"/>
      <point x="291" y="651" type="curve"/>
      <point x="291" y="575"/>
      <point x="291" y="500"/>
      <point x="291" y="425" type="curve"/>
      <point x="391" y="425"/>
      <point x="291" y="425"/>
    </contour>
    <contour>
      <point x="343" y="425" type="curve"/>
      <point x="373" y="425"/>
      <point x="404" y="425"/>
      <point x="434" y="425" type="curve"/>
      <point x="434" y="500"/>
      <point x="434" y="425"/>
      <point x="434" y="500" type="curve"/>
      <point x="343" y="500"/>
      <point x="434" y="500"/>
      <point x="343" y="500" type="curve"/>
      <point x="343" y="425"/>
      <point x="343" y="500"/>
    </contour>
    <contour>
      <point x="339" y="655" type="curve"/>
      <point x="285" y="650"/>
      <point x="253" y="648"/>
      <point x="199" y="642" type="curve"/>
      <point x="112" y="632"/>
      <point x="48" y="612"/>
      <point x="48" y="534" type="curve"/>
      <point x="48" y="456"/>
      <point x="102" y="422"/>
      <point x="186" y="422" type="curve"/>
      <point x="269" y="422"/>
      <point x="305" y="467"/>
      <point x="364" y="526" type="curve"/>
      <point x="316" y="566"/>
      <point x="364" y="526"/>
      <point x="315" y="565" type="curve"/>
      <point x="281" y="526"/>
      <point x="254" y="496"/>
      <point x="205" y="496" type="curve"/>
      <point x="169" y="496"/>
      <point x="146" y="506"/>
      <point x="146" y="536" type="curve"/>
      <point x="146" y="562"/>
      <point x="171" y="572"/>
      <point x="198" y="575" type="curve"/>
      <point x="255" y="581"/>
      <point x="285" y="585"/>
      <point x="343" y="592" type="curve"/>
      <point x="339" y="655"/>
      <point x="343" y="592"/>
    </contour>
  </outline>
</glyph>
<glyph name="logicalnot" format="1">
  <advance width="670"/>
  <unicode hex="00AC"/>
  <outline>
    <contour>
      <point x="76" y="252" type="curve"/>
      <point x="597" y="252" type="line"/>
      <point x="597" y="377"/>
      <point x="597" y="252"/>
      <point x="597" y="377" type="curve"/>
      <point x="76" y="377" type="line"/>
      <point x="76" y="252"/>
      <point x="76" y="377"/>
    </contour>
    <contour>
      <point x="597" y="139" type="curve"/>
      <point x="597" y="377" type="line"/>
      <point x="445" y="377"/>
      <point x="603" y="377"/>
      <point x="451" y="377" type="curve"/>
      <point x="451" y="139" type="line"/>
      <point x="603" y="139"/>
      <point x="445" y="139"/>
    </contour>
  </outline>
</glyph>
<glyph name="registered" format="1">
  <advance width="876"/>
  <unicode hex="00AE"/>
  <outline>
    <contour>
      <point x="165" y="324" type="curve"/>
      <point x="165" y="482"/>
      <point x="277" y="562"/>
      <point x="441" y="562" type="curve"/>
      <point x="604" y="562"/>
      <point x="711" y="478"/>
      <point x="711" y="321" type="curve"/>
      <point x="711" y="168"/>
      <point x="608" y="86"/>
      <point x="450" y="86" type="curve"/>
      <point x="282" y="86"/>
      <point x="165" y="164"/>
      <point x="165" y="324" type="curve"/>
      <point x="125" y="324"/>
      <point x="97" y="324"/>
      <point x="57" y="324" type="curve"/>
      <point x="57" y="109"/>
      <point x="218" y="6"/>
      <point x="445" y="6" type="curve"/>
      <point x="667" y="6"/>
      <point x="818" y="114"/>
      <point x="818" y="326" type="curve"/>
      <point x="818" y="537"/>
      <point x="664" y="644"/>
      <point x="441" y="644" type="curve"/>
      <point x="215" y="644"/>
      <point x="57" y="538"/>
      <point x="57" y="324" type="curve"/>
      <point x="97" y="324"/>
      <point x="125" y="324"/>
    </contour>
    <contour>
      <point x="518" y="140" type="curve"/>
      <point x="560" y="140"/>
      <point x="579" y="140"/>
      <point x="621" y="140" type="curve"/>
      <point x="621" y="232"/>
      <point x="621" y="140"/>
      <point x="621" y="232" type="curve"/>
      <point x="608" y="232"/>
      <point x="608" y="232"/>
      <point x="596" y="232" type="curve"/>
      <point x="525" y="194"/>
      <point x="569" y="243"/>
    </contour>
    <contour>
      <point x="423" y="510" type="curve"/>
      <point x="370" y="510"/>
      <point x="325" y="510"/>
      <point x="272" y="510" type="curve"/>
      <point x="272" y="418"/>
      <point x="272" y="510"/>
      <point x="272" y="418" type="curve"/>
      <point x="284" y="418"/>
      <point x="289" y="418"/>
      <point x="301" y="418" type="curve"/>
      <point x="423" y="510"/>
      <point x="301" y="418"/>
    </contour>
    <contour>
      <point x="423" y="232" type="curve"/>
      <point x="370" y="232"/>
      <point x="325" y="232"/>
      <point x="272" y="232" type="curve"/>
      <point x="272" y="140"/>
      <point x="272" y="232"/>
      <point x="272" y="140" type="curve"/>
      <point x="284" y="140"/>
      <point x="289" y="140"/>
      <point x="301" y="140" type="curve"/>
      <point x="423" y="232"/>
      <point x="301" y="140"/>
    </contour>
    <contour>
      <point x="301" y="140" type="curve"/>
      <point x="350" y="140"/>
      <point x="391" y="140"/>
      <point x="441" y="140" type="curve"/>
      <point x="441" y="232"/>
      <point x="441" y="140"/>
      <point x="441" y="232" type="curve"/>
      <point x="432" y="232"/>
      <point x="431" y="232"/>
      <point x="423" y="232" type="curve"/>
      <point x="301" y="140"/>
      <point x="423" y="232"/>
    </contour>
    <contour>
      <point x="401" y="318" type="curve"/>
      <point x="427" y="288"/>
      <point x="493" y="171"/>
      <point x="518" y="140" type="curve"/>
      <point x="599" y="205"/>
      <point x="543" y="155"/>
      <point x="596" y="232" type="curve"/>
      <point x="534" y="315" type="line"/>
      <point x="384" y="315"/>
      <point x="551" y="318"/>
    </contour>
    <contour>
      <point x="417" y="232" type="curve"/>
      <point x="417" y="324"/>
      <point x="417" y="417"/>
      <point x="417" y="510" type="curve"/>
      <point x="295" y="418"/>
      <point x="423" y="510"/>
      <point x="301" y="418" type="curve"/>
      <point x="301" y="326"/>
      <point x="301" y="233"/>
      <point x="301" y="140" type="curve"/>
      <point x="423" y="232"/>
      <point x="295" y="140"/>
    </contour>
    <contour>
      <point x="364" y="268" type="curve"/>
      <point x="384" y="268"/>
      <point x="403" y="268"/>
      <point x="423" y="268" type="curve"/>
      <point x="524" y="268"/>
      <point x="598" y="296"/>
      <point x="598" y="392" type="curve"/>
      <point x="598" y="472"/>
      <point x="533" y="510"/>
      <point x="447" y="510" type="curve"/>
      <point x="439" y="510"/>
      <point x="431" y="510"/>
      <point x="423" y="510" type="curve"/>
      <point x="301" y="418"/>
      <point x="423" y="510"/>
      <point x="301" y="418" type="curve"/>
      <point x="342" y="418"/>
      <point x="384" y="418"/>
      <point x="425" y="418" type="curve"/>
      <point x="456" y="418"/>
      <point x="483" y="415"/>
      <point x="483" y="387" type="curve"/>
      <point x="483" y="364"/>
      <point x="464" y="359"/>
      <point x="440" y="359" type="curve"/>
      <point x="414" y="359"/>
      <point x="389" y="359"/>
      <point x="364" y="359" type="curve"/>
      <point x="364" y="268"/>
      <point x="364" y="359"/>
    </contour>
  </outline>
</glyph>
<glyph name="plusminus" format="1">
  <advance width="709"/>
  <unicode hex="00B1"/>
  <outline>
    <contour>
      <point x="61" y="36" type="line"/>
      <point x="648" y="36" type="line"/>
      <point x="648" y="161" type="line"/>
      <point x="61" y="161" type="line"/>
    </contour>
    <contour>
      <point x="61" y="252" type="curve"/>
      <point x="648" y="252" type="line"/>
      <point x="648" y="377"/>
      <point x="648" y="252"/>
      <point x="648" y="377" type="curve"/>
      <point x="61" y="377" type="line"/>
      <point x="61" y="252"/>
      <point x="61" y="377"/>
    </contour>
    <contour>
      <point x="428" y="37" type="curve"/>
      <point x="428" y="583" type="line"/>
      <point x="276" y="583"/>
      <point x="438" y="583"/>
      <point x="286" y="583" type="curve"/>
      <point x="286" y="37" type="line"/>
      <point x="438" y="37"/>
      <point x="276" y="37"/>
    </contour>
  </outline>
</glyph>
<glyph name="periodcentered" format="1">
  <advance width="284"/>
  <unicode hex="00B7"/>
  <outline>
    <contour>
      <point x="227" y="440" type="curve"/>
      <point x="227" y="490"/>
      <point x="190" y="514"/>
      <point x="140" y="514" type="curve"/>
      <point x="91" y="514"/>
      <point x="57" y="488"/>
      <point x="57" y="440" type="curve"/>
      <point x="227" y="440"/>
      <point x="57" y="440"/>
      <point x="227" y="440" type="curve"/>
      <point x="227" y="389"/>
      <point x="191" y="367"/>
      <point x="140" y="367" type="curve"/>
      <point x="90" y="367"/>
      <point x="57" y="391"/>
      <point x="57" y="440" type="curve"/>
      <point x="227" y="440"/>
      <point x="57" y="440"/>
    </contour>
  </outline>
</glyph>
<glyph name="cedilla" format="1">
  <advance width="418"/>
  <unicode hex="00B8"/>
  <outline>
    <contour>
      <point x="268" y="96" type="move" name="_bottom"/>
    </contour>
    <contour>
      <point x="170" y="175" type="curve"/>
      <point x="156" y="154"/>
      <point x="93" y="52"/>
      <point x="79" y="31" type="curve"/>
      <point x="183" y="-60"/>
      <point x="79" y="31"/>
      <point x="183" y="-60" type="curve"/>
      <point x="200" y="-34"/>
      <point x="270" y="70"/>
      <point x="287" y="96" type="curve"/>
      <point x="170" y="175"/>
      <point x="287" y="96"/>
    </contour>
    <contour>
      <point x="183" y="-60" type="curve"/>
      <point x="187" y="-57"/>
      <point x="191" y="-54"/>
      <point x="197" y="-54" type="curve"/>
      <point x="204" y="-54"/>
      <point x="210" y="-57"/>
      <point x="210" y="-64" type="curve"/>
      <point x="210" y="-77"/>
      <point x="197" y="-80"/>
      <point x="183" y="-80" type="curve"/>
      <point x="160" y="-80"/>
      <point x="141" y="-74"/>
      <point x="113" y="-62" type="curve"/>
      <point x="64" y="-147"/>
      <point x="113" y="-62"/>
      <point x="64" y="-147" type="curve"/>
      <point x="102" y="-165"/>
      <point x="133" y="-175"/>
      <point x="176" y="-175" type="curve"/>
      <point x="264" y="-175"/>
      <point x="331" y="-143"/>
      <point x="331" y="-61" type="curve"/>
      <point x="331" y="15"/>
      <point x="274" y="55"/>
      <point x="195" y="55" type="curve"/>
      <point x="151" y="55"/>
      <point x="120" y="48"/>
      <point x="79" y="31" type="curve"/>
      <point x="183" y="-60"/>
      <point x="79" y="31"/>
    </contour>
  </outline>
</glyph>
<glyph name="guillemotright" format="1">
  <advance width="588"/>
  <unicode hex="00BB"/>
  <outline>
    <contour>
      <point x="322" y="485" type="curve"/>
      <point x="381" y="451"/>
      <point x="481" y="389"/>
      <point x="540" y="355" type="curve"/>
      <point x="540" y="229"/>
      <point x="540" y="345"/>
      <point x="540" y="220" type="curve"/>
      <point x="481" y="255"/>
      <point x="381" y="321"/>
      <point x="322" y="356" type="curve"/>
      <point x="322" y="481"/>
      <point x="322" y="361"/>
    </contour>
    <contour>
      <point x="322" y="222" type="curve"/>
      <point x="381" y="256"/>
      <point x="481" y="320"/>
      <point x="540" y="355" type="curve"/>
      <point x="540" y="229"/>
      <point x="540" y="345"/>
      <point x="540" y="220" type="curve"/>
      <point x="481" y="185"/>
      <point x="381" y="126"/>
      <point x="322" y="92" type="curve"/>
      <point x="322" y="217"/>
      <point x="322" y="96"/>
    </contour>
    <contour>
      <point x="73" y="485" type="curve"/>
      <point x="132" y="451"/>
      <point x="232" y="389"/>
      <point x="292" y="355" type="curve"/>
      <point x="292" y="229"/>
      <point x="292" y="345"/>
      <point x="292" y="220" type="curve"/>
      <point x="232" y="255"/>
      <point x="132" y="321"/>
      <point x="73" y="356" type="curve"/>
      <point x="73" y="481"/>
      <point x="73" y="361"/>
    </contour>
    <contour>
      <point x="73" y="222" type="curve"/>
      <point x="132" y="256"/>
      <point x="232" y="320"/>
      <point x="292" y="355" type="curve"/>
      <point x="292" y="229"/>
      <point x="292" y="345"/>
      <point x="292" y="220" type="curve"/>
      <point x="232" y="185"/>
      <point x="132" y="126"/>
      <point x="73" y="92" type="curve"/>
      <point x="73" y="217"/>
      <point x="73" y="96"/>
    </contour>
  </outline>
</glyph>
<glyph name="questiondown" format="1">
  <advance width="584"/>
  <unicode hex="00BF"/>
  <outline>
    <contour>
      <point x="392" y="339" type="curve"/>
      <point x="392" y="376"/>
      <point x="392" y="463"/>
      <point x="392" y="500" type="curve"/>
      <point x="246" y="500"/>
      <point x="392" y="500"/>
      <point x="246" y="500" type="curve"/>
      <point x="246" y="463"/>
      <point x="246" y="376"/>
      <point x="246" y="339" type="curve"/>
      <point x="392" y="339"/>
      <point x="246" y="339"/>
    </contour>
    <contour>
      <point x="472" y="151" type="line"/>
      <point x="436" y="114"/>
      <point x="385" y="86"/>
      <point x="324" y="86" type="curve"/>
      <point x="246" y="86"/>
      <point x="191" y="126"/>
      <point x="191" y="202" type="curve"/>
      <point x="191" y="290"/>
      <point x="269" y="339"/>
      <point x="376" y="339" type="curve"/>
      <point x="376" y="380"/>
      <point x="376" y="409"/>
      <point x="376" y="450" type="curve"/>
      <point x="185" y="450"/>
      <point x="46" y="364"/>
      <point x="46" y="202" type="curve"/>
      <point x="46" y="49"/>
      <point x="161" y="-34"/>
      <point x="317" y="-34" type="curve"/>
      <point x="413" y="-34"/>
      <point x="488" y="-4"/>
      <point x="551" y="61" type="curve"/>
    </contour>
    <contour>
      <point x="232" y="682" type="curve"/>
      <point x="232" y="632"/>
      <point x="269" y="608"/>
      <point x="318" y="608" type="curve"/>
      <point x="368" y="608"/>
      <point x="402" y="634"/>
      <point x="402" y="682" type="curve"/>
      <point x="232" y="682"/>
      <point x="402" y="682"/>
      <point x="232" y="682" type="curve"/>
      <point x="232" y="733"/>
      <point x="268" y="755"/>
      <point x="319" y="755" type="curve"/>
      <point x="369" y="755"/>
      <point x="402" y="731"/>
      <point x="402" y="682" type="curve"/>
      <point x="232" y="682"/>
      <point x="402" y="682"/>
    </contour>
  </outline>
</glyph>
<glyph name="Acircumflex" format="1">
  <advance width="841"/>
  <unicode hex="00C2"/>
  <outline>
    <contour>
      <point x="128" y="114" type="curve"/>
      <point x="-8" y="114"/>
      <point x="132" y="114"/>
      <point x="-4" y="114" type="curve"/>
      <point x="-4" y="0"/>
      <point x="-4" y="114"/>
      <point x="-4" y="0" type="curve"/>
      <point x="42" y="0"/>
      <point x="83" y="0"/>
      <point x="127" y="0" type="curve"/>
      <point x="128" y="114"/>
      <point x="127" y="0"/>
    </contour>
    <contour>
      <point x="128" y="0" type="curve"/>
      <point x="189" y="0"/>
      <point x="128" y="0"/>
      <point x="314" y="0" type="curve"/>
      <point x="314" y="114"/>
      <point x="314" y="0"/>
      <point x="314" y="114" type="curve"/>
      <point x="128" y="114"/>
      <point x="314" y="114"/>
      <point x="128" y="114" type="curve"/>
      <point x="128" y="0"/>
      <point x="128" y="114"/>
    </contour>
    <contour>
      <point x="697" y="0" type="curve"/>
      <point x="742" y="0"/>
      <point x="783" y="0"/>
      <point x="828" y="0" type="curve"/>
      <point x="828" y="114"/>
      <point x="828" y="0"/>
      <point x="828" y="114" type="curve"/>
      <point x="692" y="114"/>
      <point x="833" y="114"/>
      <point x="697" y="114" type="curve"/>
      <point x="697" y="0"/>
      <point x="697" y="114"/>
    </contour>
    <contour>
      <point x="697" y="114" type="curve"/>
      <point x="511" y="114"/>
      <point x="697" y="114"/>
      <point x="511" y="114" type="curve"/>
      <point x="511" y="0"/>
      <point x="511" y="114"/>
      <point x="511" y="0" type="curve"/>
      <point x="574" y="0"/>
      <point x="635" y="0"/>
      <point x="697" y="0" type="curve"/>
      <point x="697" y="114"/>
      <point x="697" y="0"/>
    </contour>
    <contour>
      <point x="583" y="306" type="curve"/>
      <point x="477" y="306"/>
      <point x="370" y="306"/>
      <point x="264" y="306" type="curve"/>
      <point x="202" y="186"/>
      <point x="264" y="306"/>
      <point x="202" y="186" type="curve"/>
      <point x="345" y="186"/>
      <point x="488" y="186"/>
      <point x="631" y="186" type="curve"/>
      <point x="583" y="306"/>
      <point x="631" y="186"/>
    </contour>
    <contour>
      <point x="789" y="0" type="curve"/>
      <point x="695" y="242"/>
      <point x="593" y="480"/>
      <point x="499" y="722" type="curve"/>
      <point x="360" y="722"/>
      <point x="499" y="722"/>
      <point x="360" y="722" type="curve"/>
      <point x="452" y="483"/>
      <point x="537" y="239"/>
      <point x="630" y="0" type="curve"/>
      <point x="789" y="0"/>
      <point x="630" y="0"/>
    </contour>
    <contour>
      <point x="198" y="0" type="curve"/>
      <point x="301" y="239"/>
      <point x="394" y="483"/>
      <point x="497" y="722" type="curve"/>
      <point x="359" y="722"/>
      <point x="497" y="722"/>
      <point x="359" y="722" type="curve"/>
      <point x="253" y="480"/>
      <point x="137" y="242"/>
      <point x="32" y="0" type="curve"/>
      <point x="198" y="0"/>
      <point x="32" y="0"/>
    </contour>
    <contour>
      <point x="335" y="781" type="line"/>
      <point x="497" y="947" type="line"/>
      <point x="304" y="947" type="line"/>
      <point x="188" y="781" type="line"/>
    </contour>
    <contour>
      <point x="666" y="781" type="line"/>
      <point x="548" y="947" type="line"/>
      <point x="355" y="947" type="line"/>
      <point x="516" y="781" type="line"/>
    </contour>
  </outline>
</glyph>
<glyph name="Ccedilla" format="1">
  <advance width="777"/>
  <unicode hex="00C7"/>
  <outline>
    <contour>
      <point x="604" y="654" type="curve"/>
      <point x="604" y="534"/>
      <point x="604" y="628"/>
      <point x="604" y="508" type="curve"/>
      <point x="722" y="508"/>
      <point x="604" y="508"/>
      <point x="722" y="508" type="curve"/>
      <point x="722" y="628"/>
      <point x="722" y="534"/>
      <point x="722" y="654" type="curve"/>
      <point x="604" y="654"/>
      <point x="722" y="654"/>
    </contour>
    <contour>
      <point x="722" y="654" type="curve"/>
      <point x="641" y="696"/>
      <point x="552" y="727"/>
      <point x="452" y="727" type="curve"/>
      <point x="207" y="727"/>
      <point x="53" y="591"/>
      <point x="53" y="344" type="curve"/>
      <point x="53" y="118"/>
      <point x="197" y="-5"/>
      <point x="427" y="-5" type="curve"/>
      <point x="558" y="-5"/>
      <point x="641" y="25"/>
      <point x="728" y="93" type="curve"/>
      <point x="657" y="186"/>
      <point x="727" y="93"/>
      <point x="657" y="186" type="curve"/>
      <point x="579" y="136"/>
      <point x="521" y="115"/>
      <point x="434" y="115" type="curve"/>
      <point x="287" y="115"/>
      <point x="206" y="202"/>
      <point x="206" y="350" type="curve"/>
      <point x="206" y="511"/>
      <point x="289" y="608"/>
      <point x="445" y="608" type="curve"/>
      <point x="517" y="608"/>
      <point x="582" y="593"/>
      <point x="639" y="563" type="curve"/>
      <point x="722" y="654"/>
      <point x="639" y="563"/>
    </contour>
    <contour>
      <point x="370" y="85" type="curve"/>
      <point x="356" y="64"/>
      <point x="293" y="-38"/>
      <point x="279" y="-60" type="curve"/>
      <point x="383" y="-151"/>
      <point x="279" y="-60"/>
      <point x="383" y="-151" type="curve"/>
      <point x="400" y="-125"/>
      <point x="471" y="-20"/>
      <point x="487" y="6" type="curve"/>
      <point x="370" y="85"/>
      <point x="487" y="6"/>
    </contour>
    <contour>
      <point x="383" y="-151" type="curve"/>
      <point x="388" y="-147"/>
      <point x="392" y="-144"/>
      <point x="397" y="-144" type="curve"/>
      <point x="405" y="-144"/>
      <point x="411" y="-147"/>
      <point x="411" y="-155" type="curve"/>
      <point x="411" y="-167"/>
      <point x="398" y="-171"/>
      <point x="383" y="-171" type="curve"/>
      <point x="360" y="-171"/>
      <point x="341" y="-164"/>
      <point x="313" y="-152" type="curve"/>
      <point x="265" y="-237"/>
      <point x="313" y="-152"/>
      <point x="265" y="-237" type="curve"/>
      <point x="302" y="-256"/>
      <point x="334" y="-265"/>
      <point x="376" y="-265" type="curve"/>
      <point x="464" y="-265"/>
      <point x="531" y="-234"/>
      <point x="531" y="-151" type="curve"/>
      <point x="531" y="-75"/>
      <point x="474" y="-36"/>
      <point x="395" y="-36" type="curve"/>
      <point x="351" y="-36"/>
      <point x="320" y="-43"/>
      <point x="279" y="-60" type="curve"/>
      <point x="383" y="-151"/>
      <point x="279" y="-60"/>
    </contour>
  </outline>
</glyph>
<glyph name="Igrave" format="1">
  <advance width="390"/>
  <unicode hex="00CC"/>
  <outline>
    <contour>
      <point x="196" y="722" type="curve"/>
      <point x="140" y="722"/>
      <point x="100" y="722"/>
      <point x="44" y="722" type="curve"/>
      <point x="44" y="608"/>
      <point x="44" y="722"/>
      <point x="44" y="608" type="curve"/>
      <point x="212" y="608"/>
      <point x="28" y="608"/>
      <point x="196" y="608" type="curve"/>
      <point x="196" y="722"/>
      <point x="196" y="608"/>
    </contour>
    <contour>
      <point x="196" y="608" type="curve"/>
      <point x="363" y="608"/>
      <point x="180" y="608"/>
      <point x="347" y="608" type="curve"/>
      <point x="347" y="722"/>
      <point x="347" y="608"/>
      <point x="347" y="722" type="curve"/>
      <point x="291" y="722"/>
      <point x="251" y="722"/>
      <point x="196" y="722" type="curve"/>
      <point x="196" y="608"/>
      <point x="196" y="722"/>
    </contour>
    <contour>
      <point x="196" y="0" type="curve"/>
      <point x="251" y="0"/>
      <point x="291" y="0"/>
      <point x="347" y="0" type="curve"/>
      <point x="347" y="114"/>
      <point x="347" y="0"/>
      <point x="347" y="114" type="curve"/>
      <point x="180" y="114"/>
      <point x="363" y="114"/>
      <point x="196" y="114" type="curve"/>
      <point x="196" y="0"/>
      <point x="196" y="114"/>
    </contour>
    <contour>
      <point x="196" y="114" type="curve"/>
      <point x="28" y="114"/>
      <point x="212" y="114"/>
      <point x="44" y="114" type="curve"/>
      <point x="44" y="0"/>
      <point x="44" y="114"/>
      <point x="44" y="0" type="curve"/>
      <point x="100" y="0"/>
      <point x="140" y="0"/>
      <point x="196" y="0" type="curve"/>
      <point x="196" y="114"/>
      <point x="196" y="0"/>
    </contour>
    <contour>
      <point x="271" y="0" type="curve"/>
      <point x="271" y="241"/>
      <point x="271" y="481"/>
      <point x="271" y="722" type="curve"/>
      <point x="118" y="722"/>
      <point x="271" y="722"/>
      <point x="118" y="722" type="curve"/>
      <point x="118" y="481"/>
      <point x="118" y="241"/>
      <point x="118" y="0" type="curve"/>
      <point x="271" y="0"/>
      <point x="118" y="0"/>
    </contour>
    <contour>
      <point x="277" y="780" type="line"/>
      <point x="159" y="946" type="line"/>
      <point x="-34" y="946" type="line"/>
      <point x="127" y="780" type="line"/>
    </contour>
  </outline>
</glyph>
<glyph name="Idieresis" format="1">
  <advance width="397"/>
  <unicode hex="00CF"/>
  <outline>
    <contour>
      <point x="200" y="722" type="curve"/>
      <point x="144" y="722"/>
      <point x="104" y="722"/>
      <point x="48" y="722" type="curve"/>
      <point x="48" y="608"/>
      <point x="48" y="722"/>
      <point x="48" y="608" type="curve"/>
      <point x="216" y="608"/>
      <point x="33" y="608"/>
      <point x="200" y="608" type="curve"/>
      <point x="200" y="722"/>
      <point x="200" y="608"/>
    </contour>
    <contour>
      <point x="200" y="608" type="curve"/>
      <point x="367" y="608"/>
      <point x="184" y="608"/>
      <point x="352" y="608" type="curve"/>
      <point x="352" y="722"/>
      <point x="352" y="608"/>
      <point x="352" y="722" type="curve"/>
      <point x="296" y="722"/>
      <point x="255" y="722"/>
      <point x="200" y="722" type="curve"/>
      <point x="200" y="608"/>
      <point x="200" y="722"/>
    </contour>
    <contour>
      <point x="200" y="0" type="curve"/>
      <point x="255" y="0"/>
      <point x="296" y="0"/>
      <point x="352" y="0" type="curve"/>
      <point x="352" y="114"/>
      <point x="352" y="0"/>
      <point x="352" y="114" type="curve"/>
      <point x="184" y="114"/>
      <point x="367" y="114"/>
      <point x="200" y="114" type="curve"/>
      <point x="200" y="0"/>
      <point x="200" y="114"/>
    </contour>
    <contour>
      <point x="200" y="114" type="curve"/>
      <point x="33" y="114"/>
      <point x="216" y="114"/>
      <point x="48" y="114" type="curve"/>
      <point x="48" y="0"/>
      <point x="48" y="114"/>
      <point x="48" y="0" type="curve"/>
      <point x="104" y="0"/>
      <point x="144" y="0"/>
      <point x="200" y="0" type="curve"/>
      <point x="200" y="114"/>
      <point x="200" y="0"/>
    </contour>
    <contour>
      <point x="275" y="0" type="curve"/>
      <point x="275" y="241"/>
      <point x="275" y="481"/>
      <point x="275" y="722" type="curve"/>
      <point x="122" y="722"/>
      <point x="275" y="722"/>
      <point x="122" y="722" type="curve"/>
      <point x="122" y="481"/>
      <point x="122" y="241"/>
      <point x="122" y="0" type="curve"/>
      <point x="275" y="0"/>
      <point x="122" y="0"/>
    </contour>
    <contour>
      <point x="174" y="849" type="curve"/>
      <point x="174" y="899"/>
      <point x="137" y="923"/>
      <point x="88" y="923" type="curve"/>
      <point x="38" y="923"/>
      <point x="4" y="896"/>
      <point x="4" y="849" type="curve"/>
      <point x="174" y="849"/>
      <point x="4" y="849"/>
      <point x="174" y="849" type="curve"/>
      <point x="174" y="798"/>
      <point x="138" y="776"/>
      <point x="87" y="776" type="curve"/>
      <point x="37" y="776"/>
      <point x="4" y="800"/>
      <point x="4" y="849" type="curve"/>
      <point x="174" y="849"/>
      <point x="4" y="849"/>
    </contour>
    <contour>
      <point x="396" y="849" type="curve"/>
      <point x="396" y="899"/>
      <point x="359" y="923"/>
      <point x="310" y="923" type="curve"/>
      <point x="260" y="923"/>
      <point x="226" y="896"/>
      <point x="226" y="849" type="curve"/>
      <point x="396" y="849"/>
      <point x="226" y="849"/>
      <point x="396" y="849" type="curve"/>
      <point x="396" y="798"/>
      <point x="360" y="776"/>
      <point x="309" y="776" type="curve"/>
      <point x="259" y="776"/>
      <point x="226" y="800"/>
      <point x="226" y="849" type="curve"/>
      <point x="396" y="849"/>
      <point x="226" y="849"/>
    </contour>
  </outline>
</glyph>
<glyph name="Otilde" format="1">
  <advance width="850"/>
  <unicode hex="00D5"/>
  <outline>
    <contour>
      <point x="206" y="360" type="curve"/>
      <point x="206" y="507"/>
      <point x="275" y="607"/>
      <point x="420" y="607" type="curve"/>
      <point x="566" y="607"/>
      <point x="645" y="512"/>
      <point x="645" y="363" type="curve"/>
      <point x="645" y="215"/>
      <point x="574" y="116"/>
      <point x="429" y="116" type="curve"/>
      <point x="281" y="116"/>
      <point x="206" y="211"/>
      <point x="206" y="360" type="curve"/>
      <point x="53" y="360"/>
      <point x="206" y="360"/>
      <point x="53" y="360" type="curve"/>
      <point x="53" y="133"/>
      <point x="194" y="-5"/>
      <point x="422" y="-5" type="curve"/>
      <point x="654" y="-5"/>
      <point x="797" y="134"/>
      <point x="797" y="363" type="curve"/>
      <point x="797" y="588"/>
      <point x="658" y="727"/>
      <point x="430" y="727" type="curve"/>
      <point x="198" y="727"/>
      <point x="53" y="589"/>
      <point x="53" y="360" type="curve"/>
      <point x="206" y="360"/>
      <point x="53" y="360"/>
    </contour>
    <contour>
      <point x="567" y="965" type="curve"/>
      <point x="553" y="930"/>
      <point x="536" y="908"/>
      <point x="513" y="908" type="curve"/>
      <point x="482" y="908"/>
      <point x="465" y="916"/>
      <point x="441" y="934" type="curve" smooth="yes"/>
      <point x="405" y="962"/>
      <point x="379" y="973"/>
      <point x="335" y="973" type="curve"/>
      <point x="254" y="973"/>
      <point x="208" y="916"/>
      <point x="177" y="836" type="curve"/>
      <point x="290" y="778"/>
      <point x="178" y="836"/>
      <point x="290" y="778" type="curve"/>
      <point x="309" y="821"/>
      <point x="328" y="838"/>
      <point x="352" y="838" type="curve"/>
      <point x="380" y="838"/>
      <point x="395" y="828"/>
      <point x="416" y="812" type="curve" smooth="yes"/>
      <point x="457" y="782"/>
      <point x="482" y="771"/>
      <point x="530" y="771" type="curve"/>
      <point x="613" y="771"/>
      <point x="656" y="828"/>
      <point x="686" y="909" type="curve"/>
      <point x="567" y="965"/>
      <point x="685" y="908"/>
    </contour>
  </outline>
</glyph>
<glyph name="Oslash" format="1">
  <advance width="850"/>
  <unicode hex="00D8"/>
  <outline>
    <contour>
      <point x="231" y="-64" type="line"/>
      <point x="711" y="732" type="line"/>
      <point x="613" y="781" type="line"/>
      <point x="141" y="-6" type="line"/>
    </contour>
    <contour>
      <point x="206" y="360" type="curve"/>
      <point x="206" y="507"/>
      <point x="275" y="607"/>
      <point x="420" y="607" type="curve"/>
      <point x="566" y="607"/>
      <point x="645" y="512"/>
      <point x="645" y="363" type="curve"/>
      <point x="645" y="215"/>
      <point x="574" y="116"/>
      <point x="429" y="116" type="curve"/>
      <point x="281" y="116"/>
      <point x="206" y="211"/>
      <point x="206" y="360" type="curve"/>
      <point x="53" y="360"/>
      <point x="206" y="360"/>
      <point x="53" y="360" type="curve"/>
      <point x="53" y="133"/>
      <point x="194" y="-5"/>
      <point x="422" y="-5" type="curve"/>
      <point x="654" y="-5"/>
      <point x="797" y="134"/>
      <point x="797" y="363" type="curve"/>
      <point x="797" y="588"/>
      <point x="658" y="727"/>
      <point x="430" y="727" type="curve"/>
      <point x="198" y="727"/>
      <point x="53" y="589"/>
      <point x="53" y="360" type="curve"/>
      <point x="206" y="360"/>
      <point x="53" y="360"/>
    </contour>
  </outline>
</glyph>
<glyph name="Thorn" format="1">
  <advance width="694"/>
  <unicode hex="00DE"/>
  <outline>
    <contour>
      <point x="220" y="722" type="curve"/>
      <point x="171" y="722"/>
      <point x="121" y="722"/>
      <point x="70" y="722" type="curve"/>
      <point x="70" y="608"/>
      <point x="70" y="722"/>
      <point x="70" y="608" type="curve"/>
      <point x="220" y="608"/>
      <point x="70" y="608"/>
      <point x="220" y="608" type="curve"/>
      <point x="220" y="722"/>
      <point x="220" y="608"/>
    </contour>
    <contour>
      <point x="220" y="114" type="curve"/>
      <point x="70" y="114"/>
      <point x="220" y="114"/>
      <point x="70" y="114" type="curve"/>
      <point x="70" y="0"/>
      <point x="70" y="114"/>
      <point x="70" y="0" type="curve"/>
      <point x="121" y="0"/>
      <point x="171" y="0"/>
      <point x="220" y="0" type="curve"/>
      <point x="220" y="114"/>
      <point x="220" y="0"/>
    </contour>
    <contour>
      <point x="220" y="0" type="curve"/>
      <point x="269" y="0"/>
      <point x="220" y="0"/>
      <point x="367" y="0" type="curve"/>
      <point x="367" y="114"/>
      <point x="367" y="0"/>
      <point x="367" y="114" type="curve"/>
      <point x="220" y="114"/>
      <point x="367" y="114"/>
      <point x="220" y="114" type="curve"/>
      <point x="220" y="0"/>
      <point x="220" y="114"/>
    </contour>
    <contour>
      <point x="198" y="206" type="curve"/>
      <point x="264" y="177"/>
      <point x="326" y="161"/>
      <point x="402" y="161" type="curve"/>
      <point x="550" y="163"/>
      <point x="663" y="231"/>
      <point x="663" y="375" type="curve"/>
      <point x="663" y="514"/>
      <point x="535" y="581"/>
      <point x="366" y="581" type="curve"/>
      <point x="318" y="581"/>
      <point x="271" y="581"/>
      <point x="223" y="581" type="curve"/>
      <point x="223" y="468"/>
      <point x="223" y="581"/>
      <point x="223" y="468" type="curve"/>
      <point x="264" y="468"/>
      <point x="304" y="468"/>
      <point x="345" y="468" type="curve"/>
      <point x="439" y="468"/>
      <point x="511" y="438"/>
      <point x="511" y="369" type="curve"/>
      <point x="511" y="306"/>
      <point x="461" y="272"/>
      <point x="389" y="272" type="curve"/>
      <point x="335" y="272"/>
      <point x="296" y="283"/>
      <point x="246" y="304" type="curve"/>
      <point x="198" y="207"/>
      <point x="246" y="304"/>
    </contour>
    <contour>
      <point x="295" y="0" type="curve"/>
      <point x="295" y="241"/>
      <point x="295" y="481"/>
      <point x="295" y="722" type="curve"/>
      <point x="143" y="722"/>
      <point x="295" y="722"/>
      <point x="143" y="722" type="curve"/>
      <point x="143" y="481"/>
      <point x="143" y="241"/>
      <point x="143" y="0" type="curve"/>
      <point x="295" y="0"/>
      <point x="143" y="0"/>
    </contour>
    <contour>
      <point x="220" y="608" type="curve"/>
      <point x="269" y="608"/>
      <point x="220" y="608"/>
      <point x="367" y="608" type="curve"/>
      <point x="367" y="722"/>
      <point x="367" y="608"/>
      <point x="367" y="722" type="curve"/>
      <point x="220" y="722"/>
      <point x="367" y="722"/>
      <point x="220" y="722" type="curve"/>
      <point x="220" y="608"/>
      <point x="220" y="722"/>
    </contour>
  </outline>
</glyph>
<glyph name="aring" format="1">
  <advance width="655"/>
  <unicode hex="00E5"/>
  <outline>
    <contour>
      <point x="74" y="462" type="curve"/>
      <point x="74" y="345"/>
      <point x="74" y="458"/>
      <point x="74" y="342" type="curve"/>
      <point x="192" y="342"/>
      <point x="74" y="342"/>
      <point x="192" y="342" type="curve"/>
      <point x="192" y="458"/>
      <point x="192" y="345"/>
      <point x="192" y="462" type="curve"/>
      <point x="74" y="462"/>
      <point x="192" y="462"/>
    </contour>
    <contour>
      <point x="557" y="0" type="curve"/>
      <point x="557" y="123"/>
      <point x="557" y="242"/>
      <point x="557" y="365" type="curve"/>
      <point x="557" y="499"/>
      <point x="450" y="538"/>
      <point x="311" y="538" type="curve"/>
      <point x="209" y="538"/>
      <point x="133" y="507"/>
      <point x="74" y="462" type="curve"/>
      <point x="131" y="365"/>
      <point x="79" y="458"/>
      <point x="136" y="362" type="curve"/>
      <point x="177" y="391"/>
      <point x="220" y="422"/>
      <point x="290" y="422" type="curve"/>
      <point x="354" y="422"/>
      <point x="405" y="407"/>
      <point x="405" y="342" type="curve"/>
      <point x="405" y="228"/>
      <point x="405" y="114"/>
      <point x="405" y="0" type="curve"/>
      <point x="557" y="0"/>
      <point x="405" y="0"/>
    </contour>
    <contour>
      <point x="483" y="0" type="curve"/>
      <point x="529" y="0"/>
      <point x="576" y="0"/>
      <point x="622" y="0" type="curve"/>
      <point x="622" y="114"/>
      <point x="622" y="0"/>
      <point x="622" y="114" type="curve"/>
      <point x="483" y="114"/>
      <point x="622" y="114"/>
      <point x="483" y="114" type="curve"/>
      <point x="483" y="0"/>
      <point x="483" y="114"/>
    </contour>
    <contour>
      <point x="477" y="345" type="curve"/>
      <point x="396" y="336"/>
      <point x="347" y="334"/>
      <point x="267" y="325" type="curve"/>
      <point x="140" y="310"/>
      <point x="45" y="281"/>
      <point x="45" y="162" type="curve"/>
      <point x="45" y="47"/>
      <point x="125" y="-5"/>
      <point x="248" y="-5" type="curve"/>
      <point x="372" y="-5"/>
      <point x="446" y="67"/>
      <point x="515" y="153" type="curve"/>
      <point x="442" y="213"/>
      <point x="515" y="153"/>
      <point x="442" y="213" type="curve"/>
      <point x="409" y="154"/>
      <point x="350" y="108"/>
      <point x="276" y="108" type="curve"/>
      <point x="225" y="108"/>
      <point x="194" y="124"/>
      <point x="194" y="165" type="curve"/>
      <point x="194" y="203"/>
      <point x="228" y="217"/>
      <point x="265" y="221" type="curve"/>
      <point x="352" y="231"/>
      <point x="397" y="238"/>
      <point x="484" y="248" type="curve"/>
      <point x="477" y="345"/>
      <point x="484" y="248"/>
    </contour>
    <contour>
      <point x="135" y="756" type="curve"/>
      <point x="135" y="658"/>
      <point x="209" y="607"/>
      <point x="313" y="607" type="curve"/>
      <point x="419" y="607"/>
      <point x="495" y="657"/>
      <point x="495" y="756" type="curve"/>
      <point x="495" y="856"/>
      <point x="418" y="905"/>
      <point x="311" y="905" type="curve"/>
      <point x="207" y="905"/>
      <point x="135" y="854"/>
      <point x="135" y="756" type="curve"/>
      <point x="265" y="756"/>
      <point x="130" y="756"/>
      <point x="259" y="756" type="curve"/>
      <point x="259" y="788"/>
      <point x="277" y="806"/>
      <point x="311" y="806" type="curve"/>
      <point x="346" y="806"/>
      <point x="367" y="792"/>
      <point x="367" y="756" type="curve"/>
      <point x="367" y="722"/>
      <point x="348" y="706"/>
      <point x="313" y="706" type="curve"/>
      <point x="279" y="706"/>
      <point x="259" y="723"/>
      <point x="259" y="756" type="curve"/>
      <point x="130" y="756"/>
      <point x="265" y="756"/>
    </contour>
  </outline>
</glyph>
<glyph name="ae" format="1">
  <advance width="994"/>
  <unicode hex="00E6"/>
  <outline>
    <contour>
      <point x="77" y="462" type="curve"/>
      <point x="77" y="345"/>
      <point x="77" y="458"/>
      <point x="77" y="342" type="curve"/>
      <point x="195" y="342"/>
      <point x="77" y="342"/>
      <point x="195" y="342" type="curve"/>
      <point x="195" y="458"/>
      <point x="195" y="345"/>
      <point x="195" y="462" type="curve"/>
      <point x="77" y="462"/>
      <point x="195" y="462"/>
    </contour>
    <contour>
      <point x="560" y="271" type="curve"/>
      <point x="560" y="350"/>
      <point x="560" y="286"/>
      <point x="560" y="365" type="curve"/>
      <point x="560" y="499"/>
      <point x="454" y="536"/>
      <point x="315" y="536" type="curve"/>
      <point x="212" y="536"/>
      <point x="137" y="507"/>
      <point x="77" y="462" type="curve"/>
      <point x="134" y="365"/>
      <point x="82" y="458"/>
      <point x="139" y="362" type="curve"/>
      <point x="180" y="391"/>
      <point x="224" y="422"/>
      <point x="294" y="422" type="curve"/>
      <point x="357" y="422"/>
      <point x="408" y="403"/>
      <point x="408" y="335" type="curve"/>
      <point x="408" y="268"/>
      <point x="408" y="338"/>
      <point x="408" y="271" type="curve"/>
      <point x="560" y="271"/>
      <point x="408" y="271"/>
    </contour>
    <contour>
      <point x="485" y="330" type="curve"/>
      <point x="400" y="329"/>
      <point x="348" y="332"/>
      <point x="265" y="322" type="curve"/>
      <point x="135" y="307"/>
      <point x="43" y="281"/>
      <point x="43" y="165" type="curve"/>
      <point x="43" y="47"/>
      <point x="125" y="-5"/>
      <point x="251" y="-5" type="curve"/>
      <point x="375" y="-5"/>
      <point x="439" y="45"/>
      <point x="524" y="140" type="curve"/>
      <point x="451" y="200"/>
      <point x="518" y="150"/>
      <point x="445" y="210" type="curve"/>
      <point x="390" y="153"/>
      <point x="352" y="107"/>
      <point x="275" y="107" type="curve"/>
      <point x="224" y="107"/>
      <point x="192" y="122"/>
      <point x="192" y="164" type="curve"/>
      <point x="192" y="203"/>
      <point x="229" y="214"/>
      <point x="269" y="218" type="curve"/>
      <point x="352" y="227"/>
      <point x="396" y="225"/>
      <point x="486" y="225" type="curve"/>
      <point x="480" y="322"/>
      <point x="492" y="233"/>
    </contour>
    <contour>
      <point x="484" y="224" type="curve"/>
      <point x="620" y="224"/>
      <point x="756" y="224"/>
      <point x="892" y="224" type="curve"/>
      <point x="955" y="224"/>
      <point x="892" y="224"/>
      <point x="955" y="224" type="curve"/>
      <point x="955" y="266"/>
      <point x="955" y="224"/>
      <point x="955" y="266" type="curve"/>
      <point x="955" y="272"/>
      <point x="955" y="277"/>
      <point x="955" y="283" type="curve"/>
      <point x="955" y="453"/>
      <point x="855" y="537"/>
      <point x="692" y="537" type="curve"/>
      <point x="516" y="537"/>
      <point x="407" y="452"/>
      <point x="407" y="278" type="curve"/>
      <point x="407" y="89"/>
      <point x="525" y="-5"/>
      <point x="715" y="-5" type="curve"/>
      <point x="803" y="-5"/>
      <point x="860" y="18"/>
      <point x="925" y="68" type="curve"/>
      <point x="847" y="155"/>
      <point x="925" y="68"/>
      <point x="847" y="155" type="curve"/>
      <point x="805" y="126"/>
      <point x="762" y="112"/>
      <point x="711" y="112" type="curve"/>
      <point x="608" y="112"/>
      <point x="554" y="172"/>
      <point x="554" y="278" type="curve"/>
      <point x="554" y="368"/>
      <point x="595" y="421"/>
      <point x="685" y="421" type="curve"/>
      <point x="764" y="421"/>
      <point x="810" y="383"/>
      <point x="810" y="303" type="curve"/>
      <point x="810" y="293"/>
      <point x="810" y="284"/>
      <point x="810" y="274" type="curve"/>
      <point x="824" y="285"/>
      <point x="836" y="298"/>
      <point x="850" y="309" type="curve"/>
      <point x="863" y="319"/>
      <point x="879" y="319"/>
      <point x="892" y="329" type="curve"/>
      <point x="756" y="329"/>
      <point x="620" y="329"/>
      <point x="484" y="329" type="curve"/>
      <point x="484" y="216"/>
      <point x="484" y="338"/>
    </contour>
  </outline>
</glyph>
<glyph name="idieresis" format="1">
  <advance width="373"/>
  <unicode hex="00EF"/>
  <outline>
    <contour>
      <point x="189" y="114" type="curve"/>
      <point x="37" y="114"/>
      <point x="189" y="114"/>
      <point x="37" y="114" type="curve"/>
      <point x="37" y="0"/>
      <point x="37" y="114"/>
      <point x="37" y="0" type="curve"/>
      <point x="88" y="0"/>
      <point x="138" y="0"/>
      <point x="189" y="0" type="curve"/>
      <point x="189" y="114"/>
      <point x="189" y="0"/>
    </contour>
    <contour>
      <point x="189" y="0" type="curve"/>
      <point x="238" y="0"/>
      <point x="286" y="0"/>
      <point x="335" y="0" type="curve"/>
      <point x="335" y="114"/>
      <point x="335" y="0"/>
      <point x="335" y="114" type="curve"/>
      <point x="189" y="114"/>
      <point x="335" y="114"/>
      <point x="189" y="114" type="curve"/>
      <point x="189" y="0"/>
      <point x="189" y="114"/>
    </contour>
    <contour>
      <point x="189" y="533" type="curve"/>
      <point x="138" y="533"/>
      <point x="88" y="533"/>
      <point x="37" y="533" type="curve"/>
      <point x="37" y="419"/>
      <point x="37" y="533"/>
      <point x="37" y="419" type="curve"/>
      <point x="189" y="419"/>
      <point x="37" y="419"/>
      <point x="189" y="419" type="curve"/>
      <point x="189" y="533"/>
      <point x="189" y="419"/>
    </contour>
    <contour>
      <point x="269" y="0" type="curve"/>
      <point x="269" y="178"/>
      <point x="269" y="355"/>
      <point x="269" y="533" type="curve"/>
      <point x="109" y="533"/>
      <point x="269" y="533"/>
      <point x="109" y="533" type="curve"/>
      <point x="109" y="355"/>
      <point x="109" y="178"/>
      <point x="109" y="0" type="curve"/>
      <point x="269" y="0"/>
      <point x="109" y="0"/>
    </contour>
    <contour>
      <point x="166" y="679" type="curve"/>
      <point x="166" y="729"/>
      <point x="129" y="753"/>
      <point x="79" y="753" type="curve"/>
      <point x="30" y="753"/>
      <point x="-4" y="726"/>
      <point x="-4" y="679" type="curve"/>
      <point x="166" y="679"/>
      <point x="-4" y="679"/>
      <point x="166" y="679" type="curve"/>
      <point x="166" y="628"/>
      <point x="129" y="606"/>
      <point x="79" y="606" type="curve"/>
      <point x="29" y="606"/>
      <point x="-4" y="630"/>
      <point x="-4" y="679" type="curve"/>
      <point x="166" y="679"/>
      <point x="-4" y="679"/>
    </contour>
    <contour>
      <point x="387" y="679" type="curve"/>
      <point x="387" y="729"/>
      <point x="351" y="753"/>
      <point x="301" y="753" type="curve"/>
      <point x="251" y="753"/>
      <point x="218" y="726"/>
      <point x="218" y="679" type="curve"/>
      <point x="387" y="679"/>
      <point x="218" y="679"/>
      <point x="387" y="679" type="curve"/>
      <point x="387" y="628"/>
      <point x="351" y="606"/>
      <point x="301" y="606" type="curve"/>
      <point x="250" y="606"/>
      <point x="218" y="630"/>
      <point x="218" y="679" type="curve"/>
      <point x="387" y="679"/>
      <point x="218" y="679"/>
    </contour>
  </outline>
</glyph>
<glyph name="otilde" format="1">
  <advance width="674"/>
  <unicode hex="00F5"/>
  <outline>
    <contour>
      <point x="190" y="267" type="curve"/>
      <point x="190" y="357"/>
      <point x="236" y="422"/>
      <point x="330" y="422" type="curve"/>
      <point x="429" y="422"/>
      <point x="480" y="358"/>
      <point x="480" y="266" type="curve"/>
      <point x="480" y="169"/>
      <point x="431" y="111"/>
      <point x="341" y="111" type="curve"/>
      <point x="241" y="112"/>
      <point x="190" y="169"/>
      <point x="190" y="267" type="curve"/>
      <point x="104" y="267"/>
      <point x="127" y="267"/>
      <point x="42" y="267" type="curve"/>
      <point x="42" y="91"/>
      <point x="156" y="-5"/>
      <point x="334" y="-5" type="curve"/>
      <point x="514" y="-5"/>
      <point x="632" y="88"/>
      <point x="632" y="266" type="curve"/>
      <point x="632" y="438"/>
      <point x="519" y="538"/>
      <point x="338" y="538" type="curve"/>
      <point x="156" y="538"/>
      <point x="42" y="438"/>
      <point x="42" y="267" type="curve"/>
      <point x="127" y="267"/>
      <point x="104" y="267"/>
    </contour>
    <contour>
      <point x="474" y="795" type="curve"/>
      <point x="460" y="760"/>
      <point x="443" y="738"/>
      <point x="420" y="738" type="curve"/>
      <point x="389" y="738"/>
      <point x="373" y="746"/>
      <point x="349" y="764" type="curve" smooth="yes"/>
      <point x="312" y="792"/>
      <point x="286" y="803"/>
      <point x="243" y="803" type="curve"/>
      <point x="162" y="803"/>
      <point x="115" y="746"/>
      <point x="85" y="666" type="curve"/>
      <point x="197" y="608"/>
      <point x="86" y="666"/>
      <point x="198" y="608" type="curve"/>
      <point x="217" y="651"/>
      <point x="235" y="668"/>
      <point x="260" y="668" type="curve"/>
      <point x="288" y="668"/>
      <point x="302" y="658"/>
      <point x="323" y="642" type="curve" smooth="yes"/>
      <point x="364" y="612"/>
      <point x="390" y="601"/>
      <point x="438" y="601" type="curve"/>
      <point x="521" y="601"/>
      <point x="563" y="658"/>
      <point x="594" y="739" type="curve"/>
      <point x="475" y="795"/>
      <point x="593" y="738"/>
    </contour>
  </outline>
</glyph>
<glyph name="oslash" format="1">
  <advance width="674"/>
  <unicode hex="00F8"/>
  <outline>
    <contour>
      <point x="194" y="-75" type="line"/>
      <point x="570" y="546" type="line"/>
      <point x="473" y="598" type="line"/>
      <point x="104" y="-19" type="line"/>
    </contour>
    <contour>
      <point x="190" y="267" type="curve"/>
      <point x="190" y="357"/>
      <point x="236" y="422"/>
      <point x="330" y="422" type="curve"/>
      <point x="429" y="422"/>
      <point x="480" y="358"/>
      <point x="480" y="266" type="curve"/>
      <point x="480" y="169"/>
      <point x="431" y="111"/>
      <point x="341" y="111" type="curve"/>
      <point x="241" y="112"/>
      <point x="190" y="169"/>
      <point x="190" y="267" type="curve"/>
      <point x="104" y="267"/>
      <point x="127" y="267"/>
      <point x="42" y="267" type="curve"/>
      <point x="42" y="91"/>
      <point x="156" y="-5"/>
      <point x="334" y="-5" type="curve"/>
      <point x="514" y="-5"/>
      <point x="632" y="88"/>
      <point x="632" y="266" type="curve"/>
      <point x="632" y="438"/>
      <point x="519" y="538"/>
      <point x="338" y="538" type="curve"/>
      <point x="156" y="538"/>
      <point x="42" y="438"/>
      <point x="42" y="267" type="curve"/>
      <point x="127" y="267"/>
      <point x="104" y="267"/>
    </contour>
  </outline>
</glyph>
<glyph name="Abreve" format="1">
  <advance width="841"/>
  <unicode hex="0102"/>
  <outline>
    <contour>
      <point x="128" y="114" type="curve"/>
      <point x="-8" y="114"/>
      <point x="132" y="114"/>
      <point x="-4" y="114" type="curve"/>
      <point x="-4" y="0"/>
      <point x="-4" y="114"/>
      <point x="-4" y="0" type="curve"/>
      <point x="42" y="0"/>
      <point x="83" y="0"/>
      <point x="127" y="0" type="curve"/>
      <point x="128" y="114"/>
      <point x="127" y="0"/>
    </contour>
    <contour>
      <point x="128" y="0" type="curve"/>
      <point x="189" y="0"/>
      <point x="128" y="0"/>
      <point x="314" y="0" type="curve"/>
      <point x="314" y="114"/>
      <point x="314" y="0"/>
      <point x="314" y="114" type="curve"/>
      <point x="128" y="114"/>
      <point x="314" y="114"/>
      <point x="128" y="114" type="curve"/>
      <point x="128" y="0"/>
      <point x="128" y="114"/>
    </contour>
    <contour>
      <point x="697" y="0" type="curve"/>
      <point x="742" y="0"/>
      <point x="783" y="0"/>
      <point x="828" y="0" type="curve"/>
      <point x="828" y="114"/>
      <point x="828" y="0"/>
      <point x="828" y="114" type="curve"/>
      <point x="692" y="114"/>
      <point x="833" y="114"/>
      <point x="697" y="114" type="curve"/>
      <point x="697" y="0"/>
      <point x="697" y="114"/>
    </contour>
    <contour>
      <point x="697" y="114" type="curve"/>
      <point x="511" y="114"/>
      <point x="697" y="114"/>
      <point x="511" y="114" type="curve"/>
      <point x="511" y="0"/>
      <point x="511" y="114"/>
      <point x="511" y="0" type="curve"/>
      <point x="574" y="0"/>
      <point x="635" y="0"/>
      <point x="697" y="0" type="curve"/>
      <point x="697" y="114"/>
      <point x="697" y="0"/>
    </contour>
    <contour>
      <point x="583" y="306" type="curve"/>
      <point x="477" y="306"/>
      <point x="370" y="306"/>
      <point x="264" y="306" type="curve"/>
      <point x="202" y="186"/>
      <point x="264" y="306"/>
      <point x="202" y="186" type="curve"/>
      <point x="345" y="186"/>
      <point x="488" y="186"/>
      <point x="631" y="186" type="curve"/>
      <point x="583" y="306"/>
      <point x="631" y="186"/>
    </contour>
    <contour>
      <point x="789" y="0" type="curve"/>
      <point x="695" y="242"/>
      <point x="593" y="480"/>
      <point x="499" y="722" type="curve"/>
      <point x="360" y="722"/>
      <point x="499" y="722"/>
      <point x="360" y="722" type="curve"/>
      <point x="452" y="483"/>
      <point x="537" y="239"/>
      <point x="630" y="0" type="curve"/>
      <point x="789" y="0"/>
      <point x="630" y="0"/>
    </contour>
    <contour>
      <point x="198" y="0" type="curve"/>
      <point x="301" y="239"/>
      <point x="394" y="483"/>
      <point x="497" y="722" type="curve"/>
      <point x="359" y="722"/>
      <point x="497" y="722"/>
      <point x="359" y="722" type="curve"/>
      <point x="253" y="480"/>
      <point x="137" y="242"/>
      <point x="32" y="0" type="curve"/>
      <point x="198" y="0"/>
      <point x="32" y="0"/>
    </contour>
    <contour>
      <point x="492" y="952" type="curve"/>
      <point x="492" y="915"/>
      <point x="469" y="890"/>
      <point x="427" y="890" type="curve"/>
      <point x="383" y="890"/>
      <point x="359" y="913"/>
      <point x="359" y="953" type="curve"/>
      <point x="269" y="953"/>
      <point x="308" y="953"/>
      <point x="218" y="953" type="curve"/>
      <point x="218" y="840"/>
      <point x="301" y="781"/>
      <point x="424" y="781" type="curve"/>
      <point x="546" y="781"/>
      <point x="633" y="839"/>
      <point x="633" y="952" type="curve"/>
      <point x="543" y="952"/>
      <point x="582" y="952"/>
    </contour>
  </outline>
</glyph>
<glyph name="abreve" format="1">
  <advance width="655"/>
  <unicode hex="0103"/>
  <outline>
    <contour>
      <point x="74" y="462" type="curve"/>
      <point x="74" y="345"/>
      <point x="74" y="458"/>
      <point x="74" y="342" type="curve"/>
      <point x="192" y="342"/>
      <point x="74" y="342"/>
      <point x="192" y="342" type="curve"/>
      <point x="192" y="458"/>
      <point x="192" y="345"/>
      <point x="192" y="462" type="curve"/>
      <point x="74" y="462"/>
      <point x="192" y="462"/>
    </contour>
    <contour>
      <point x="557" y="0" type="curve"/>
      <point x="557" y="123"/>
      <point x="557" y="242"/>
      <point x="557" y="365" type="curve"/>
      <point x="557" y="499"/>
      <point x="450" y="538"/>
      <point x="311" y="538" type="curve"/>
      <point x="209" y="538"/>
      <point x="133" y="507"/>
      <point x="74" y="462" type="curve"/>
      <point x="131" y="365"/>
      <point x="79" y="458"/>
      <point x="136" y="362" type="curve"/>
      <point x="177" y="391"/>
      <point x="220" y="422"/>
      <point x="290" y="422" type="curve"/>
      <point x="354" y="422"/>
      <point x="405" y="407"/>
      <point x="405" y="342" type="curve"/>
      <point x="405" y="228"/>
      <point x="405" y="114"/>
      <point x="405" y="0" type="curve"/>
      <point x="557" y="0"/>
      <point x="405" y="0"/>
    </contour>
    <contour>
      <point x="483" y="0" type="curve"/>
      <point x="529" y="0"/>
      <point x="576" y="0"/>
      <point x="622" y="0" type="curve"/>
      <point x="622" y="114"/>
      <point x="622" y="0"/>
      <point x="622" y="114" type="curve"/>
      <point x="483" y="114"/>
      <point x="622" y="114"/>
      <point x="483" y="114" type="curve"/>
      <point x="483" y="0"/>
      <point x="483" y="114"/>
    </contour>
    <contour>
      <point x="477" y="345" type="curve"/>
      <point x="396" y="336"/>
      <point x="347" y="334"/>
      <point x="267" y="325" type="curve"/>
      <point x="140" y="310"/>
      <point x="45" y="281"/>
      <point x="45" y="162" type="curve"/>
      <point x="45" y="47"/>
      <point x="125" y="-5"/>
      <point x="248" y="-5" type="curve"/>
      <point x="372" y="-5"/>
      <point x="446" y="67"/>
      <point x="515" y="153" type="curve"/>
      <point x="442" y="213"/>
      <point x="515" y="153"/>
      <point x="442" y="213" type="curve"/>
      <point x="409" y="154"/>
      <point x="350" y="108"/>
      <point x="276" y="108" type="curve"/>
      <point x="225" y="108"/>
      <point x="194" y="124"/>
      <point x="194" y="165" type="curve"/>
      <point x="194" y="203"/>
      <point x="228" y="217"/>
      <point x="265" y="221" type="curve"/>
      <point x="352" y="231"/>
      <point x="397" y="238"/>
      <point x="484" y="248" type="curve"/>
      <point x="477" y="345"/>
      <point x="484" y="248"/>
    </contour>
    <contour>
      <point x="378" y="782" type="curve"/>
      <point x="378" y="745"/>
      <point x="355" y="720"/>
      <point x="313" y="720" type="curve"/>
      <point x="270" y="720"/>
      <point x="245" y="743"/>
      <point x="245" y="783" type="curve"/>
      <point x="155" y="783"/>
      <point x="194" y="783"/>
      <point x="104" y="783" type="curve"/>
      <point x="104" y="670"/>
      <point x="187" y="611"/>
      <point x="310" y="611" type="curve"/>
      <point x="433" y="611"/>
      <point x="519" y="669"/>
      <point x="519" y="782" type="curve"/>
      <point x="429" y="782"/>
      <point x="468" y="782"/>
    </contour>
  </outline>
</glyph>
<glyph name="aogonek" format="1">
  <advance width="655"/>
  <unicode hex="0105"/>
  <outline>
    <contour>
      <point x="74" y="462" type="curve"/>
      <point x="74" y="345"/>
      <point x="74" y="458"/>
      <point x="74" y="342" type="curve"/>
      <point x="192" y="342"/>
      <point x="74" y="342"/>
      <point x="192" y="342" type="curve"/>
      <point x="192" y="458"/>
      <point x="192" y="345"/>
      <point x="192" y="462" type="curve"/>
      <point x="74" y="462"/>
      <point x="192" y="462"/>
    </contour>
    <contour>
      <point x="557" y="0" type="curve"/>
      <point x="557" y="123"/>
      <point x="557" y="242"/>
      <point x="557" y="365" type="curve"/>
      <point x="557" y="499"/>
      <point x="450" y="538"/>
      <point x="311" y="538" type="curve"/>
      <point x="209" y="538"/>
      <point x="133" y="507"/>
      <point x="74" y="462" type="curve"/>
      <point x="131" y="365"/>
      <point x="79" y="458"/>
      <point x="136" y="362" type="curve"/>
      <point x="177" y="391"/>
      <point x="220" y="422"/>
      <point x="290" y="422" type="curve"/>
      <point x="354" y="422"/>
      <point x="405" y="407"/>
      <point x="405" y="342" type="curve"/>
      <point x="405" y="228"/>
      <point x="405" y="114"/>
      <point x="405" y="0" type="curve"/>
      <point x="557" y="0"/>
      <point x="405" y="0"/>
    </contour>
    <contour>
      <point x="483" y="0" type="curve"/>
      <point x="529" y="0"/>
      <point x="576" y="0"/>
      <point x="622" y="0" type="curve"/>
      <point x="622" y="114"/>
      <point x="622" y="0"/>
      <point x="622" y="114" type="curve"/>
      <point x="483" y="114"/>
      <point x="622" y="114"/>
      <point x="483" y="114" type="curve"/>
      <point x="483" y="0"/>
      <point x="483" y="114"/>
    </contour>
    <contour>
      <point x="477" y="345" type="curve"/>
      <point x="396" y="336"/>
      <point x="347" y="334"/>
      <point x="267" y="325" type="curve"/>
      <point x="140" y="310"/>
      <point x="45" y="281"/>
      <point x="45" y="162" type="curve"/>
      <point x="45" y="47"/>
      <point x="125" y="-5"/>
      <point x="248" y="-5" type="curve"/>
      <point x="372" y="-5"/>
      <point x="446" y="67"/>
      <point x="515" y="153" type="curve"/>
      <point x="442" y="213"/>
      <point x="515" y="153"/>
      <point x="442" y="213" type="curve"/>
      <point x="409" y="154"/>
      <point x="350" y="108"/>
      <point x="276" y="108" type="curve"/>
      <point x="225" y="108"/>
      <point x="194" y="124"/>
      <point x="194" y="165" type="curve"/>
      <point x="194" y="203"/>
      <point x="228" y="217"/>
      <point x="265" y="221" type="curve"/>
      <point x="352" y="231"/>
      <point x="397" y="238"/>
      <point x="484" y="248" type="curve"/>
      <point x="477" y="345"/>
      <point x="484" y="248"/>
    </contour>
    <contour>
      <point x="503" y="86" type="curve"/>
      <point x="426" y="54"/>
      <point x="354" y="33"/>
      <point x="354" y="-47" type="curve"/>
      <point x="354" y="-130"/>
      <point x="413" y="-176"/>
      <point x="500" y="-176" type="curve"/>
      <point x="546" y="-176"/>
      <point x="576" y="-164"/>
      <point x="616" y="-143" type="curve"/>
      <point x="546" y="-53"/>
      <point x="616" y="-143"/>
      <point x="546" y="-53" type="curve"/>
      <point x="534" y="-58"/>
      <point x="525" y="-65"/>
      <point x="511" y="-65" type="curve"/>
      <point x="498" y="-65"/>
      <point x="487" y="-58"/>
      <point x="487" y="-45" type="curve"/>
      <point x="487" y="-15"/>
      <point x="527" y="-9"/>
      <point x="559" y="6" type="curve"/>
      <point x="503" y="86"/>
      <point x="559" y="6"/>
    </contour>
  </outline>
</glyph>
<glyph name="gbreve" format="1">
  <advance width="631"/>
  <unicode hex="011F"/>
  <outline>
    <contour>
      <point x="440" y="432" type="curve"/>
      <point x="611" y="499" type="line"/>
      <point x="553" y="610" type="line"/>
      <point x="362" y="516" type="line"/>
      <point x="439" y="431"/>
      <point x="362" y="517"/>
    </contour>
    <contour>
      <point x="218" y="336" type="curve"/>
      <point x="218" y="394"/>
      <point x="263" y="424"/>
      <point x="325" y="424" type="curve"/>
      <point x="387" y="424"/>
      <point x="427" y="392"/>
      <point x="427" y="334" type="curve"/>
      <point x="427" y="280"/>
      <point x="386" y="253"/>
      <point x="327" y="253" type="curve"/>
      <point x="266" y="253"/>
      <point x="218" y="278"/>
      <point x="218" y="336" type="curve"/>
      <point x="66" y="330"/>
      <point x="218" y="336"/>
      <point x="66" y="330" type="curve"/>
      <point x="66" y="202"/>
      <point x="177" y="139"/>
      <point x="316" y="139" type="curve"/>
      <point x="463" y="139"/>
      <point x="580" y="204"/>
      <point x="580" y="339" type="curve"/>
      <point x="580" y="471"/>
      <point x="468" y="538"/>
      <point x="325" y="538" type="curve"/>
      <point x="178" y="538"/>
      <point x="66" y="467"/>
      <point x="66" y="330" type="curve"/>
      <point x="218" y="336"/>
      <point x="66" y="330"/>
    </contour>
    <contour>
      <point x="185" y="248" type="curve"/>
      <point x="121" y="218"/>
      <point x="70" y="182"/>
      <point x="70" y="113" type="curve"/>
      <point x="70" y="2"/>
      <point x="182" y="-25"/>
      <point x="306" y="-34" type="curve"/>
      <point x="394" y="-40"/>
      <point x="487" y="-43"/>
      <point x="487" y="-117" type="curve"/>
      <point x="487" y="-178"/>
      <point x="409" y="-191"/>
      <point x="328" y="-191" type="curve"/>
      <point x="251" y="-191"/>
      <point x="183" y="-171"/>
      <point x="183" y="-101" type="curve"/>
      <point x="183" y="-46"/>
      <point x="212" y="-12"/>
      <point x="256" y="4" type="curve"/>
      <point x="180" y="72"/>
      <point x="256" y="4"/>
      <point x="180" y="72" type="curve"/>
      <point x="95" y="42"/>
      <point x="31" y="-10"/>
      <point x="31" y="-107" type="curve"/>
      <point x="31" y="-253"/>
      <point x="164" y="-304"/>
      <point x="321" y="-304" type="curve"/>
      <point x="485" y="-304"/>
      <point x="628" y="-259"/>
      <point x="625" y="-106" type="curve"/>
      <point x="625" y="40"/>
      <point x="485" y="64"/>
      <point x="333" y="74" type="curve"/>
      <point x="278" y="78"/>
      <point x="222" y="84"/>
      <point x="222" y="124" type="curve"/>
      <point x="222" y="150"/>
      <point x="236" y="164"/>
      <point x="259" y="177" type="curve"/>
      <point x="185" y="248"/>
      <point x="259" y="177"/>
    </contour>
    <contour>
      <point x="382" y="782" type="curve"/>
      <point x="382" y="745"/>
      <point x="359" y="720"/>
      <point x="317" y="720" type="curve"/>
      <point x="274" y="720"/>
      <point x="249" y="743"/>
      <point x="249" y="783" type="curve"/>
      <point x="159" y="783"/>
      <point x="198" y="783"/>
      <point x="108" y="783" type="curve"/>
      <point x="108" y="670"/>
      <point x="191" y="611"/>
      <point x="314" y="611" type="curve"/>
      <point x="437" y="611"/>
      <point x="523" y="669"/>
      <point x="523" y="782" type="curve"/>
      <point x="433" y="782"/>
      <point x="472" y="782"/>
    </contour>
  </outline>
</glyph>
<glyph name="Gcommaaccent" format="1">
  <advance width="864"/>
  <unicode hex="0122"/>
  <outline>
    <contour>
      <point x="662" y="646" type="curve"/>
      <point x="662" y="516"/>
      <point x="662" y="624"/>
      <point x="662" y="495" type="curve"/>
      <point x="779" y="495"/>
      <point x="662" y="495"/>
      <point x="779" y="495" type="curve"/>
      <point x="779" y="624"/>
      <point x="779" y="516"/>
      <point x="779" y="646" type="curve"/>
      <point x="662" y="646"/>
      <point x="779" y="646"/>
    </contour>
    <contour>
      <point x="757" y="372" type="curve"/>
      <point x="680" y="372"/>
      <point x="604" y="372"/>
      <point x="527" y="372" type="curve"/>
      <point x="527" y="258"/>
      <point x="527" y="372"/>
      <point x="527" y="258" type="curve"/>
      <point x="604" y="258"/>
      <point x="680" y="258"/>
      <point x="757" y="258" type="curve"/>
      <point x="757" y="372"/>
      <point x="757" y="258"/>
    </contour>
    <contour>
      <point x="797" y="79" type="curve"/>
      <point x="797" y="177"/>
      <point x="797" y="274"/>
      <point x="797" y="372" type="curve"/>
      <point x="659" y="372"/>
      <point x="797" y="372"/>
      <point x="659" y="372" type="curve"/>
      <point x="659" y="274"/>
      <point x="659" y="177"/>
      <point x="659" y="79" type="curve"/>
      <point x="797" y="79"/>
      <point x="659" y="79"/>
    </contour>
    <contour>
      <point x="779" y="646" type="curve"/>
      <point x="674" y="703"/>
      <point x="580" y="727"/>
      <point x="460" y="727" type="curve"/>
      <point x="212" y="727"/>
      <point x="53" y="602"/>
      <point x="53" y="359" type="curve"/>
      <point x="53" y="115"/>
      <point x="219" y="-5"/>
      <point x="471" y="-5" type="curve"/>
      <point x="600" y="-5"/>
      <point x="682" y="23"/>
      <point x="797" y="79" type="curve"/>
      <point x="721" y="164"/>
      <point x="797" y="79"/>
      <point x="721" y="164" type="curve"/>
      <point x="634" y="123"/>
      <point x="567" y="114"/>
      <point x="471" y="114" type="curve"/>
      <point x="303" y="114"/>
      <point x="206" y="204"/>
      <point x="206" y="371" type="curve"/>
      <point x="206" y="526"/>
      <point x="302" y="608"/>
      <point x="460" y="608" type="curve"/>
      <point x="551" y="608"/>
      <point x="623" y="592"/>
      <point x="703" y="548" type="curve"/>
      <point x="779" y="646"/>
      <point x="703" y="548"/>
    </contour>
    <contour>
      <point x="399" y="-396" type="line"/>
      <point x="510" y="-396"/>
      <point x="586" y="-323"/>
      <point x="586" y="-214" type="curve"/>
      <point x="586" y="-130"/>
      <point x="547" y="-74"/>
      <point x="488" y="-74" type="curve"/>
      <point x="440" y="-74"/>
      <point x="405" y="-99"/>
      <point x="405" y="-148" type="curve"/>
      <point x="405" y="-193"/>
      <point x="437" y="-221"/>
      <point x="486" y="-221" type="curve"/>
      <point x="485" y="-259"/>
      <point x="473" y="-305"/>
      <point x="399" y="-316" type="curve"/>
    </contour>
  </outline>
</glyph>
<glyph name="imacron" format="1">
  <advance width="381"/>
  <unicode hex="012B"/>
  <outline>
    <contour>
      <point x="196" y="114" type="curve"/>
      <point x="45" y="114"/>
      <point x="196" y="114"/>
      <point x="45" y="114" type="curve"/>
      <point x="45" y="0"/>
      <point x="45" y="114"/>
      <point x="45" y="0" type="curve"/>
      <point x="95" y="0"/>
      <point x="146" y="0"/>
      <point x="196" y="0" type="curve"/>
      <point x="196" y="114"/>
      <point x="196" y="0"/>
    </contour>
    <contour>
      <point x="196" y="0" type="curve"/>
      <point x="245" y="0"/>
      <point x="294" y="0"/>
      <point x="343" y="0" type="curve"/>
      <point x="343" y="114"/>
      <point x="343" y="0"/>
      <point x="343" y="114" type="curve"/>
      <point x="196" y="114"/>
      <point x="343" y="114"/>
      <point x="196" y="114" type="curve"/>
      <point x="196" y="0"/>
      <point x="196" y="114"/>
    </contour>
    <contour>
      <point x="196" y="533" type="curve"/>
      <point x="146" y="533"/>
      <point x="95" y="533"/>
      <point x="45" y="533" type="curve"/>
      <point x="45" y="419"/>
      <point x="45" y="533"/>
      <point x="45" y="419" type="curve"/>
      <point x="196" y="419"/>
      <point x="45" y="419"/>
      <point x="196" y="419" type="curve"/>
      <point x="196" y="533"/>
      <point x="196" y="419"/>
    </contour>
    <contour>
      <point x="277" y="0" type="curve"/>
      <point x="277" y="178"/>
      <point x="277" y="355"/>
      <point x="277" y="533" type="curve"/>
      <point x="117" y="533"/>
      <point x="277" y="533"/>
      <point x="117" y="533" type="curve"/>
      <point x="117" y="355"/>
      <point x="117" y="178"/>
      <point x="117" y="0" type="curve"/>
      <point x="277" y="0"/>
      <point x="117" y="0"/>
    </contour>
    <contour>
      <point x="315" y="724" type="curve"/>
      <point x="237" y="724"/>
      <point x="159" y="724"/>
      <point x="80" y="724" type="curve"/>
      <point x="80" y="610"/>
      <point x="80" y="724"/>
      <point x="80" y="610" type="curve"/>
      <point x="159" y="610"/>
      <point x="237" y="610"/>
      <point x="315" y="610" type="curve"/>
      <point x="315" y="724"/>
      <point x="315" y="610"/>
    </contour>
  </outline>
</glyph>
<glyph name="Idotaccent" format="1">
  <advance width="390"/>
  <unicode hex="0130"/>
  <outline>
    <contour>
      <point x="196" y="722" type="curve"/>
      <point x="140" y="722"/>
      <point x="100" y="722"/>
      <point x="44" y="722" type="curve"/>
      <point x="44" y="608"/>
      <point x="44" y="722"/>
      <point x="44" y="608" type="curve"/>
      <point x="212" y="608"/>
      <point x="28" y="608"/>
      <point x="196" y="608" type="curve"/>
      <point x="196" y="722"/>
      <point x="196" y="608"/>
    </contour>
    <contour>
      <point x="196" y="608" type="curve"/>
      <point x="363" y="608"/>
      <point x="180" y="608"/>
      <point x="347" y="608" type="curve"/>
      <point x="347" y="722"/>
      <point x="347" y="608"/>
      <point x="347" y="722" type="curve"/>
      <point x="291" y="722"/>
      <point x="251" y="722"/>
      <point x="196" y="722" type="curve"/>
      <point x="196" y="608"/>
      <point x="196" y="722"/>
    </contour>
    <contour>
      <point x="196" y="0" type="curve"/>
      <point x="251" y="0"/>
      <point x="291" y="0"/>
      <point x="347" y="0" type="curve"/>
      <point x="347" y="114"/>
      <point x="347" y="0"/>
      <point x="347" y="114" type="curve"/>
      <point x="180" y="114"/>
      <point x="363" y="114"/>
      <point x="196" y="114" type="curve"/>
      <point x="196" y="0"/>
      <point x="196" y="114"/>
    </contour>
    <contour>
      <point x="196" y="114" type="curve"/>
      <point x="28" y="114"/>
      <point x="212" y="114"/>
      <point x="44" y="114" type="curve"/>
      <point x="44" y="0"/>
      <point x="44" y="114"/>
      <point x="44" y="0" type="curve"/>
      <point x="100" y="0"/>
      <point x="140" y="0"/>
      <point x="196" y="0" type="curve"/>
      <point x="196" y="114"/>
      <point x="196" y="0"/>
    </contour>
    <contour>
      <point x="271" y="0" type="curve"/>
      <point x="271" y="241"/>
      <point x="271" y="481"/>
      <point x="271" y="722" type="curve"/>
      <point x="118" y="722"/>
      <point x="271" y="722"/>
      <point x="118" y="722" type="curve"/>
      <point x="118" y="481"/>
      <point x="118" y="241"/>
      <point x="118" y="0" type="curve"/>
      <point x="271" y="0"/>
      <point x="118" y="0"/>
    </contour>
    <contour>
      <point x="284" y="841" type="curve"/>
      <point x="284" y="891"/>
      <point x="247" y="915"/>
      <point x="198" y="915" type="curve"/>
      <point x="148" y="915"/>
      <point x="114" y="889"/>
      <point x="114" y="841" type="curve"/>
      <point x="284" y="841"/>
      <point x="114" y="841"/>
      <point x="284" y="841" type="curve"/>
      <point x="284" y="790"/>
      <point x="248" y="768"/>
      <point x="198" y="768" type="curve"/>
      <point x="147" y="768"/>
      <point x="114" y="792"/>
      <point x="114" y="841" type="curve"/>
      <point x="284" y="841"/>
      <point x="114" y="841"/>
    </contour>
  </outline>
</glyph>
<glyph name="dotlessi" format="1">
  <advance width="395"/>
  <unicode hex="0131"/>
  <outline>
    <contour>
      <point x="211" y="610" type="move" name="top"/>
    </contour>
    <contour>
      <point x="208" y="114" type="curve"/>
      <point x="57" y="114"/>
      <point x="208" y="114"/>
      <point x="57" y="114" type="curve"/>
      <point x="56" y="0"/>
      <point x="57" y="114"/>
      <point x="56" y="0" type="curve"/>
      <point x="107" y="0"/>
      <point x="158" y="0"/>
      <point x="208" y="0" type="curve"/>
      <point x="208" y="114"/>
      <point x="208" y="0"/>
    </contour>
    <contour>
      <point x="208" y="0" type="curve"/>
      <point x="257" y="0"/>
      <point x="306" y="0"/>
      <point x="355" y="0" type="curve"/>
      <point x="355" y="114"/>
      <point x="355" y="0"/>
      <point x="355" y="114" type="curve"/>
      <point x="208" y="114"/>
      <point x="355" y="114"/>
      <point x="208" y="114" type="curve"/>
      <point x="208" y="0"/>
      <point x="208" y="114"/>
    </contour>
    <contour>
      <point x="208" y="533" type="curve"/>
      <point x="158" y="533"/>
      <point x="107" y="533"/>
      <point x="57" y="533" type="curve"/>
      <point x="56" y="419"/>
      <point x="57" y="533"/>
      <point x="56" y="419" type="curve"/>
      <point x="208" y="419"/>
      <point x="56" y="419"/>
      <point x="208" y="419" type="curve"/>
      <point x="208" y="533"/>
      <point x="208" y="419"/>
    </contour>
    <contour>
      <point x="288" y="0" type="curve"/>
      <point x="288" y="178"/>
      <point x="288" y="355"/>
      <point x="288" y="533" type="curve"/>
      <point x="129" y="533"/>
      <point x="288" y="533"/>
      <point x="129" y="533" type="curve"/>
      <point x="129" y="355"/>
      <point x="129" y="178"/>
      <point x="129" y="0" type="curve"/>
      <point x="288" y="0"/>
      <point x="129" y="0"/>
    </contour>
  </outline>
</glyph>
<glyph name="Lcommaaccent" format="1">
  <advance width="652"/>
  <unicode hex="013B"/>
  <outline>
    <contour>
      <point x="634" y="57" type="curve"/>
      <point x="634" y="177"/>
      <point x="634" y="57"/>
      <point x="634" y="177" type="curve"/>
      <point x="516" y="177"/>
      <point x="634" y="177"/>
      <point x="516" y="177" type="curve"/>
      <point x="516" y="57"/>
      <point x="516" y="177"/>
      <point x="516" y="57" type="curve"/>
      <point x="634" y="57"/>
      <point x="516" y="57"/>
    </contour>
    <contour>
      <point x="195" y="114" type="curve"/>
      <point x="27" y="114"/>
      <point x="210" y="114"/>
      <point x="43" y="114" type="curve"/>
      <point x="43" y="0"/>
      <point x="43" y="114"/>
      <point x="43" y="0" type="curve"/>
      <point x="98" y="0"/>
      <point x="138" y="0"/>
      <point x="195" y="0" type="curve"/>
      <point x="195" y="114"/>
      <point x="195" y="0"/>
    </contour>
    <contour>
      <point x="195" y="722" type="curve"/>
      <point x="138" y="722"/>
      <point x="98" y="722"/>
      <point x="43" y="722" type="curve"/>
      <point x="43" y="608"/>
      <point x="43" y="722"/>
      <point x="43" y="608" type="curve"/>
      <point x="210" y="608"/>
      <point x="27" y="608"/>
      <point x="195" y="608" type="curve"/>
      <point x="195" y="722"/>
      <point x="195" y="608"/>
    </contour>
    <contour>
      <point x="195" y="608" type="curve"/>
      <point x="362" y="608"/>
      <point x="179" y="608"/>
      <point x="346" y="608" type="curve"/>
      <point x="346" y="722"/>
      <point x="346" y="608"/>
      <point x="346" y="722" type="curve"/>
      <point x="290" y="722"/>
      <point x="250" y="722"/>
      <point x="195" y="722" type="curve"/>
      <point x="195" y="608"/>
      <point x="195" y="722"/>
    </contour>
    <contour>
      <point x="271" y="0" type="curve"/>
      <point x="271" y="241"/>
      <point x="271" y="481"/>
      <point x="271" y="722" type="curve"/>
      <point x="119" y="722"/>
      <point x="271" y="722"/>
      <point x="119" y="722" type="curve"/>
      <point x="119" y="481"/>
      <point x="119" y="241"/>
      <point x="119" y="0" type="curve"/>
      <point x="271" y="0"/>
      <point x="119" y="0"/>
    </contour>
    <contour>
      <point x="195" y="0" type="curve"/>
      <point x="341" y="0"/>
      <point x="487" y="0"/>
      <point x="634" y="0" type="curve"/>
      <point x="634" y="114"/>
      <point x="634" y="0"/>
      <point x="634" y="114" type="curve"/>
      <point x="487" y="114"/>
      <point x="341" y="114"/>
      <point x="195" y="114" type="curve"/>
      <point x="195" y="0"/>
      <point x="195" y="114"/>
    </contour>
    <contour>
      <point x="240" y="-385" type="line"/>
      <point x="351" y="-385"/>
      <point x="427" y="-313"/>
      <point x="427" y="-204" type="curve"/>
      <point x="427" y="-119"/>
      <point x="388" y="-63"/>
      <point x="329" y="-63" type="curve"/>
      <point x="280" y="-63"/>
      <point x="246" y="-89"/>
      <point x="246" y="-137" type="curve"/>
      <point x="246" y="-183"/>
      <point x="278" y="-211"/>
      <point x="327" y="-211" type="curve"/>
      <point x="326" y="-249"/>
      <point x="314" y="-295"/>
      <point x="240" y="-305" type="curve"/>
    </contour>
  </outline>
</glyph>
<glyph name="Lcaron" format="1">
  <advance width="668"/>
  <unicode hex="013D"/>
  <outline>
    <contour>
      <point x="634" y="57" type="curve"/>
      <point x="634" y="177"/>
      <point x="634" y="57"/>
      <point x="634" y="177" type="curve"/>
      <point x="516" y="177"/>
      <point x="634" y="177"/>
      <point x="516" y="177" type="curve"/>
      <point x="516" y="57"/>
      <point x="516" y="177"/>
      <point x="516" y="57" type="curve"/>
      <point x="634" y="57"/>
      <point x="516" y="57"/>
    </contour>
    <contour>
      <point x="195" y="114" type="curve"/>
      <point x="27" y="114"/>
      <point x="210" y="114"/>
      <point x="43" y="114" type="curve"/>
      <point x="43" y="0"/>
      <point x="43" y="114"/>
      <point x="43" y="0" type="curve"/>
      <point x="98" y="0"/>
      <point x="138" y="0"/>
      <point x="195" y="0" type="curve"/>
      <point x="195" y="114"/>
      <point x="195" y="0"/>
    </contour>
    <contour>
      <point x="195" y="722" type="curve"/>
      <point x="138" y="722"/>
      <point x="98" y="722"/>
      <point x="43" y="722" type="curve"/>
      <point x="43" y="608"/>
      <point x="43" y="722"/>
      <point x="43" y="608" type="curve"/>
      <point x="210" y="608"/>
      <point x="27" y="608"/>
      <point x="195" y="608" type="curve"/>
      <point x="195" y="722"/>
      <point x="195" y="608"/>
    </contour>
    <contour>
      <point x="195" y="608" type="curve"/>
      <point x="362" y="608"/>
      <point x="179" y="608"/>
      <point x="346" y="608" type="curve"/>
      <point x="346" y="722"/>
      <point x="346" y="608"/>
      <point x="346" y="722" type="curve"/>
      <point x="290" y="722"/>
      <point x="250" y="722"/>
      <point x="195" y="722" type="curve"/>
      <point x="195" y="608"/>
      <point x="195" y="722"/>
    </contour>
    <contour>
      <point x="271" y="0" type="curve"/>
      <point x="271" y="241"/>
      <point x="271" y="481"/>
      <point x="271" y="722" type="curve"/>
      <point x="119" y="722"/>
      <point x="271" y="722"/>
      <point x="119" y="722" type="curve"/>
      <point x="119" y="481"/>
      <point x="119" y="241"/>
      <point x="119" y="0" type="curve"/>
      <point x="271" y="0"/>
      <point x="119" y="0"/>
    </contour>
    <contour>
      <point x="195" y="0" type="curve"/>
      <point x="341" y="0"/>
      <point x="487" y="0"/>
      <point x="634" y="0" type="curve"/>
      <point x="634" y="114"/>
      <point x="634" y="0"/>
      <point x="634" y="114" type="curve"/>
      <point x="487" y="114"/>
      <point x="341" y="114"/>
      <point x="195" y="114" type="curve"/>
      <point x="195" y="0"/>
      <point x="195" y="114"/>
    </contour>
    <contour>
      <point x="483" y="474" type="line"/>
      <point x="594" y="474"/>
      <point x="670" y="546"/>
      <point x="670" y="655" type="curve"/>
      <point x="670" y="740"/>
      <point x="631" y="796"/>
      <point x="572" y="796" type="curve"/>
      <point x="523" y="796"/>
      <point x="488" y="770"/>
      <point x="488" y="722" type="curve"/>
      <point x="488" y="676"/>
      <point x="521" y="648"/>
      <point x="570" y="648" type="curve"/>
      <point x="569" y="610"/>
      <point x="557" y="564"/>
      <point x="483" y="554" type="curve"/>
    </contour>
  </outline>
</glyph>
<glyph name="lcaron" format="1">
  <advance width="397"/>
  <unicode hex="013E"/>
  <outline>
    <contour>
      <point x="189" y="113" type="curve"/>
      <point x="22" y="114"/>
      <point x="189" y="113"/>
      <point x="22" y="114" type="curve"/>
      <point x="22" y="0"/>
      <point x="22" y="114"/>
      <point x="22" y="0" type="curve"/>
      <point x="78" y="0"/>
      <point x="133" y="-1"/>
      <point x="189" y="-1" type="curve"/>
      <point x="189" y="114"/>
      <point x="189" y="-1"/>
    </contour>
    <contour>
      <point x="191" y="799" type="curve"/>
      <point x="135" y="799"/>
      <point x="79" y="800"/>
      <point x="24" y="800" type="curve"/>
      <point x="24" y="686"/>
      <point x="24" y="800"/>
      <point x="24" y="686" type="curve"/>
      <point x="191" y="686"/>
      <point x="24" y="686"/>
      <point x="191" y="686" type="curve"/>
      <point x="191" y="799"/>
      <point x="191" y="686"/>
    </contour>
    <contour>
      <point x="189" y="-1" type="curve"/>
      <point x="245" y="-1"/>
      <point x="300" y="0"/>
      <point x="357" y="0" type="curve"/>
      <point x="357" y="114"/>
      <point x="357" y="0"/>
      <point x="357" y="114" type="curve"/>
      <point x="189" y="113"/>
      <point x="357" y="114"/>
      <point x="189" y="113" type="curve"/>
      <point x="189" y="-1"/>
      <point x="189" y="114"/>
    </contour>
    <contour>
      <point x="264" y="0" type="curve"/>
      <point x="264" y="267"/>
      <point x="264" y="533"/>
      <point x="264" y="800" type="curve"/>
      <point x="112" y="800"/>
      <point x="264" y="800"/>
      <point x="112" y="800" type="curve"/>
      <point x="112" y="533"/>
      <point x="112" y="267"/>
      <point x="112" y="0" type="curve"/>
      <point x="264" y="0"/>
      <point x="112" y="0"/>
    </contour>
    <contour>
      <point x="388" y="553" type="line"/>
      <point x="499" y="553"/>
      <point x="575" y="625"/>
      <point x="575" y="734" type="curve"/>
      <point x="575" y="819"/>
      <point x="536" y="875"/>
      <point x="477" y="875" type="curve"/>
      <point x="429" y="875"/>
      <point x="394" y="849"/>
      <point x="394" y="801" type="curve"/>
      <point x="394" y="755"/>
      <point x="426" y="727"/>
      <point x="475" y="727" type="curve"/>
      <point x="474" y="689"/>
      <point x="462" y="643"/>
      <point x="388" y="633" type="curve"/>
    </contour>
  </outline>
</glyph>
<glyph name="Nacute" format="1">
  <advance width="937"/>
  <unicode hex="0143"/>
  <outline>
    <contour>
      <point x="194" y="722" type="curve"/>
      <point x="139" y="722"/>
      <point x="99" y="722"/>
      <point x="44" y="722" type="curve"/>
      <point x="44" y="608"/>
      <point x="44" y="722"/>
      <point x="44" y="608" type="curve"/>
      <point x="210" y="608"/>
      <point x="28" y="608"/>
      <point x="194" y="608" type="curve"/>
      <point x="194" y="722"/>
      <point x="194" y="608"/>
    </contour>
    <contour>
      <point x="751" y="608" type="curve"/>
      <point x="916" y="608"/>
      <point x="735" y="608"/>
      <point x="900" y="608" type="curve"/>
      <point x="900" y="722"/>
      <point x="900" y="608"/>
      <point x="900" y="722" type="curve"/>
      <point x="844" y="722"/>
      <point x="805" y="722"/>
      <point x="751" y="722" type="curve"/>
      <point x="751" y="608"/>
      <point x="751" y="722"/>
    </contour>
    <contour>
      <point x="761" y="722" type="curve"/>
      <point x="707" y="722"/>
      <point x="668" y="722"/>
      <point x="614" y="722" type="curve"/>
      <point x="614" y="608"/>
      <point x="614" y="722"/>
      <point x="614" y="608" type="curve"/>
      <point x="777" y="608"/>
      <point x="598" y="608"/>
      <point x="761" y="608" type="curve"/>
      <point x="761" y="722"/>
      <point x="761" y="608"/>
    </contour>
    <contour>
      <point x="193" y="114" type="curve"/>
      <point x="27" y="114"/>
      <point x="209" y="114"/>
      <point x="43" y="114" type="curve"/>
      <point x="43" y="0"/>
      <point x="43" y="114"/>
      <point x="43" y="0" type="curve"/>
      <point x="98" y="0"/>
      <point x="137" y="0"/>
      <point x="193" y="0" type="curve"/>
      <point x="193" y="114"/>
      <point x="193" y="0"/>
    </contour>
    <contour>
      <point x="193" y="0" type="curve"/>
      <point x="246" y="0"/>
      <point x="177" y="0"/>
      <point x="339" y="0" type="curve"/>
      <point x="339" y="114"/>
      <point x="339" y="0"/>
      <point x="339" y="114" type="curve"/>
      <point x="177" y="114"/>
      <point x="355" y="114"/>
      <point x="193" y="114" type="curve"/>
      <point x="193" y="0"/>
      <point x="193" y="114"/>
    </contour>
    <contour>
      <point x="834" y="0" type="curve"/>
      <point x="649" y="240"/>
      <point x="467" y="482"/>
      <point x="282" y="722" type="curve"/>
      <point x="108" y="722"/>
      <point x="282" y="722"/>
      <point x="108" y="722" type="curve"/>
      <point x="292" y="482"/>
      <point x="475" y="240"/>
      <point x="660" y="0" type="curve"/>
      <point x="834" y="0"/>
      <point x="660" y="0"/>
    </contour>
    <contour>
      <point x="684" y="722" type="curve"/>
      <point x="684" y="481"/>
      <point x="684" y="241"/>
      <point x="684" y="0" type="curve"/>
      <point x="836" y="0"/>
      <point x="684" y="0"/>
      <point x="836" y="0" type="curve"/>
      <point x="836" y="241"/>
      <point x="836" y="481"/>
      <point x="836" y="722" type="curve"/>
      <point x="684" y="722"/>
      <point x="836" y="722"/>
    </contour>
    <contour>
      <point x="268" y="0" type="curve"/>
      <point x="268" y="241"/>
      <point x="268" y="481"/>
      <point x="268" y="722" type="curve"/>
      <point x="116" y="722"/>
      <point x="268" y="722"/>
      <point x="116" y="722" type="curve"/>
      <point x="116" y="481"/>
      <point x="116" y="241"/>
      <point x="116" y="0" type="curve"/>
      <point x="268" y="0"/>
      <point x="116" y="0"/>
    </contour>
    <contour>
      <point x="534" y="779" type="line"/>
      <point x="695" y="945" type="line"/>
      <point x="502" y="945" type="line"/>
      <point x="386" y="779" type="line"/>
    </contour>
  </outline>
</glyph>
<glyph name="Ncaron" format="1">
  <advance width="937"/>
  <unicode hex="0147"/>
  <outline>
    <contour>
      <point x="194" y="722" type="curve"/>
      <point x="139" y="722"/>
      <point x="99" y="722"/>
      <point x="44" y="722" type="curve"/>
      <point x="44" y="608"/>
      <point x="44" y="722"/>
      <point x="44" y="608" type="curve"/>
      <point x="210" y="608"/>
      <point x="28" y="608"/>
      <point x="194" y="608" type="curve"/>
      <point x="194" y="722"/>
      <point x="194" y="608"/>
    </contour>
    <contour>
      <point x="751" y="608" type="curve"/>
      <point x="916" y="608"/>
      <point x="735" y="608"/>
      <point x="900" y="608" type="curve"/>
      <point x="900" y="722"/>
      <point x="900" y="608"/>
      <point x="900" y="722" type="curve"/>
      <point x="844" y="722"/>
      <point x="805" y="722"/>
      <point x="751" y="722" type="curve"/>
      <point x="751" y="608"/>
      <point x="751" y="722"/>
    </contour>
    <contour>
      <point x="761" y="722" type="curve"/>
      <point x="707" y="722"/>
      <point x="668" y="722"/>
      <point x="614" y="722" type="curve"/>
      <point x="614" y="608"/>
      <point x="614" y="722"/>
      <point x="614" y="608" type="curve"/>
      <point x="777" y="608"/>
      <point x="598" y="608"/>
      <point x="761" y="608" type="curve"/>
      <point x="761" y="722"/>
      <point x="761" y="608"/>
    </contour>
    <contour>
      <point x="193" y="114" type="curve"/>
      <point x="27" y="114"/>
      <point x="209" y="114"/>
      <point x="43" y="114" type="curve"/>
      <point x="43" y="0"/>
      <point x="43" y="114"/>
      <point x="43" y="0" type="curve"/>
      <point x="98" y="0"/>
      <point x="137" y="0"/>
      <point x="193" y="0" type="curve"/>
      <point x="193" y="114"/>
      <point x="193" y="0"/>
    </contour>
    <contour>
      <point x="193" y="0" type="curve"/>
      <point x="246" y="0"/>
      <point x="177" y="0"/>
      <point x="339" y="0" type="curve"/>
      <point x="339" y="114"/>
      <point x="339" y="0"/>
      <point x="339" y="114" type="curve"/>
      <point x="177" y="114"/>
      <point x="355" y="114"/>
      <point x="193" y="114" type="curve"/>
      <point x="193" y="0"/>
      <point x="193" y="114"/>
    </contour>
    <contour>
      <point x="834" y="0" type="curve"/>
      <point x="649" y="240"/>
      <point x="467" y="482"/>
      <point x="282" y="722" type="curve"/>
      <point x="108" y="722"/>
      <point x="282" y="722"/>
      <point x="108" y="722" type="curve"/>
      <point x="292" y="482"/>
      <point x="475" y="240"/>
      <point x="660" y="0" type="curve"/>
      <point x="834" y="0"/>
      <point x="660" y="0"/>
    </contour>
    <contour>
      <point x="684" y="722" type="curve"/>
      <point x="684" y="481"/>
      <point x="684" y="241"/>
      <point x="684" y="0" type="curve"/>
      <point x="836" y="0"/>
      <point x="684" y="0"/>
      <point x="836" y="0" type="curve"/>
      <point x="836" y="241"/>
      <point x="836" y="481"/>
      <point x="836" y="722" type="curve"/>
      <point x="684" y="722"/>
      <point x="836" y="722"/>
    </contour>
    <contour>
      <point x="268" y="0" type="curve"/>
      <point x="268" y="241"/>
      <point x="268" y="481"/>
      <point x="268" y="722" type="curve"/>
      <point x="116" y="722"/>
      <point x="268" y="722"/>
      <point x="116" y="722" type="curve"/>
      <point x="116" y="481"/>
      <point x="116" y="241"/>
      <point x="116" y="0" type="curve"/>
      <point x="268" y="0"/>
      <point x="116" y="0"/>
    </contour>
    <contour>
      <point x="571" y="946" type="line"/>
      <point x="410" y="780" type="line"/>
      <point x="603" y="780" type="line"/>
      <point x="719" y="946" type="line"/>
    </contour>
    <contour>
      <point x="227" y="946" type="line"/>
      <point x="345" y="780" type="line"/>
      <point x="538" y="780" type="line"/>
      <point x="377" y="946" type="line"/>
    </contour>
  </outline>
</glyph>
<glyph name="ohungarumlaut" format="1">
  <advance width="676"/>
  <unicode hex="0151"/>
  <outline>
    <contour>
      <point x="190" y="267" type="curve"/>
      <point x="190" y="357"/>
      <point x="236" y="422"/>
      <point x="330" y="422" type="curve"/>
      <point x="429" y="422"/>
      <point x="480" y="358"/>
      <point x="480" y="266" type="curve"/>
      <point x="480" y="169"/>
      <point x="431" y="111"/>
      <point x="341" y="111" type="curve"/>
      <point x="241" y="112"/>
      <point x="190" y="169"/>
      <point x="190" y="267" type="curve"/>
      <point x="104" y="267"/>
      <point x="127" y="267"/>
      <point x="42" y="267" type="curve"/>
      <point x="42" y="91"/>
      <point x="156" y="-5"/>
      <point x="334" y="-5" type="curve"/>
      <point x="514" y="-5"/>
      <point x="632" y="88"/>
      <point x="632" y="266" type="curve"/>
      <point x="632" y="438"/>
      <point x="519" y="538"/>
      <point x="338" y="538" type="curve"/>
      <point x="156" y="538"/>
      <point x="42" y="438"/>
      <point x="42" y="267" type="curve"/>
      <point x="127" y="267"/>
      <point x="104" y="267"/>
    </contour>
    <contour>
      <point x="270" y="611" type="line"/>
      <point x="431" y="777" type="line"/>
      <point x="238" y="777" type="line"/>
      <point x="122" y="611" type="line"/>
    </contour>
    <contour>
      <point x="507" y="611" type="line"/>
      <point x="668" y="777" type="line"/>
      <point x="475" y="777" type="line"/>
      <point x="359" y="611" type="line"/>
    </contour>
  </outline>
</glyph>
<glyph name="scedilla" format="1">
  <advance width="576"/>
  <unicode hex="015F"/>
  <outline>
    <contour>
      <point x="56" y="46" type="curve"/>
      <point x="136" y="14"/>
      <point x="201" y="-5"/>
      <point x="284" y="-5" type="curve"/>
      <point x="427" y="-5"/>
      <point x="534" y="38"/>
      <point x="534" y="163" type="curve"/>
      <point x="534" y="278"/>
      <point x="430" y="297"/>
      <point x="306" y="329" type="curve"/>
      <point x="251" y="342"/>
      <point x="197" y="354"/>
      <point x="197" y="387" type="curve"/>
      <point x="197" y="409"/>
      <point x="232" y="422"/>
      <point x="275" y="422" type="curve"/>
      <point x="322" y="422"/>
      <point x="380" y="406"/>
      <point x="412" y="390" type="curve"/>
      <point x="481" y="493"/>
      <point x="412" y="390"/>
      <point x="481" y="493" type="curve"/>
      <point x="435" y="517"/>
      <point x="349" y="538"/>
      <point x="280" y="538" type="curve"/>
      <point x="152" y="538"/>
      <point x="59" y="497"/>
      <point x="59" y="387" type="curve"/>
      <point x="59" y="282"/>
      <point x="143" y="248"/>
      <point x="257" y="219" type="curve"/>
      <point x="321" y="203"/>
      <point x="388" y="195"/>
      <point x="388" y="157" type="curve"/>
      <point x="388" y="129"/>
      <point x="347" y="113"/>
      <point x="300" y="113" type="curve"/>
      <point x="236" y="113"/>
      <point x="193" y="125"/>
      <point x="133" y="149" type="curve"/>
      <point x="56" y="46"/>
      <point x="133" y="149"/>
    </contour>
    <contour>
      <point x="363" y="493" type="curve"/>
      <point x="363" y="367"/>
      <point x="363" y="483"/>
      <point x="363" y="358" type="curve"/>
      <point x="481" y="358"/>
      <point x="363" y="358"/>
      <point x="481" y="358" type="curve"/>
      <point x="481" y="483"/>
      <point x="481" y="367"/>
      <point x="481" y="493" type="curve"/>
      <point x="363" y="493"/>
      <point x="481" y="493"/>
    </contour>
    <contour>
      <point x="172" y="46" type="curve"/>
      <point x="172" y="174"/>
      <point x="172" y="61"/>
      <point x="172" y="188" type="curve"/>
      <point x="54" y="188"/>
      <point x="172" y="188"/>
      <point x="54" y="188" type="curve"/>
      <point x="54" y="61"/>
      <point x="54" y="174"/>
      <point x="54" y="46" type="curve"/>
      <point x="172" y="46"/>
      <point x="54" y="46"/>
    </contour>
    <contour>
      <point x="238" y="87" type="curve"/>
      <point x="224" y="66"/>
      <point x="161" y="-36"/>
      <point x="147" y="-57" type="curve"/>
      <point x="251" y="-149"/>
      <point x="147" y="-57"/>
      <point x="251" y="-149" type="curve"/>
      <point x="268" y="-123"/>
      <point x="338" y="-18"/>
      <point x="355" y="8" type="curve"/>
      <point x="238" y="87"/>
      <point x="355" y="8"/>
    </contour>
    <contour>
      <point x="251" y="-149" type="curve"/>
      <point x="255" y="-145"/>
      <point x="259" y="-142"/>
      <point x="265" y="-142" type="curve"/>
      <point x="272" y="-142"/>
      <point x="278" y="-145"/>
      <point x="278" y="-153" type="curve"/>
      <point x="278" y="-165"/>
      <point x="265" y="-169"/>
      <point x="251" y="-169" type="curve"/>
      <point x="228" y="-169"/>
      <point x="209" y="-162"/>
      <point x="181" y="-150" type="curve"/>
      <point x="133" y="-235"/>
      <point x="181" y="-150"/>
      <point x="133" y="-235" type="curve"/>
      <point x="170" y="-253"/>
      <point x="202" y="-263"/>
      <point x="244" y="-263" type="curve"/>
      <point x="332" y="-263"/>
      <point x="399" y="-231"/>
      <point x="399" y="-149" type="curve"/>
      <point x="399" y="-73"/>
      <point x="342" y="-33"/>
      <point x="263" y="-33" type="curve"/>
      <point x="219" y="-33"/>
      <point x="188" y="-41"/>
      <point x="147" y="-57" type="curve"/>
      <point x="251" y="-149"/>
      <point x="147" y="-57"/>
    </contour>
  </outline>
</glyph>
<glyph name="Tcommaaccent" format="1">
  <advance width="693"/>
  <unicode hex="0162"/>
  <outline>
    <contour>
      <point x="24" y="664" type="curve"/>
      <point x="24" y="544"/>
      <point x="24" y="664"/>
      <point x="24" y="544" type="curve"/>
      <point x="140" y="544"/>
      <point x="24" y="544"/>
      <point x="140" y="544" type="curve"/>
      <point x="140" y="664"/>
      <point x="140" y="544"/>
      <point x="140" y="664" type="curve"/>
      <point x="24" y="664"/>
      <point x="140" y="664"/>
    </contour>
    <contour>
      <point x="552" y="664" type="curve"/>
      <point x="552" y="544"/>
      <point x="552" y="664"/>
      <point x="552" y="544" type="curve"/>
      <point x="669" y="544"/>
      <point x="552" y="544"/>
      <point x="669" y="544" type="curve"/>
      <point x="669" y="664"/>
      <point x="669" y="544"/>
      <point x="669" y="664" type="curve"/>
      <point x="552" y="664"/>
      <point x="669" y="664"/>
    </contour>
    <contour>
      <point x="345" y="0" type="curve"/>
      <point x="396" y="0"/>
      <point x="446" y="0"/>
      <point x="497" y="0" type="curve"/>
      <point x="497" y="114"/>
      <point x="497" y="0"/>
      <point x="497" y="114" type="curve"/>
      <point x="345" y="114"/>
      <point x="497" y="114"/>
      <point x="345" y="114" type="curve"/>
      <point x="345" y="0"/>
      <point x="345" y="114"/>
    </contour>
    <contour>
      <point x="345" y="114" type="curve"/>
      <point x="194" y="114"/>
      <point x="345" y="114"/>
      <point x="194" y="114" type="curve"/>
      <point x="194" y="0"/>
      <point x="194" y="114"/>
      <point x="194" y="0" type="curve"/>
      <point x="244" y="0"/>
      <point x="295" y="0"/>
      <point x="345" y="0" type="curve"/>
      <point x="345" y="114"/>
      <point x="345" y="0"/>
    </contour>
    <contour>
      <point x="423" y="0" type="curve"/>
      <point x="423" y="237"/>
      <point x="423" y="473"/>
      <point x="423" y="710" type="curve"/>
      <point x="271" y="710"/>
      <point x="423" y="710"/>
      <point x="271" y="710" type="curve"/>
      <point x="270" y="473"/>
      <point x="271" y="237"/>
      <point x="271" y="0" type="curve"/>
      <point x="423" y="0"/>
      <point x="271" y="0"/>
    </contour>
    <contour>
      <point x="24" y="601" type="curve"/>
      <point x="238" y="601"/>
      <point x="454" y="601"/>
      <point x="669" y="601" type="curve"/>
      <point x="669" y="727"/>
      <point x="669" y="596"/>
      <point x="669" y="722" type="curve"/>
      <point x="454" y="722"/>
      <point x="238" y="722"/>
      <point x="24" y="722" type="curve"/>
      <point x="24" y="596"/>
      <point x="24" y="727"/>
    </contour>
    <contour>
      <point x="280" y="-401" type="line"/>
      <point x="391" y="-401"/>
      <point x="467" y="-328"/>
      <point x="467" y="-219" type="curve"/>
      <point x="467" y="-135"/>
      <point x="428" y="-78"/>
      <point x="369" y="-78" type="curve"/>
      <point x="321" y="-78"/>
      <point x="286" y="-104"/>
      <point x="286" y="-153" type="curve"/>
      <point x="286" y="-198"/>
      <point x="318" y="-226"/>
      <point x="367" y="-226" type="curve"/>
      <point x="366" y="-264"/>
      <point x="354" y="-310"/>
      <point x="280" y="-320" type="curve"/>
    </contour>
  </outline>
</glyph>
<glyph name="tcommaaccent" format="1">
  <advance width="429"/>
  <unicode hex="0163"/>
  <outline>
    <contour>
      <point x="14" y="419" type="curve"/>
      <point x="393" y="419" type="line"/>
      <point x="393" y="533"/>
      <point x="393" y="419"/>
      <point x="393" y="533" type="curve"/>
      <point x="14" y="533" type="line"/>
      <point x="14" y="419"/>
      <point x="14" y="533"/>
    </contour>
    <contour>
      <point x="370" y="128" type="curve"/>
      <point x="346" y="117"/>
      <point x="329" y="113"/>
      <point x="304" y="113" type="curve"/>
      <point x="264" y="113"/>
      <point x="250" y="136"/>
      <point x="250" y="177" type="curve"/>
      <point x="250" y="687" type="line"/>
      <point x="183" y="645"/>
      <point x="165" y="642"/>
      <point x="98" y="600" type="curve"/>
      <point x="98" y="171" type="line"/>
      <point x="98" y="52"/>
      <point x="169" y="-6"/>
      <point x="286" y="-6" type="curve"/>
      <point x="342" y="-6"/>
      <point x="380" y="9"/>
      <point x="418" y="29" type="curve"/>
      <point x="370" y="128"/>
      <point x="418" y="29"/>
    </contour>
    <contour>
      <point x="202" y="-395" type="line"/>
      <point x="312" y="-395"/>
      <point x="389" y="-322"/>
      <point x="389" y="-214" type="curve"/>
      <point x="389" y="-129"/>
      <point x="349" y="-73"/>
      <point x="291" y="-73" type="curve"/>
      <point x="242" y="-73"/>
      <point x="207" y="-99"/>
      <point x="207" y="-147" type="curve"/>
      <point x="207" y="-193"/>
      <point x="239" y="-220"/>
      <point x="288" y="-220" type="curve"/>
      <point x="287" y="-259"/>
      <point x="276" y="-305"/>
      <point x="202" y="-315" type="curve"/>
    </contour>
  </outline>
</glyph>
<glyph name="umacron" format="1">
  <advance width="739"/>
  <unicode hex="016B"/>
  <outline>
    <contour>
      <point x="554" y="533" type="curve"/>
      <point x="501" y="533"/>
      <point x="456" y="533"/>
      <point x="403" y="533" type="curve"/>
      <point x="403" y="459"/>
      <point x="403" y="494"/>
      <point x="403" y="419" type="curve"/>
      <point x="499" y="419"/>
      <point x="458" y="419"/>
      <point x="554" y="419" type="curve"/>
      <point x="554" y="494"/>
      <point x="554" y="459"/>
    </contour>
    <contour>
      <point x="174" y="533" type="curve"/>
      <point x="121" y="533"/>
      <point x="76" y="533"/>
      <point x="23" y="533" type="curve"/>
      <point x="23" y="459"/>
      <point x="23" y="494"/>
      <point x="23" y="419" type="curve"/>
      <point x="119" y="419"/>
      <point x="78" y="419"/>
      <point x="174" y="419" type="curve"/>
      <point x="174" y="494"/>
      <point x="174" y="459"/>
    </contour>
    <contour>
      <point x="554" y="0" type="curve"/>
      <point x="604" y="0"/>
      <point x="646" y="0"/>
      <point x="695" y="0" type="curve"/>
      <point x="695" y="74"/>
      <point x="695" y="39"/>
      <point x="695" y="114" type="curve"/>
      <point x="605" y="114"/>
      <point x="644" y="114"/>
      <point x="554" y="114" type="curve"/>
      <point x="554" y="39"/>
      <point x="554" y="74"/>
    </contour>
    <contour>
      <point x="631" y="0" type="curve"/>
      <point x="631" y="186"/>
      <point x="631" y="347"/>
      <point x="631" y="533" type="curve"/>
      <point x="532" y="533"/>
      <point x="577" y="533"/>
      <point x="478" y="533" type="curve"/>
      <point x="478" y="347"/>
      <point x="478" y="186"/>
      <point x="478" y="0" type="curve"/>
      <point x="577" y="0"/>
      <point x="532" y="0"/>
    </contour>
    <contour>
      <point x="518" y="255" type="curve"/>
      <point x="487" y="176"/>
      <point x="437" y="112"/>
      <point x="354" y="112" type="curve"/>
      <point x="286" y="112"/>
      <point x="250" y="153"/>
      <point x="250" y="221" type="curve"/>
      <point x="250" y="330"/>
      <point x="250" y="424"/>
      <point x="250" y="533" type="curve"/>
      <point x="152" y="533"/>
      <point x="196" y="533"/>
      <point x="98" y="533" type="curve"/>
      <point x="98" y="421"/>
      <point x="98" y="326"/>
      <point x="98" y="215" type="curve"/>
      <point x="98" y="76"/>
      <point x="183" y="-5"/>
      <point x="330" y="-5" type="curve"/>
      <point x="452" y="-5"/>
      <point x="530" y="77"/>
      <point x="581" y="197" type="curve"/>
      <point x="540" y="228"/>
      <point x="559" y="223"/>
    </contour>
    <contour>
      <point x="458" y="724" type="curve"/>
      <point x="380" y="724"/>
      <point x="301" y="724"/>
      <point x="223" y="724" type="curve"/>
      <point x="223" y="610"/>
      <point x="223" y="724"/>
      <point x="223" y="610" type="curve"/>
      <point x="301" y="610"/>
      <point x="380" y="610"/>
      <point x="458" y="610" type="curve"/>
      <point x="458" y="724"/>
      <point x="458" y="610"/>
    </contour>
  </outline>
</glyph>
<glyph name="zacute" format="1">
  <advance width="580"/>
  <unicode hex="017A"/>
  <outline>
    <contour>
      <point x="61" y="419" type="curve"/>
      <point x="202" y="419"/>
      <point x="338" y="419"/>
      <point x="479" y="419" type="curve"/>
      <point x="468" y="432"/>
      <point x="445" y="426"/>
      <point x="434" y="439" type="curve"/>
      <point x="425" y="450"/>
      <point x="424" y="466"/>
      <point x="415" y="477" type="curve"/>
      <point x="406" y="468"/>
      <point x="392" y="476"/>
      <point x="384" y="468" type="curve"/>
      <point x="42" y="114" type="line"/>
      <point x="42" y="56"/>
      <point x="42" y="114"/>
      <point x="42" y="56" type="curve"/>
      <point x="42" y="0"/>
      <point x="42" y="56"/>
      <point x="42" y="0" type="curve"/>
      <point x="97" y="0"/>
      <point x="42" y="0"/>
      <point x="97" y="0" type="curve"/>
      <point x="555" y="0"/>
      <point x="397" y="0"/>
      <point x="550" y="0" type="curve"/>
      <point x="550" y="114"/>
      <point x="550" y="0"/>
      <point x="550" y="114" type="curve"/>
      <point x="397" y="114"/>
      <point x="250" y="114"/>
      <point x="97" y="114" type="curve"/>
      <point x="108" y="106"/>
      <point x="124" y="106"/>
      <point x="136" y="98" type="curve"/>
      <point x="146" y="86"/>
      <point x="149" y="68"/>
      <point x="159" y="56" type="curve"/>
      <point x="167" y="65"/>
      <point x="177" y="57"/>
      <point x="185" y="65" type="curve"/>
      <point x="529" y="419" type="line"/>
      <point x="529" y="477"/>
      <point x="529" y="419"/>
      <point x="529" y="477" type="curve"/>
      <point x="529" y="533"/>
      <point x="529" y="477"/>
      <point x="529" y="533" type="curve"/>
      <point x="479" y="533"/>
      <point x="529" y="533"/>
      <point x="479" y="533" type="curve"/>
      <point x="338" y="533"/>
      <point x="202" y="533"/>
      <point x="61" y="533" type="curve"/>
      <point x="61" y="419"/>
      <point x="61" y="533"/>
    </contour>
    <contour>
      <point x="61" y="476" type="curve"/>
      <point x="61" y="356"/>
      <point x="61" y="476"/>
      <point x="61" y="356" type="curve"/>
      <point x="179" y="356"/>
      <point x="61" y="356"/>
      <point x="179" y="356" type="curve"/>
      <point x="179" y="476"/>
      <point x="179" y="356"/>
      <point x="179" y="476" type="curve"/>
      <point x="61" y="476"/>
      <point x="179" y="476"/>
    </contour>
    <contour>
      <point x="550" y="57" type="curve"/>
      <point x="550" y="177"/>
      <point x="550" y="57"/>
      <point x="550" y="177" type="curve"/>
      <point x="433" y="177"/>
      <point x="550" y="177"/>
      <point x="433" y="177" type="curve"/>
      <point x="433" y="57"/>
      <point x="433" y="177"/>
      <point x="433" y="57" type="curve"/>
      <point x="550" y="57"/>
      <point x="433" y="57"/>
    </contour>
    <contour>
      <point x="360" y="609" type="line"/>
      <point x="521" y="775" type="line"/>
      <point x="328" y="775" type="line"/>
      <point x="212" y="609" type="line"/>
    </contour>
  </outline>
</glyph>
<glyph name="zdotaccent" format="1">
  <advance width="580"/>
  <unicode hex="017C"/>
  <outline>
    <contour>
      <point x="61" y="419" type="curve"/>
      <point x="202" y="419"/>
      <point x="338" y="419"/>
      <point x="479" y="419" type="curve"/>
      <point x="468" y="432"/>
      <point x="445" y="426"/>
      <point x="434" y="439" type="curve"/>
      <point x="425" y="450"/>
      <point x="424" y="466"/>
      <point x="415" y="477" type="curve"/>
      <point x="406" y="468"/>
      <point x="392" y="476"/>
      <point x="384" y="468" type="curve"/>
      <point x="42" y="114" type="line"/>
      <point x="42" y="56"/>
      <point x="42" y="114"/>
      <point x="42" y="56" type="curve"/>
      <point x="42" y="0"/>
      <point x="42" y="56"/>
      <point x="42" y="0" type="curve"/>
      <point x="97" y="0"/>
      <point x="42" y="0"/>
      <point x="97" y="0" type="curve"/>
      <point x="555" y="0"/>
      <point x="397" y="0"/>
      <point x="550" y="0" type="curve"/>
      <point x="550" y="114"/>
      <point x="550" y="0"/>
      <point x="550" y="114" type="curve"/>
      <point x="397" y="114"/>
      <point x="250" y="114"/>
      <point x="97" y="114" type="curve"/>
      <point x="108" y="106"/>
      <point x="124" y="106"/>
      <point x="136" y="98" type="curve"/>
      <point x="146" y="86"/>
      <point x="149" y="68"/>
      <point x="159" y="56" type="curve"/>
      <point x="167" y="65"/>
      <point x="177" y="57"/>
      <point x="185" y="65" type="curve"/>
      <point x="529" y="419" type="line"/>
      <point x="529" y="477"/>
      <point x="529" y="419"/>
      <point x="529" y="477" type="curve"/>
      <point x="529" y="533"/>
      <point x="529" y="477"/>
      <point x="529" y="533" type="curve"/>
      <point x="479" y="533"/>
      <point x="529" y="533"/>
      <point x="479" y="533" type="curve"/>
      <point x="338" y="533"/>
      <point x="202" y="533"/>
      <point x="61" y="533" type="curve"/>
      <point x="61" y="419"/>
      <point x="61" y="533"/>
    </contour>
    <contour>
      <point x="61" y="476" type="curve"/>
      <point x="61" y="356"/>
      <point x="61" y="476"/>
      <point x="61" y="356" type="curve"/>
      <point x="179" y="356"/>
      <point x="61" y="356"/>
      <point x="179" y="356" type="curve"/>
      <point x="179" y="476"/>
      <point x="179" y="356"/>
      <point x="179" y="476" type="curve"/>
      <point x="61" y="476"/>
      <point x="179" y="476"/>
    </contour>
    <contour>
      <point x="550" y="57" type="curve"/>
      <point x="550" y="177"/>
      <point x="550" y="57"/>
      <point x="550" y="177" type="curve"/>
      <point x="433" y="177"/>
      <point x="550" y="177"/>
      <point x="433" y="177" type="curve"/>
      <point x="433" y="57"/>
      <point x="433" y="177"/>
      <point x="433" y="57" type="curve"/>
      <point x="550" y="57"/>
      <point x="433" y="57"/>
    </contour>
    <contour>
      <point x="382" y="682" type="curve"/>
      <point x="382" y="732"/>
      <point x="345" y="756"/>
      <point x="296" y="756" type="curve"/>
      <point x="246" y="756"/>
      <point x="212" y="729"/>
      <point x="212" y="682" type="curve"/>
      <point x="382" y="682"/>
      <point x="212" y="682"/>
      <point x="382" y="682" type="curve"/>
      <point x="382" y="630"/>
      <point x="345" y="608"/>
      <point x="295" y="608" type="curve"/>
      <point x="245" y="608"/>
      <point x="212" y="633"/>
      <point x="212" y="682" type="curve"/>
      <point x="382" y="682"/>
      <point x="212" y="682"/>
    </contour>
  </outline>
</glyph>
<glyph name="florin" format="1">
  <advance width="508"/>
  <unicode hex="0192"/>
  <outline>
    <contour>
      <point x="455" y="570" type="curve"/>
      <point x="365" y="570"/>
      <point x="254" y="570"/>
      <point x="165" y="570" type="curve"/>
      <point x="165" y="455"/>
      <point x="165" y="570"/>
      <point x="165" y="455" type="curve"/>
      <point x="254" y="455"/>
      <point x="365" y="455"/>
      <point x="455" y="455" type="curve"/>
      <point x="455" y="570"/>
      <point x="455" y="455"/>
    </contour>
    <contour>
      <point x="507" y="813" type="curve"/>
      <point x="382" y="836"/>
      <point x="289" y="782"/>
      <point x="260" y="665" type="curve"/>
      <point x="217" y="479"/>
      <point x="175" y="294"/>
      <point x="133" y="108" type="curve"/>
      <point x="125" y="74"/>
      <point x="101" y="51"/>
      <point x="66" y="57" type="curve"/>
      <point x="38" y="-57"/>
      <point x="66" y="57"/>
      <point x="38" y="-57" type="curve"/>
      <point x="165" y="-78"/>
      <point x="257" y="-27"/>
      <point x="285" y="90" type="curve"/>
      <point x="329" y="281"/>
      <point x="375" y="470"/>
      <point x="419" y="660" type="curve"/>
      <point x="426" y="689"/>
      <point x="449" y="705"/>
      <point x="479" y="700" type="curve"/>
      <point x="507" y="813"/>
      <point x="479" y="700"/>
    </contour>
  </outline>
</glyph>
<glyph name="Scommaaccent" format="1">
  <advance width="685"/>
  <unicode hex="0218"/>
  <outline>
    <contour>
      <point x="465" y="661" type="curve"/>
      <point x="465" y="541"/>
      <point x="465" y="633"/>
      <point x="465" y="513" type="curve"/>
      <point x="583" y="513"/>
      <point x="465" y="513"/>
      <point x="583" y="513" type="curve"/>
      <point x="583" y="633"/>
      <point x="583" y="541"/>
      <point x="583" y="661" type="curve"/>
      <point x="465" y="661"/>
      <point x="583" y="661"/>
    </contour>
    <contour>
      <point x="191" y="52" type="curve"/>
      <point x="191" y="172"/>
      <point x="191" y="92"/>
      <point x="191" y="212" type="curve"/>
      <point x="74" y="212"/>
      <point x="191" y="212"/>
      <point x="74" y="212" type="curve"/>
      <point x="74" y="92"/>
      <point x="74" y="172"/>
      <point x="74" y="52" type="curve"/>
      <point x="191" y="52"/>
      <point x="74" y="52"/>
    </contour>
    <contour>
      <point x="75" y="52" type="curve"/>
      <point x="159" y="9"/>
      <point x="230" y="-5"/>
      <point x="326" y="-5" type="curve"/>
      <point x="493" y="-5"/>
      <point x="635" y="46"/>
      <point x="635" y="195" type="curve"/>
      <point x="635" y="323"/>
      <point x="527" y="370"/>
      <point x="404" y="420" type="curve" smooth="yes"/>
      <point x="318" y="454"/>
      <point x="224" y="488"/>
      <point x="224" y="541" type="curve"/>
      <point x="223" y="592"/>
      <point x="276" y="614"/>
      <point x="340" y="614" type="curve"/>
      <point x="406" y="614"/>
      <point x="457" y="592"/>
      <point x="513" y="567" type="curve"/>
      <point x="584" y="660"/>
      <point x="512" y="568"/>
      <point x="583" y="661" type="curve"/>
      <point x="503" y="701"/>
      <point x="436" y="722"/>
      <point x="345" y="722" type="curve"/>
      <point x="193" y="722"/>
      <point x="72" y="666"/>
      <point x="72" y="533" type="curve"/>
      <point x="72" y="408"/>
      <point x="180" y="363"/>
      <point x="301" y="314" type="curve" smooth="yes"/>
      <point x="388" y="279"/>
      <point x="482" y="247"/>
      <point x="482" y="192" type="curve"/>
      <point x="482" y="143"/>
      <point x="412" y="114"/>
      <point x="332" y="114" type="curve"/>
      <point x="265" y="114"/>
      <point x="217" y="133"/>
      <point x="157" y="162" type="curve"/>
      <point x="74" y="54"/>
      <point x="158" y="161"/>
    </contour>
    <contour>
      <point x="262" y="-396" type="line"/>
      <point x="373" y="-396"/>
      <point x="449" y="-323"/>
      <point x="449" y="-214" type="curve"/>
      <point x="449" y="-130"/>
      <point x="410" y="-74"/>
      <point x="351" y="-74" type="curve"/>
      <point x="303" y="-74"/>
      <point x="268" y="-99"/>
      <point x="268" y="-148" type="curve"/>
      <point x="268" y="-193"/>
      <point x="300" y="-221"/>
      <point x="349" y="-221" type="curve"/>
      <point x="348" y="-259"/>
      <point x="336" y="-305"/>
      <point x="262" y="-315" type="curve"/>
    </contour>
  </outline>
</glyph>
<glyph name="ring" format="1">
  <advance width="445"/>
  <unicode hex="02DA"/>
  <outline>
    <contour>
      <point x="147" y="447" type="move" name="_top"/>
    </contour>
    <contour>
      <point x="-31" y="593" type="curve"/>
      <point x="-31" y="494"/>
      <point x="44" y="444"/>
      <point x="148" y="444" type="curve"/>
      <point x="254" y="444"/>
      <point x="329" y="493"/>
      <point x="329" y="593" type="curve"/>
      <point x="329" y="692"/>
      <point x="253" y="741"/>
      <point x="146" y="741" type="curve"/>
      <point x="42" y="741"/>
      <point x="-31" y="691"/>
      <point x="-31" y="593" type="curve"/>
      <point x="99" y="593"/>
      <point x="-36" y="593"/>
      <point x="94" y="593" type="curve"/>
      <point x="94" y="625"/>
      <point x="112" y="643"/>
      <point x="146" y="643" type="curve"/>
      <point x="181" y="643"/>
      <point x="202" y="628"/>
      <point x="202" y="593" type="curve"/>
      <point x="202" y="559"/>
      <point x="182" y="542"/>
      <point x="148" y="542" type="curve"/>
      <point x="114" y="542"/>
      <point x="94" y="560"/>
      <point x="94" y="593" type="curve"/>
      <point x="-36" y="593"/>
      <point x="99" y="593"/>
    </contour>
  </outline>
</glyph>
<glyph name="ogonek" format="1">
  <advance width="293"/>
  <unicode hex="02DB"/>
  <outline>
    <contour>
      <point x="168" y="17" type="move" name="_bottom"/>
    </contour>
    <contour>
      <point x="139" y="95" type="curve"/>
      <point x="62" y="63"/>
      <point x="-10" y="43"/>
      <point x="-10" y="-38" type="curve"/>
      <point x="-10" y="-121"/>
      <point x="49" y="-167"/>
      <point x="136" y="-167" type="curve"/>
      <point x="182" y="-167"/>
      <point x="212" y="-155"/>
      <point x="252" y="-134" type="curve"/>
      <point x="183" y="-43"/>
      <point x="252" y="-134"/>
      <point x="183" y="-43" type="curve"/>
      <point x="170" y="-49"/>
      <point x="161" y="-56"/>
      <point x="148" y="-56" type="curve"/>
      <point x="134" y="-56"/>
      <point x="124" y="-49"/>
      <point x="124" y="-36" type="curve"/>
      <point x="124" y="-6"/>
      <point x="163" y="0"/>
      <point x="195" y="16" type="curve"/>
      <point x="139" y="95"/>
      <point x="195" y="16"/>
    </contour>
  </outline>
</glyph>
<glyph name="dvAA" format="1">
  <advance width="1165"/>
  <unicode hex="0906"/>
  <outline>
    <contour>
      <point x="647" y="461" type="line"/>
      <point x="628" y="420"/>
      <point x="594" y="398"/>
      <point x="548" y="398" type="curve" smooth="yes"/>
      <point x="485" y="398"/>
      <point x="443" y="419"/>
      <point x="387" y="448" type="curve"/>
      <point x="372" y="417"/>
      <point x="345" y="412"/>
      <point x="330" y="381" type="curve"/>
      <point x="404" y="342"/>
      <point x="460" y="291"/>
      <point x="549" y="291" type="curve" smooth="yes"/>
      <point x="639" y="291"/>
      <point x="697" y="347"/>
      <point x="733" y="424" type="curve"/>
    </contour>
    <contour>
      <point x="702" y="0" type="curve"/>
      <point x="747" y="0"/>
      <point x="782" y="0"/>
      <point x="827" y="0" type="curve"/>
      <point x="827" y="114"/>
      <point x="827" y="0"/>
      <point x="827" y="114" type="curve"/>
      <point x="691" y="114"/>
      <point x="837" y="114"/>
      <point x="702" y="114" type="curve"/>
      <point x="702" y="0"/>
      <point x="702" y="114"/>
    </contour>
    <contour>
      <point x="702" y="114" type="curve"/>
      <point x="557" y="114"/>
      <point x="713" y="114"/>
      <point x="567" y="114" type="curve"/>
      <point x="567" y="0"/>
      <point x="567" y="114"/>
      <point x="567" y="0" type="curve"/>
      <point x="616" y="0"/>
      <point x="654" y="0"/>
      <point x="702" y="0" type="curve"/>
      <point x="702" y="114"/>
      <point x="702" y="0"/>
    </contour>
    <contour>
      <point x="777" y="0" type="curve"/>
      <point x="777" y="241"/>
      <point x="777" y="481"/>
      <point x="777" y="722" type="curve"/>
      <point x="625" y="722"/>
      <point x="777" y="722"/>
      <point x="625" y="722" type="curve"/>
      <point x="625" y="481"/>
      <point x="625" y="241"/>
      <point x="625" y="0" type="curve"/>
      <point x="777" y="0"/>
      <point x="625" y="0"/>
    </contour>
    <contour>
      <point x="690" y="596" type="curve"/>
      <point x="787" y="596"/>
      <point x="865" y="596"/>
      <point x="963" y="596" type="curve"/>
      <point x="963" y="722"/>
      <point x="963" y="596"/>
      <point x="963" y="722" type="curve"/>
      <point x="865" y="722"/>
      <point x="787" y="722"/>
      <point x="690" y="722" type="curve"/>
      <point x="690" y="596"/>
      <point x="690" y="722"/>
    </contour>
    <contour>
      <point x="149" y="562" type="curve"/>
      <point x="192" y="589"/>
      <point x="225" y="607"/>
      <point x="275" y="607" type="curve"/>
      <point x="329" y="607"/>
      <point x="367" y="583"/>
      <point x="366" y="538" type="curve"/>
      <point x="366" y="480"/>
      <point x="304" y="467"/>
      <point x="230" y="467" type="curve"/>
      <point x="230" y="429"/>
      <point x="230" y="403"/>
      <point x="230" y="365" type="curve"/>
      <point x="391" y="365"/>
      <point x="518" y="411"/>
      <point x="518" y="544" type="curve"/>
      <point x="518" y="665"/>
      <point x="425" y="727"/>
      <point x="294" y="727" type="curve"/>
      <point x="207" y="727"/>
      <point x="147" y="707"/>
      <point x="74" y="660" type="curve"/>
      <point x="102" y="623"/>
      <point x="122" y="598"/>
    </contour>
    <contour>
      <point x="49" y="151" type="curve"/>
      <point x="113" y="82"/>
      <point x="184" y="60"/>
      <point x="278" y="60" type="curve"/>
      <point x="425" y="55"/>
      <point x="531" y="123"/>
      <point x="530" y="258" type="curve"/>
      <point x="528" y="409"/>
      <point x="393" y="443"/>
      <point x="230" y="443" type="curve"/>
      <point x="230" y="407"/>
      <point x="230" y="381"/>
      <point x="230" y="346" type="curve"/>
      <point x="312" y="346"/>
      <point x="380" y="334"/>
      <point x="381" y="259" type="curve"/>
      <point x="381" y="200"/>
      <point x="339" y="174"/>
      <point x="279" y="176" type="curve"/>
      <point x="227" y="176"/>
      <point x="193" y="192"/>
      <point x="153" y="225" type="curve"/>
      <point x="115" y="197"/>
      <point x="88" y="179"/>
    </contour>
    <contour>
      <point x="1009" y="0" type="curve"/>
      <point x="1055" y="0"/>
      <point x="1090" y="0"/>
      <point x="1136" y="0" type="curve"/>
      <point x="1136" y="114"/>
      <point x="1136" y="0"/>
      <point x="1136" y="114" type="curve"/>
      <point x="998" y="114"/>
      <point x="1146" y="114"/>
      <point x="1009" y="114" type="curve"/>
      <point x="1009" y="0"/>
      <point x="1009" y="114"/>
    </contour>
    <contour>
      <point x="1009" y="114" type="curve"/>
      <point x="867" y="114"/>
      <point x="1020" y="114"/>
      <point x="878" y="114" type="curve"/>
      <point x="878" y="0"/>
      <point x="878" y="114"/>
      <point x="878" y="0" type="curve"/>
      <point x="925" y="0"/>
      <point x="962" y="0"/>
      <point x="1009" y="0" type="curve"/>
      <point x="1009" y="114"/>
      <point x="1009" y="0"/>
    </contour>
    <contour>
      <point x="1084" y="0" type="curve"/>
      <point x="1084" y="241"/>
      <point x="1084" y="481"/>
      <point x="1084" y="722" type="curve"/>
      <point x="932" y="722"/>
      <point x="1084" y="722"/>
      <point x="932" y="722" type="curve"/>
      <point x="932" y="481"/>
      <point x="932" y="241"/>
      <point x="932" y="0" type="curve"/>
      <point x="1084" y="0"/>
      <point x="932" y="0"/>
    </contour>
    <contour>
      <point x="997" y="596" type="curve"/>
      <point x="1065" y="596"/>
      <point x="1117" y="596"/>
      <point x="1185" y="596" type="curve"/>
      <point x="1185" y="722"/>
      <point x="1185" y="596"/>
      <point x="1185" y="722" type="curve"/>
      <point x="1117" y="722"/>
      <point x="1065" y="722"/>
      <point x="997" y="722" type="curve"/>
      <point x="997" y="596"/>
      <point x="997" y="722"/>
    </contour>
  </outline>
</glyph>
<glyph name="dvU" format="1">
  <advance width="572"/>
  <unicode hex="0909"/>
  <outline>
    <contour>
      <point x="53" y="145" type="curve"/>
      <point x="109" y="89"/>
      <point x="188" y="54"/>
      <point x="282" y="54" type="curve"/>
      <point x="428" y="50"/>
      <point x="535" y="117"/>
      <point x="534" y="252" type="curve"/>
      <point x="532" y="403"/>
      <point x="397" y="437"/>
      <point x="234" y="437" type="curve"/>
      <point x="234" y="401"/>
      <point x="234" y="376"/>
      <point x="234" y="340" type="curve"/>
      <point x="315" y="340"/>
      <point x="384" y="328"/>
      <point x="385" y="253" type="curve"/>
      <point x="385" y="194"/>
      <point x="343" y="168"/>
      <point x="282" y="170" type="curve"/>
      <point x="231" y="170"/>
      <point x="196" y="186"/>
      <point x="157" y="219" type="curve"/>
      <point x="119" y="191"/>
      <point x="91" y="173"/>
    </contour>
    <contour>
      <point x="279" y="608" type="line"/>
      <point x="333" y="608"/>
      <point x="370" y="578"/>
      <point x="369" y="532" type="curve"/>
      <point x="369" y="474"/>
      <point x="308" y="461"/>
      <point x="234" y="461" type="curve"/>
      <point x="234" y="423"/>
      <point x="234" y="397"/>
      <point x="234" y="359" type="curve"/>
      <point x="394" y="359"/>
      <point x="521" y="406"/>
      <point x="522" y="538" type="curve"/>
      <point x="522" y="653"/>
      <point x="429" y="706"/>
      <point x="298" y="706" type="curve"/>
    </contour>
    <component base="dvTopbar" xScale="0.964575091528" xOffset="-1"/>
  </outline>
</glyph>
<glyph name="dvUU" format="1">
  <advance width="951"/>
  <unicode hex="090A"/>
  <outline>
    <contour>
      <point x="670" y="131" type="curve"/>
      <point x="670" y="15" type="line"/>
      <point x="806" y="15"/>
      <point x="909" y="76"/>
      <point x="909" y="202" type="curve"/>
      <point x="909" y="332"/>
      <point x="806" y="394"/>
      <point x="668" y="394" type="curve"/>
      <point x="542" y="394"/>
      <point x="468" y="327"/>
      <point x="386" y="229" type="curve"/>
      <point x="488" y="158" type="line"/>
      <point x="546" y="218"/>
      <point x="589" y="270"/>
      <point x="674" y="270" type="curve"/>
      <point x="724" y="270"/>
      <point x="759" y="249"/>
      <point x="759" y="200" type="curve"/>
      <point x="759" y="151"/>
      <point x="720" y="131"/>
    </contour>
    <component base="dvU"/>
    <component base="dvTopbar" xOffset="360"/>
  </outline>
</glyph>
<glyph name="dvE" format="1">
  <advance width="663"/>
  <unicode hex="090F"/>
  <outline>
    <contour>
      <point x="416" y="240" type="curve"/>
      <point x="523" y="299"/>
      <point x="591" y="366"/>
      <point x="591" y="484" type="curve"/>
      <point x="591" y="546"/>
      <point x="591" y="599"/>
      <point x="591" y="662" type="curve"/>
      <point x="493" y="662"/>
      <point x="538" y="662"/>
      <point x="439" y="662" type="curve"/>
      <point x="439" y="597"/>
      <point x="439" y="541"/>
      <point x="439" y="476" type="curve"/>
      <point x="439" y="411"/>
      <point x="396" y="383"/>
      <point x="336" y="350" type="curve"/>
      <point x="376" y="303"/>
      <point x="376" y="287"/>
    </contour>
    <contour>
      <point x="527" y="114" type="curve"/>
      <point x="363" y="157"/>
      <point x="239" y="227"/>
      <point x="239" y="377" type="curve"/>
      <point x="239" y="478"/>
      <point x="239" y="564"/>
      <point x="239" y="664" type="curve"/>
      <point x="140" y="664"/>
      <point x="186" y="664"/>
      <point x="87" y="664" type="curve"/>
      <point x="86" y="559"/>
      <point x="86" y="467"/>
      <point x="86" y="362" type="curve"/>
      <point x="86" y="153"/>
      <point x="257" y="50"/>
      <point x="481" y="-10" type="curve"/>
      <point x="502" y="42"/>
      <point x="506" y="62"/>
    </contour>
    <component base="dvTopbar" xScale="1.09959407089" xOffset="2"/>
  </outline>
</glyph>
<glyph name="dvDA" format="1">
  <advance width="591"/>
  <unicode hex="0926"/>
  <outline>
    <contour>
      <point x="524" y="-56" type="move" name="blwm.virama"/>
    </contour>
    <contour>
      <point x="501" y="719" type="move" name="abvm.e"/>
    </contour>
    <contour>
      <point x="524" y="-37" type="move" name="blwm.u"/>
    </contour>
    <component base="dvDA_base"/>
    <component base="dvTopbar"/>
    <component base="dvStroke_down" yScale="1.08298955749" xOffset="-15" yOffset="34"/>
  </outline>
</glyph>
<glyph name="dvHA" format="1">
  <advance width="623"/>
  <unicode hex="0939"/>
  <outline>
    <contour>
      <point x="342" y="-129" type="move" name="blwm.virama"/>
    </contour>
    <contour>
      <point x="462" y="719" type="move" name="abvm.e"/>
    </contour>
    <contour>
      <point x="394" y="-211" type="move" name="blwm.u"/>
    </contour>
    <contour>
      <point x="281" y="311" type="curve"/>
      <point x="248" y="332"/>
      <point x="220" y="347"/>
      <point x="220" y="384" type="curve"/>
      <point x="220" y="424"/>
      <point x="260" y="425"/>
      <point x="304" y="425" type="curve"/>
      <point x="361" y="425"/>
      <point x="407" y="425"/>
      <point x="465" y="425" type="curve"/>
      <point x="366" y="500"/>
      <point x="411" y="465"/>
      <point x="312" y="540" type="curve"/>
      <point x="297" y="540"/>
      <point x="284" y="540"/>
      <point x="268" y="540" type="curve"/>
      <point x="158" y="540"/>
      <point x="73" y="496"/>
      <point x="73" y="396" type="curve"/>
      <point x="73" y="320"/>
      <point x="117" y="279"/>
      <point x="185" y="242" type="curve"/>
      <point x="250" y="291"/>
      <point x="215" y="262"/>
    </contour>
    <contour>
      <point x="312" y="664" type="curve"/>
      <point x="312" y="620"/>
      <point x="312" y="584"/>
      <point x="312" y="540" type="curve"/>
      <point x="411" y="465"/>
      <point x="366" y="500"/>
      <point x="465" y="425" type="curve"/>
      <point x="465" y="510"/>
      <point x="465" y="579"/>
      <point x="465" y="664" type="curve"/>
      <point x="366" y="664"/>
      <point x="411" y="664"/>
    </contour>
    <contour>
      <point x="565" y="179" type="line"/>
      <point x="539" y="295"/>
      <point x="450" y="351"/>
      <point x="331" y="351" type="curve"/>
      <point x="183" y="351"/>
      <point x="77" y="273"/>
      <point x="77" y="131" type="curve"/>
      <point x="77" y="-14"/>
      <point x="190" y="-92"/>
      <point x="345" y="-91" type="curve"/>
      <point x="345" y="-70"/>
      <point x="345" y="-2"/>
      <point x="345" y="19" type="curve"/>
      <point x="272" y="19"/>
      <point x="225" y="64"/>
      <point x="225" y="134" type="curve"/>
      <point x="225" y="199"/>
      <point x="267" y="237"/>
      <point x="328" y="237" type="curve"/>
      <point x="383" y="237"/>
      <point x="422" y="208"/>
      <point x="435" y="151" type="curve"/>
    </contour>
    <component base="dvTopbar" xScale="1.04491332283" xOffset="1"/>
  </outline>
</glyph>
<glyph name="dvmEcandra" format="1">
  <advance width="0"/>
  <unicode hex="0945"/>
  <outline>
    <contour>
      <point x="-73" y="740" type="move" name="_abvm.e"/>
    </contour>
    <contour>
      <point x="-73" y="1002" type="curve"/>
      <point x="-73" y="951"/>
      <point x="-102" y="919"/>
      <point x="-153" y="919" type="curve"/>
      <point x="-207" y="919"/>
      <point x="-237" y="950"/>
      <point x="-237" y="1003" type="curve"/>
      <point x="-336" y="1003"/>
      <point x="-290" y="1003"/>
      <point x="-389" y="1003" type="curve"/>
      <point x="-389" y="875"/>
      <point x="-294" y="806"/>
      <point x="-158" y="806" type="curve"/>
      <point x="-19" y="806"/>
      <point x="78" y="873"/>
      <point x="78" y="1002" type="curve"/>
      <point x="-20" y="1002"/>
      <point x="25" y="1002"/>
    </contour>
  </outline>
</glyph>
<glyph name="dvmE" format="1">
  <advance width="0"/>
  <unicode hex="0947"/>
  <outline>
    <contour>
      <point x="-62" y="720" type="move" name="_abvm.e"/>
    </contour>
    <contour>
      <point x="-516" y="886" type="line"/>
      <point x="-476" y="904"/>
      <point x="-444" y="915"/>
      <point x="-403" y="915" type="curve"/>
      <point x="-286" y="915"/>
      <point x="-246" y="798"/>
      <point x="-202" y="673" type="curve"/>
      <point x="-63" y="710" type="line"/>
      <point x="-134" y="887"/>
      <point x="-200" y="1040"/>
      <point x="-387" y="1040" type="curve"/>
      <point x="-454" y="1040"/>
      <point x="-507" y="1024"/>
      <point x="-571" y="997" type="curve"/>
    </contour>
  </outline>
</glyph>
<glyph name="dvPHxA" format="1">
  <advance width="976"/>
  <unicode hex="095E"/>
  <outline>
    <contour>
      <point x="611" y="-38" type="move" name="blwm.virama"/>
    </contour>
    <contour>
      <point x="611" y="719" type="move" name="abvm.e"/>
    </contour>
    <contour>
      <point x="670" y="-107" type="move" name="blwm.u"/>
    </contour>
    <component base="dvPHA"/>
    <component base="dvAnusvara" xOffset="392" yOffset="-954"/>
  </outline>
</glyph>
<glyph name="doubledanda" format="1">
  <advance width="602"/>
  <unicode hex="0965"/>
  <outline>
    <contour>
      <point x="406" y="722" type="curve"/>
      <point x="406" y="481"/>
      <point x="406" y="241"/>
      <point x="406" y="0" type="curve"/>
      <point x="559" y="0"/>
      <point x="406" y="0"/>
      <point x="559" y="0" type="curve"/>
      <point x="559" y="241"/>
      <point x="559" y="481"/>
      <point x="559" y="722" type="curve"/>
      <point x="406" y="722"/>
      <point x="559" y="722"/>
    </contour>
    <contour>
      <point x="143" y="722" type="curve"/>
      <point x="143" y="481"/>
      <point x="143" y="241"/>
      <point x="143" y="0" type="curve"/>
      <point x="295" y="0"/>
      <point x="143" y="0"/>
      <point x="295" y="0" type="curve"/>
      <point x="295" y="241"/>
      <point x="295" y="481"/>
      <point x="295" y="722" type="curve"/>
      <point x="143" y="722"/>
      <point x="295" y="722"/>
    </contour>
  </outline>
</glyph>
<glyph name="guilsinglleft" format="1">
  <advance width="340"/>
  <unicode hex="2039"/>
  <outline>
    <contour>
      <point x="266" y="485" type="curve"/>
      <point x="207" y="451"/>
      <point x="107" y="389"/>
      <point x="48" y="355" type="curve"/>
      <point x="48" y="229"/>
      <point x="48" y="345"/>
      <point x="48" y="220" type="curve"/>
      <point x="107" y="255"/>
      <point x="207" y="321"/>
      <point x="266" y="356" type="curve"/>
      <point x="266" y="481"/>
      <point x="266" y="361"/>
    </contour>
    <contour>
      <point x="266" y="222" type="curve"/>
      <point x="207" y="256"/>
      <point x="107" y="320"/>
      <point x="48" y="355" type="curve"/>
      <point x="48" y="229"/>
      <point x="48" y="345"/>
      <point x="48" y="220" type="curve"/>
      <point x="107" y="185"/>
      <point x="207" y="126"/>
      <point x="266" y="92" type="curve"/>
      <point x="266" y="217"/>
      <point x="266" y="96"/>
    </contour>
  </outline>
</glyph>
<glyph name="estimated" format="1">
  <advance width="818"/>
  <unicode hex="212E"/>
  <outline>
    <contour>
      <point x="646" y="182" type="curve"/>
      <point x="577" y="127"/>
      <point x="521" y="111"/>
      <point x="441" y="111" type="curve"/>
      <point x="286" y="111"/>
      <point x="220" y="222"/>
      <point x="220" y="370" type="curve"/>
      <point x="220" y="507"/>
      <point x="275" y="613"/>
      <point x="416" y="613" type="curve"/>
      <point x="551" y="613"/>
      <point x="613" y="521"/>
      <point x="613" y="395" type="curve"/>
      <point x="613" y="384"/>
      <point x="613" y="377"/>
      <point x="613" y="366" type="curve"/>
      <point x="628" y="379"/>
      <point x="639" y="387"/>
      <point x="654" y="400" type="curve"/>
      <point x="668" y="412"/>
      <point x="686" y="409"/>
      <point x="699" y="422" type="curve"/>
      <point x="490" y="422"/>
      <point x="348" y="422"/>
      <point x="138" y="422" type="curve"/>
      <point x="138" y="383"/>
      <point x="138" y="357"/>
      <point x="138" y="318" type="curve"/>
      <point x="348" y="318"/>
      <point x="490" y="318"/>
      <point x="699" y="318" type="curve"/>
      <point x="726" y="318"/>
      <point x="743" y="318"/>
      <point x="770" y="318" type="curve"/>
      <point x="770" y="336"/>
      <point x="770" y="348"/>
      <point x="770" y="366" type="curve"/>
      <point x="770" y="373"/>
      <point x="770" y="377"/>
      <point x="770" y="384" type="curve"/>
      <point x="770" y="589"/>
      <point x="649" y="728"/>
      <point x="423" y="728" type="curve"/>
      <point x="185" y="728"/>
      <point x="55" y="584"/>
      <point x="55" y="370" type="curve"/>
      <point x="55" y="146"/>
      <point x="192" y="-5"/>
      <point x="441" y="-5" type="curve"/>
      <point x="562" y="-5"/>
      <point x="643" y="26"/>
      <point x="730" y="100" type="curve"/>
      <point x="693" y="137"/>
      <point x="681" y="148"/>
    </contour>
    <contour>
      <point x="318" y="121" type="line"/>
      <point x="318" y="606" type="line"/>
      <point x="169" y="559" type="line"/>
      <point x="104" y="368" type="line"/>
      <point x="144" y="159" type="line"/>
    </contour>
    <contour>
      <point x="630" y="390" type="line"/>
      <point x="613" y="524" type="line"/>
      <point x="517" y="595" type="line"/>
      <point x="517" y="399" type="line"/>
    </contour>
  </outline>
</glyph>
<glyph name="partialdiff" format="1">
  <advance width="628"/>
  <unicode hex="2202"/>
  <outline>
    <contour>
      <point x="461" y="226" type="curve"/>
      <point x="451" y="304"/>
      <point x="394" y="352"/>
      <point x="304" y="352" type="curve"/>
      <point x="231" y="352"/>
      <point x="181" y="310"/>
      <point x="181" y="237" type="curve"/>
      <point x="181" y="163"/>
      <point x="219" y="108"/>
      <point x="295" y="109" type="curve"/>
      <point x="408" y="110"/>
      <point x="443" y="255"/>
      <point x="443" y="412" type="curve"/>
      <point x="443" y="521"/>
      <point x="410" y="614"/>
      <point x="313" y="614" type="curve"/>
      <point x="276" y="614"/>
      <point x="249" y="599"/>
      <point x="217" y="582" type="curve"/>
      <point x="144" y="667"/>
      <point x="217" y="582"/>
      <point x="144" y="667" type="curve"/>
      <point x="205" y="708"/>
      <point x="252" y="728"/>
      <point x="320" y="728" type="curve"/>
      <point x="493" y="728"/>
      <point x="583" y="594"/>
      <point x="583" y="412" type="curve"/>
      <point x="583" y="180"/>
      <point x="499" y="-5"/>
      <point x="287" y="-5" type="curve"/>
      <point x="138" y="-5"/>
      <point x="34" y="76"/>
      <point x="34" y="221" type="curve"/>
      <point x="34" y="371"/>
      <point x="141" y="461"/>
      <point x="297" y="461" type="curve"/>
      <point x="435" y="461"/>
      <point x="512" y="389"/>
      <point x="547" y="249" type="curve"/>
      <point x="458" y="225"/>
      <point x="550" y="250"/>
    </contour>
  </outline>
</glyph>
<glyph name="summation" format="1">
  <advance width="626"/>
  <unicode hex="2211"/>
  <outline>
    <contour>
      <point x="417" y="608" type="line"/>
      <point x="417" y="537" type="line"/>
      <point x="556" y="537" type="line"/>
      <point x="556" y="722" type="line"/>
    </contour>
    <contour>
      <point x="556" y="1" type="line"/>
      <point x="556" y="184" type="line"/>
      <point x="417" y="184" type="line"/>
      <point x="417" y="114" type="line"/>
    </contour>
    <contour>
      <point x="556" y="722" type="line"/>
      <point x="60" y="722" type="line"/>
      <point x="60" y="608" type="line"/>
      <point x="417" y="608" type="line"/>
    </contour>
    <contour>
      <point x="50" y="0" type="line"/>
      <point x="556" y="0" type="line"/>
      <point x="417" y="114" type="line"/>
      <point x="50" y="114" type="line"/>
    </contour>
    <contour>
      <point x="329" y="364" type="line"/>
      <point x="50" y="114" type="line"/>
      <point x="127" y="15" type="line"/>
      <point x="508" y="367" type="line"/>
    </contour>
    <contour>
      <point x="508" y="367" type="line"/>
      <point x="136" y="705" type="line"/>
      <point x="60" y="608" type="line"/>
      <point x="330" y="364" type="line"/>
    </contour>
  </outline>
</glyph>
<glyph name="divisionslash" format="1">
  <advance width="575"/>
  <unicode hex="2215"/>
  <outline>
    <contour>
      <point x="104" y="-33" type="line"/>
      <point x="548" y="705" type="line"/>
      <point x="410" y="705" type="line"/>
      <point x="-34" y="-33" type="line"/>
    </contour>
  </outline>
</glyph>
<glyph name="Tcedilla" format="1">
  <advance width="693"/>
  <outline>
    <contour>
      <point x="24" y="664" type="curve"/>
      <point x="24" y="544"/>
      <point x="24" y="664"/>
      <point x="24" y="544" type="curve"/>
      <point x="140" y="544"/>
      <point x="24" y="544"/>
      <point x="140" y="544" type="curve"/>
      <point x="140" y="664"/>
      <point x="140" y="544"/>
      <point x="140" y="664" type="curve"/>
      <point x="24" y="664"/>
      <point x="140" y="664"/>
    </contour>
    <contour>
      <point x="552" y="664" type="curve"/>
      <point x="552" y="544"/>
      <point x="552" y="664"/>
      <point x="552" y="544" type="curve"/>
      <point x="669" y="544"/>
      <point x="552" y="544"/>
      <point x="669" y="544" type="curve"/>
      <point x="669" y="664"/>
      <point x="669" y="544"/>
      <point x="669" y="664" type="curve"/>
      <point x="552" y="664"/>
      <point x="669" y="664"/>
    </contour>
    <contour>
      <point x="345" y="0" type="curve"/>
      <point x="396" y="0"/>
      <point x="446" y="0"/>
      <point x="497" y="0" type="curve"/>
      <point x="497" y="114"/>
      <point x="497" y="0"/>
      <point x="497" y="114" type="curve"/>
      <point x="345" y="114"/>
      <point x="497" y="114"/>
      <point x="345" y="114" type="curve"/>
      <point x="345" y="0"/>
      <point x="345" y="114"/>
    </contour>
    <contour>
      <point x="345" y="114" type="curve"/>
      <point x="194" y="114"/>
      <point x="345" y="114"/>
      <point x="194" y="114" type="curve"/>
      <point x="194" y="0"/>
      <point x="194" y="114"/>
      <point x="194" y="0" type="curve"/>
      <point x="244" y="0"/>
      <point x="295" y="0"/>
      <point x="345" y="0" type="curve"/>
      <point x="345" y="114"/>
      <point x="345" y="0"/>
    </contour>
    <contour>
      <point x="423" y="0" type="curve"/>
      <point x="423" y="237"/>
      <point x="423" y="473"/>
      <point x="423" y="710" type="curve"/>
      <point x="271" y="710"/>
      <point x="423" y="710"/>
      <point x="271" y="710" type="curve"/>
      <point x="270" y="473"/>
      <point x="271" y="237"/>
      <point x="271" y="0" type="curve"/>
      <point x="423" y="0"/>
      <point x="271" y="0"/>
    </contour>
    <contour>
      <point x="24" y="601" type="curve"/>
      <point x="238" y="601"/>
      <point x="454" y="601"/>
      <point x="669" y="601" type="curve"/>
      <point x="669" y="727"/>
      <point x="669" y="596"/>
      <point x="669" y="722" type="curve"/>
      <point x="454" y="722"/>
      <point x="238" y="722"/>
      <point x="24" y="722" type="curve"/>
      <point x="24" y="596"/>
      <point x="24" y="727"/>
    </contour>
    <contour>
      <point x="321" y="105" type="curve"/>
      <point x="307" y="84"/>
      <point x="244" y="-18"/>
      <point x="230" y="-40" type="curve"/>
      <point x="334" y="-131"/>
      <point x="230" y="-40"/>
      <point x="334" y="-131" type="curve"/>
      <point x="352" y="-105"/>
      <point x="422" y="-1"/>
      <point x="439" y="25" type="curve"/>
      <point x="321" y="105"/>
      <point x="439" y="25"/>
    </contour>
    <contour>
      <point x="334" y="-131" type="curve"/>
      <point x="339" y="-127"/>
      <point x="343" y="-125"/>
      <point x="348" y="-125" type="curve"/>
      <point x="355" y="-125"/>
      <point x="362" y="-127"/>
      <point x="362" y="-135" type="curve"/>
      <point x="362" y="-147"/>
      <point x="348" y="-151"/>
      <point x="334" y="-151" type="curve"/>
      <point x="311" y="-151"/>
      <point x="292" y="-144"/>
      <point x="264" y="-132" type="curve"/>
      <point x="216" y="-217"/>
      <point x="264" y="-132"/>
      <point x="216" y="-217" type="curve"/>
      <point x="253" y="-236"/>
      <point x="285" y="-245"/>
      <point x="327" y="-245" type="curve"/>
      <point x="415" y="-245"/>
      <point x="482" y="-214"/>
      <point x="482" y="-131" type="curve"/>
      <point x="482" y="-56"/>
      <point x="426" y="-16"/>
      <point x="346" y="-16" type="curve"/>
      <point x="303" y="-16"/>
      <point x="271" y="-23"/>
      <point x="230" y="-40" type="curve"/>
      <point x="334" y="-131"/>
      <point x="230" y="-40"/>
    </contour>
  </outline>
</glyph>
<glyph name="apostrophemod" format="1">
  <advance width="318"/>
  <outline>
    <contour>
      <point x="117" y="475" type="line"/>
      <point x="228" y="475"/>
      <point x="304" y="547"/>
      <point x="304" y="656" type="curve"/>
      <point x="304" y="741"/>
      <point x="264" y="797"/>
      <point x="206" y="797" type="curve"/>
      <point x="157" y="797"/>
      <point x="122" y="771"/>
      <point x="122" y="723" type="curve"/>
      <point x="122" y="677"/>
      <point x="154" y="649"/>
      <point x="203" y="649" type="curve"/>
      <point x="202" y="611"/>
      <point x="191" y="565"/>
      <point x="117" y="555" type="curve"/>
    </contour>
  </outline>
</glyph>
<glyph name="approxequal" format="1">
  <advance width="751"/>
  <outline>
    <contour>
      <point x="567" y="381" type="curve"/>
      <point x="551" y="340"/>
      <point x="536" y="308"/>
      <point x="503" y="308" type="curve"/>
      <point x="467" y="308"/>
      <point x="447" y="315"/>
      <point x="417" y="334" type="curve"/>
      <point x="362" y="375"/>
      <point x="325" y="395"/>
      <point x="256" y="395" type="curve"/>
      <point x="153" y="395"/>
      <point x="99" y="345"/>
      <point x="67" y="247" type="curve"/>
      <point x="110" y="228"/>
      <point x="136" y="218"/>
      <point x="180" y="200" type="curve"/>
      <point x="194" y="245"/>
      <point x="212" y="277"/>
      <point x="250" y="277" type="curve"/>
      <point x="282" y="277"/>
      <point x="299" y="270"/>
      <point x="325" y="253" type="curve"/>
      <point x="384" y="211"/>
      <point x="423" y="192"/>
      <point x="496" y="191" type="curve"/>
      <point x="597" y="191"/>
      <point x="646" y="240"/>
      <point x="685" y="334" type="curve"/>
      <point x="639" y="353"/>
      <point x="613" y="363"/>
    </contour>
    <contour>
      <point x="567" y="601" type="curve"/>
      <point x="551" y="561"/>
      <point x="536" y="529"/>
      <point x="503" y="529" type="curve"/>
      <point x="467" y="529"/>
      <point x="447" y="536"/>
      <point x="417" y="555" type="curve"/>
      <point x="362" y="595"/>
      <point x="325" y="615"/>
      <point x="256" y="615" type="curve"/>
      <point x="153" y="615"/>
      <point x="99" y="566"/>
      <point x="67" y="467" type="curve"/>
      <point x="110" y="449"/>
      <point x="136" y="439"/>
      <point x="180" y="421" type="curve"/>
      <point x="194" y="465"/>
      <point x="212" y="498"/>
      <point x="250" y="498" type="curve"/>
      <point x="282" y="498"/>
      <point x="299" y="491"/>
      <point x="325" y="474" type="curve"/>
      <point x="384" y="432"/>
      <point x="423" y="413"/>
      <point x="496" y="412" type="curve"/>
      <point x="597" y="412"/>
      <point x="646" y="461"/>
      <point x="685" y="555" type="curve"/>
      <point x="639" y="573"/>
      <point x="613" y="584"/>
    </contour>
  </outline>
</glyph>
<glyph name="bullet" format="1">
  <advance width="491"/>
  <outline>
    <contour>
      <point x="415" y="439" type="curve"/>
      <point x="415" y="539"/>
      <point x="342" y="587"/>
      <point x="243" y="587" type="curve"/>
      <point x="144" y="587"/>
      <point x="76" y="534"/>
      <point x="76" y="439" type="curve"/>
      <point x="415" y="439"/>
      <point x="76" y="439"/>
      <point x="415" y="439" type="curve"/>
      <point x="415" y="337"/>
      <point x="343" y="293"/>
      <point x="242" y="293" type="curve"/>
      <point x="142" y="293"/>
      <point x="76" y="342"/>
      <point x="76" y="439" type="curve"/>
      <point x="415" y="439"/>
      <point x="76" y="439"/>
    </contour>
  </outline>
</glyph>
